<?xml version='1.0' encoding='utf-8'?>
<svg xmlns="http://www.w3.org/2000/svg" xmlns:inkscape="http://www.inkscape.org/namespaces/inkscape" xmlns:xlink="http://www.w3.org/1999/xlink" viewBox="0 0 3012.8 3321.3" width="1506" height="1661" version="1.1" style="background:white">
  <desc>Taipei Metro network, derived from the Wikimedia Commons Taipei Metro map; station and line history from Wikipedia.</desc>
  <g id="zoom-layer">
    <g id="geography" pointer-events="none">
      <g id="water" transform="matrix(34.536 0 0 37.772 23366 -48693)" fill="#d3e5ed">
      <path d="m-574.24 1310.7-0.0798-0.4601 0.0426-0.01 0.0427 0.4951z"/>
      <path d="m-573.95 1310.7 0.2715 0.08 0.4242-0.045 0.1175 0.1812 0.2553 0.2042 0.5321 0.2693 0.2855 0.046 0.2018 0.6349 0.0375 0.6304h-0.0359l-0.0325-0.6276-0.1942-0.6145-0.2202-0.01-0.5993-0.3123-0.2716-0.2264-0.1042-0.1479-0.3866 0.047z"/>
      <path d="m-606.99 1278.8-0.164 0.074-0.148-0.1145-0.2248-0.08 0.2218 0.066 0.2037 0.1444z"/>
      <path d="m-605.22 1280.3 0.0229 0.023 0.0499 0.2244-0.0437 0.2065 0.0402 0.1151-0.0576-0.1161 0.0438-0.2047z"/>
      <path d="m-605.23 1280.3-0.043-0.5893-0.0583-0.116 0.0247 0.018 0.0582 0.3311-2e-3 0.031 0.0315 0.2874z"/>
      <path d="m-605.99 1282.1 0.0196 0.2429-0.0632-0.1z"/>
      <path d="m-643.79 1303.3-0.3245 1.1513h-0.0188z"/>
      <path d="m-640.7 1312-0.1322 0.066-0.5592 0.2289-0.1424-0.096 0.4353-0.076z"/>
      <path d="m-639.07 1308-0.1469 0.2474-0.0953 0.4965-0.0576-0.016 0.066-0.3149 0.0967-0.2657z"/>
      <path d="m-654.84 1310.6 0.0915 0.3692 0.072 0.1049 0.1286 0.2164 0.2605 0.2075 0.5614-0.069 0.478 0.093h0.1991l0.5343-0.079-0.2697 0.166 0.2834 0.2761h-0.1755l-0.1291-0.1052-0.0125-0.1502-0.4826-0.022-0.4827-0.077-0.2095 0.043-0.5065 0.1653-0.0368 0.15 0.0649 0.2014 0.1163 0.2747 0.0682 0.4006 0.142 0.146 0.1084 0.1968 0.4373 0.6808 0.0742 0.1856 0.2056 0.3399 0.3202 0.1094 0.1547 0.1442 0.1012-0.011 0.3352 0.1391 0.212 0.017 0.1159 0.095-0.041 0.1704 0.2883 0.095h0.1991l0.1865-0.087 0.1834 0.027 0.8601 0.2456 0.5188 0.2315 0.2634 0.037 0.2222 0.099h0.5353l0.5708 0.1548 0.6247 0.2829 0.2539 0.016 0.5623 0.2067 0.7207 0.3092 0.0205 0.058 0.2763 0.1047 0.1408 0.1303 0.4749 0.2898h0.1328l0.1083 0.1032 0.2245 0.029 0.1624 0.1007 0.1241 0.1811 0.6481 0.3803 0.1396-0.01 0.0332 0.1688 0.4185 0.3526 0.5333 0.2651 0.2105 0.1749 0.1972 0.2602 0.1213 0.047 0.1577 0.211 0.1118 0.056 0.1206 0.222 0.4398 0.3259 0.1867 0.1099 0.2387 0.2187 0.2205 0.2537 0.1862 0.076 0.2614 0.1826 0.5877 0.522 0.2543 0.1222 0.2895 0.2402 0.6476 0.6408 0.1261 0.1811-5e-3 0.1863 0.1722 0.1165 0.0515 0.2893 0.2499 0.3163-1.2088 0.2096-0.5921-0.8769-0.2961-0.3115-1.8755-1.6311-0.822-0.6618-0.5667-0.5144-0.3708-0.3664-0.391-0.423-0.2323-0.1982-0.3193-0.1772-0.7875-0.4883-0.3278-0.1113-0.8107-0.3188-0.7891-0.4002-0.1084-0.034-0.9947-0.1941-0.2094-0.024-0.7445-0.028h-0.5559l-0.7419-0.042h-1.1455l-0.4497-0.02-0.7887-7e-4 -0.5067-0.037-0.976-0.3608-0.8025-0.4196-0.1986-0.1202-0.4848-0.3621-1.1017-1.213-0.1462-0.3248 6e-3 -0.2641 0.2065-0.5592 0.2185-0.3951 0.2324-0.2866 0.3087-0.5394 0.3645-0.6941 0.2342-0.4015-0.4189-1.415-0.0914-0.4823-0.1482-0.4973-0.2195-0.3882h0.4939l0.5781-0.03 0.4491 2.1187z"/>
      <path d="m-637.73 1326.4-0.2168-0.6885-0.6359-1.2832-0.4339-0.6425 1.1959-0.2105 0.1862 0.081 0.2089 0.01 0.2284 0.3354 0.1831 0.414 0.2555 0.6534 0.1282 0.539 0.0964 0.029-0.0127 0.8148-1.1272 0.097z"/>
      <path d="m-636.79 1332.1 0.0891-2.1446-0.0344-0.534-0.2523-0.76-0.0414-0.3756-0.0711-0.3274-0.2965-0.7917-0.2032-0.4257 0.64-0.059 0.4509-0.023 0.2019 0.9326 0.2292 0.5986 0.0591 0.2996 0.1191 0.9811-1e-4 0.6627-0.0977 0.6708-0.1061 1.2491 0.0106 0.479-0.79-0.1431z"/>
      <path d="m-637.97 1337.9 0.0684-0.2131 0.3944-1.6781 0.1321-0.7163 0.0133-0.3744 0.0226-0.2551-0.0425-0.4483 0.1015-0.5855 0.2309-0.8103 0.1049-0.3264 0.8212 0.1428-0.1138 0.7305-0.017 0.9612-0.1048 0.4788-0.0632 0.466-0.1746 0.1663-0.1831 0.3952-0.269 0.4968-0.3935 1.0665-0.1287 0.1807-0.086 0.4841z"/>
      <path d="m-639.07 1339.7 0.1142-0.1312 0.1968-0.2706 0.3916-0.4412 0.0964-0.1159 0.2616-0.6831 0.2938 0.1747-0.205 0.5137-0.325 0.4225-0.1199 0.2675-0.4124 0.3591-0.3057 0.2346-0.3475-0.057z"/>
      <path d="m-639.49 1340 0.3698 0.04-0.1013 0.1267z"/>
      <path d="m-639.74 1340.2 0.3672 0.2006-0.036 0.1426z"/>
      <path d="m-644.2 1343 0.1532-0.1858 0.3761-0.3751 0.3553-0.3093 0.5231-0.4098 0.3479-0.2426 0.246-0.1373 2.4474-1.1445 0.2983 0.3139-0.1102 0.4789-0.4132 0.4648-0.2224 0.082-0.2716 0.3513-0.4153 0.31-0.2098-0.089-0.2976-0.017-0.5379 0.2577-0.2619 0.242-0.2982 0.083-0.1558-0.03-0.3165 0.018-0.0612 0.049-0.258-0.07-0.2615 0.1428-0.1259-0.01-0.1372 0.1219-0.0472 0.2909 0.1345 0.1794-0.1101 0.1256-0.3961 0.017-0.2057-0.1455z"/>
      <path d="m-588.59 1335.8-0.0677-0.1048-0.1872-0.3113-0.2773-0.3127-0.2315-0.3893-0.3639-0.7282-0.1522-0.2565-0.3975-0.5041-0.3834-0.2954-0.3235-0.1839-0.2287-0.092-1.3862-0.4053-0.2796-0.051h-0.2911l-0.224 0.1576-0.1535 0.381-0.1713-0.1567 0.144-0.3289 0.1851-0.1985 0.4112-0.098 0.2983 0.025 0.826 0.2297-0.0627 0.1378 0.8618 0.3002 0.2449 0.1095 0.3143 0.22 0.3835 0.327 0.3213 0.3406 0.2513 0.3848 0.13 0.3509 0.2792 0.5073 0.3876 0.5336 0.1509 0.2815-8e-3 0.1253z"/>
      <path d="m-593.57 1332.8-0.0748 0.132-0.3957 0.4266-0.4992 0.3974-0.2194 0.1168-0.3783 0.1227-1.0872 0.2763-0.4253 0.086-0.9361 0.113-0.7437 0.01-0.7587 0.064-0.8676-0.2362-0.3098-0.1282-0.2008-0.1705-0.3333-0.073-0.2667 0.039-0.4786-0.1588 0.4366-0.1844 0.2483-0.028 0.3413 0.023 0.24 0.079 0.263 0.1707 0.6581 0.2566 0.4931 0.1281 0.7678-0.015 1.0902-0.079 0.534-0.066 0.8913-0.1697 0.5011-0.1555 0.1929-0.085 0.4669-0.2975 0.192-0.1632 0.1053-0.1683 0.3826-0.4249z"/>
      <path d="m-601.14 1334-0.4674 0.2206-0.0751 0.1075-0.134-0.2337 0.2434-0.239z"/>
      <path d="m-601.75 1334.5-0.1536 0.1827-0.35 0.299-0.1787 0.2115-0.7238 0.633-0.1429 0.09-0.8544 0.4564-0.3939 0.1384-0.9211 0.2511-0.0975-0.2801 0.1659-0.079 1.0207-0.3157 0.2146-0.091 0.7077-0.3911 0.2148-0.1382 0.6343-0.5731 0.1749-0.09 0.2758-0.3187 0.2606-0.2383z"/>
      <path d="m-610.37 1337.4-0.098-0.3581 0.0447-0.038-0.0455-0.916 0.3436-0.1706-7e-3 0.8801-0.0525 0.1768 0.0215 0.1697 0.1123 0.079z"/>
      <path d="m-605.56 1336.8-0.526 0.1615-0.177 0.018-0.0975 0.1239-0.2683-0.08-0.1586 0.1217-0.1523-0.033-0.4518 0.1178-0.8668 0.1875-0.6387 0.1523-0.4618 0.078h-0.2675l-0.3702-0.05-0.2982-0.1339 0.3123-0.1658 0.2581 0.042 0.2521-0.01 1.2966-0.3592 1.0757-0.2127 0.9412-0.1084 0.5172-0.1188z"/>
      <path d="m-610.15 1329.4-0.0527-0.3129-0.2714-0.5201-0.1179-0.2776-0.2418-0.3764-0.2862-0.1457-0.3306 0.064-0.8482 0.5242-0.3745 0.1746-0.6516 0.3803-0.2588 0.1325-0.2747 0.084-0.2795-0.01-0.3459-0.1144-0.2728-0.2041-1.8667-0.8431-0.975-0.4977-0.2101 0.057-0.581 0.089-1.0896-0.071h-0.7012l-1.1647-0.061 9e-3 -0.524 0.5024 0.016 0.6357 0.058 0.125 0.055 0.6323 0.047 0.9695 0.1482 0.5089 0.027 0.3492-0.2249 0.1602 0.037 0.3711 0.209 1.391 0.5716 0.8293 0.4323 0.3188 0.1449 0.1393 0.2387 0.4414-1.0049 0.1138-0.1683 8e-3 -0.1288 0.1529 0.01-0.246 0.3031-0.4333 1.0031 0.3878-0.034 0.3647-0.2405 2.1602-1.2393 0.3707-0.071 0.2466 0.053 0.1888 0.123 0.1473 0.1712 0.3234 0.5407 0.1064 0.2404 0.1673 0.5077 0.0704 0.076-4e-4 0.5951z"/>
      <path d="m-611.35 1332.4 0.0479-0.2207 0.1705-0.2477 0.0661-0.1694 0.3391-0.5261 0.2043-0.4794 0.3122-0.9015 0.0467-0.3438 0.3348 0.046-0.0165 0.3732-0.0955 0.3565-0.3014 0.7691-0.2573 0.4671-0.5368 0.6263-0.0634 0.1656z"/>
      <path d="m-610.47 1336-7e-3 -0.9249-0.0629-0.4897-0.152-0.5632-0.2445-0.7239-0.2939-0.5239-0.0813-0.2534 0.2146-0.071 0.0359 0.1607 0.3802 0.5909 0.1779 0.4086 0.1577 0.4937 0.1471 0.5641 0.0472 0.4377 0.0221 0.7224z"/>
      <path d="m-625.61 1329.2 0.4367 1.1871-0.0958 0.02-0.3469-0.9652-0.0694-0.1372z"/>
      <path d="m-621.42 1327.5-0.6514-0.036-1.4411-0.027-0.6608-0.055h-0.4527l-0.9783-0.037-0.0989 0.05-0.0527 0.8341-0.0785-0.2608 0.0497-0.1036 0.0217-0.481-0.2513-0.044-0.8894-0.046-0.4163 0.052-0.532 0.1538-0.1328 0.2851 0.0909 0.4245-0.3949-0.1526-0.0432-0.1267 6e-3 -0.3309-0.0526-0.2208 0.1237-0.1979 0.3941-0.2665 0.4927-0.1901 0.3676-0.069 0.7751 0.021 0.3529 0.056 0.3289-0.021 3.2262 0.187 0.7906 0.097 0.1161-0.019z"/>
      <path d="m-630.14 1327.3-0.1371-0.1252-0.6896-0.3898 0.1366-0.3779 0.2344 0.09 0.7275 0.4911 0.2628 0.266 0.1589 0.2948z"/>
      <path d="m-631.06 1326.8-0.6788-0.1896-0.6988-0.3037-0.6031-0.4229-0.326-0.3339-0.4541-1.0267-0.1179-0.4305-0.1712-0.8895-0.0884-0.5304-0.0368-0.4348 0.4747-0.3219 0.0973 0.4647 0.0731 0.5805 0.0543 0.8696 0.1309 0.6066 0.1146 0.2729 0.1852 0.2778 0.3205 0.3607 0.1913 0.1064 0.0456 0.096 0.4439 0.3575 0.4048 0.197 0.6669 0.2349 0.1133 0.061z"/>
      <path d="m-627.91 1328.3-0.0554 0.2725-0.1759 0.062-0.0675 0.3001h-0.2047l-0.333-0.3837 0.2577-0.035 0.2044-0.1022 0.0707-0.2328z"/>
      <path d="m-628.53 1328.9-0.2454-0.061-0.4316-0.2175-0.2367-0.403 0.2406-0.1066 0.0801 0.1262z"/>
      <path d="m-629.5 1328.2-0.2176-0.3417-0.2064-0.2139 0.0211-0.056 0.5489 0.2116 0.1121 0.2957z"/>
      <path d="m-654.04 1313.1-0.1084-0.1968-0.142-0.146-0.0682-0.4006-0.1163-0.2747 0.1916 0.087 0.1474-0.021 0.4827 0.2434 0.4083 0.041 0.3203 0.098 0.0325 0.067 0.5306 0.2575 0.4259 0.051 0.3672-0.013 0.0843-0.111 0.2113-0.086 0.1608 0.047 0.1373-0.2813 0.2539-0.1002 0.1836 0.013 0.0926 0.1199 0.2125-0.1328 0.3152 0.078 0.1249-0.1924 0.2306-0.1355h0.1966l0.2915 0.1826 0.2894 0.064 0.6948-0.1674 0.7637-0.2283 0.6135-0.1602 0.1322-0.059 0.4638-0.1051 0.4151-0.2016 0.0979-0.038 0.2262-0.092 0.6073-0.1611 0.8109-0.097 0.2601 0.01 0.7413 0.2258 0.5341 0.2938 0.3454 0.2792 0.1081 0.1273 0.4381 0.2221 0.1424 0.096 0.17 0.1582 0.3316 0.5137 0.2452 0.7404 0.2193 0.7729 0.0671 0.6805 0.0115 0.3439-0.03 0.3883-0.0582 0.3251 0.0965 0.4378-0.0528 0.2334 0.0433 0.1744 0.0317 0.4821 0.0508 0.1985 0.154 0.3036-0.1759 0.1634-0.0856 0.1777 0.2116 0.1509 0.1017-0.1508 0.0564-0.2148 0.3953 0.04 0.3109 0.1521 0.1108 0.1505 0.1777-0.026 0.2513 0.052 0.4743 0.1768 0.1787-0.022 0.2006 0.067 0.8612 0.036 0.2914 0.037 0.6552 0.1885 0.3994 0.2618 0.285 0.1669 0.1866-0.048-0.0307-0.2736 0.3117 0.18-0.1026 0.1535-0.2512 0.095 0.5122 0.3873 0.4263 0.4584 0.2604 0.393 0.1573 0.3212 0.1562 0.6515-0.4733 0.3222-0.2904-0.8608-0.255-0.4458-0.2883-0.3541-0.6058-0.5341-0.4936-0.3539-0.3073-0.1207-0.5306-0.1176-0.5071-0.06-0.7779 0.046-0.2501 0.1113-0.2132-0.05-0.3027 0.016-0.4562-0.046-0.3884-0.1719-0.5363-0.3114-0.3857-0.3322-0.1112-0.1431-0.0921-0.244-0.0453-0.2662 0.0168-0.3225-0.0376-0.965-0.0622-0.8418 5e-3 -0.9194-0.0161-0.5895-0.0743-0.689-0.0791-0.269-0.3522-0.5119-0.3822-0.4258-0.1484-0.1015-0.4415-0.1822-0.3394-0.1958-0.3677-0.1625-0.3719-0.1162-0.4547-0.096h-0.2767l-0.3185 0.089-0.5364 0.23-0.6786 0.3407-0.9 0.5439-0.3212 0.1621-0.7951 0.3051-0.3727 0.1026-0.5257 0.1846-0.4527 0.061-0.6206 0.016-0.4141-0.013-0.807 0.1485-0.6336 0.019-0.1213-0.057-0.77-0.1341z"/>
      <path d="m-645.6 1311.4-0.0979 0.038 0.028-0.028 0.069-0.5989 0.0398-1e-3 -0.0673 0.5648z"/>
      <path d="m-645.29 1308.6-0.0553 0.3794-0.2155 1.7927h-0.0396l0.2547-2.0665z"/>
      <path d="m-654.68 1311-0.072-0.1049-0.0915-0.3692 0.1006 0.1059 0.3473-0.024 0.253-0.2871 0.0391 0.1749-0.5338 0.4164z"/>
      <path d="m-652.1 1310.1 0.0285 0.018-7e-3 0.021z"/>
      <path d="m-640 1313.2 0.3968-0.039 0.3656 0.035 0.5973 0.2467 0.2818 0.1493 0.6473 0.41 0.1991 0.019 0.4314-0.2886h0.2213l0.2214 0.2547-0.1191 0.2137-0.3748 0.3416-0.1039 0.1869 3e-4 0.1715 0.6397 0.7743-0.052 0.03-0.3318-0.4053-0.2771-0.2864-0.0439-0.2467 0.0757-0.1814 0.3012-0.2937 0.1978-0.3145-0.0615-0.1531-0.3023-0.024-0.3941 0.2322-0.3272-0.052-0.4815-0.3196-0.3319-0.1717-0.6389-0.2644-0.437-0.062z"/>
      <path d="m-640.7 1312 0.1025 0.1357 0.012 0.3977-0.0696 0.3344 0.0177 0.3411-0.111-0.052 4e-3 -0.2993 0.0944-0.3714-9e-3 -0.2549-0.1729-0.1647z"/>
      <path d="m-619.7 1319.7-0.2494 0.047-0.2143-0.043-0.45-0.2112-0.3802-0.2146 0.0311-0.039 0.7334 0.4133 0.1456-0.035z"/>
      <path d="m-635.69 1319.3-0.3994-0.2618 0.5347-0.3735 0.5864-0.2334 0.2437-0.07 0.1273-0.03 0.2762-0.099 0.0573 0.1348-0.4875 0.1453-0.3805 0.1497-0.1202 0.1229-0.0929 0.3361h-0.0734z"/>
      <path d="m-624.45 1317.5-0.2437-0.1577-0.3753-0.095-0.5798-0.017 9e-3 -0.051 0.6117 0.024 0.3703 0.1014z"/>
      <path d="m-626.17 1317.3-0.3869 0.083-0.4987 0.2142-0.273 0.061-0.3523-0.035-0.2862-0.1753-0.3491-0.015-0.2449 0.093 0.0271-0.1545 0.5343-0.014 0.3423 0.2051 0.4673 0.01 0.7957-0.3021z"/>
      <path d="m-628.66 1317.6-0.3821-0.07-0.2391-0.01-0.277 0.1316-0.2289 0.254-0.1285-0.032 0.2849-0.25 0.3857-0.1849 0.3257-0.072 0.0606 0.1429z"/>
      <path d="m-629.94 1318-0.2475 0.1479-0.4685 0.1133-0.4005-0.094-0.238-0.1771 2e-3 -0.1415 0.4284 0.3295 0.2949 0.012 0.3253-0.084 0.2735-0.2142z"/>
      <path d="m-632.69 1317.8 0.1683-0.035 0.4281-0.085 0.341-0.022 0.2391 0.037 0.166 0.097-3e-3 0.1327-0.5422-0.1813-0.4428 0.031-0.6447 0.1636-0.3323 0.042-0.3102 0.086-0.4792 0.1971 0.0255-0.1764 0.6624-0.1711z"/>
      <path d="m-634.81 1319.2-0.2196-0.1323 0.0645-0.067 0.2431-0.046 0.4848-0.2402 0.1303 0.2052-0.1989 0.1-0.2021 0.017z"/>
      <path d="m-588.42 1325.4-0.1064 0.084-0.1091 0.1571-4e-3 0.1316 0.1447 0.2342-0.0503 0.1342 0.0227-0.1278-0.1371-0.2369 0.0689-0.2565z"/>
      <path d="m-589.84 1330-0.0577 0.01 0.1974-0.02-0.011 0.026z"/>
      <path d="m-631.51 1324.8-0.0179-0.061 0.2699-0.2142 0.0457 0.042z"/>
      <path d="m-635.71 1326.3-0.3235-0.095 0.1287-0.082z"/>
      <path d="m-590.75 1330.7 0.2308-0.1401-3e-3 0.013-0.2048 0.1122z"/>
      <path d="m-591.32 1331.8 0.1327-0.04 0.0121 0.031h-5e-4z"/>
      <path d="m-588.65 1335.7 0.0677 0.1048h-3e-4l-0.0545 0.068-0.2306 0.1h-0.062l0.1887-0.058z"/>
      <path d="m-588.62 1342.3 0.0873 0.078 0.1172 0.3444 0.01 0.084-0.1272-0.3978z"/>
      <path d="m-588.17 1343.1 0.2797-0.1072 0.3536 0.082 0.2278 0.1539 0.2825 0.1161 0.4594 0.1076 0.1934 0.086 0.1309 0.1563 0.0634 0.245-4e-3 0.1761 0.1263 0.066 0.2228-0.1075-0.2374 0.1306-0.0901-0.013-0.0648-0.3998-0.1161-0.21-0.1713-0.098-0.6515-0.1687-0.3415-0.1998-0.2402-0.09-0.158-0.01z"/>
      <path d="m-585.76 1344 0.639-0.1511 0.1991-0.01 0.1208 0.031-0.2451-0.02z"/>
      <path d="m-589.95 1341.7 0.3636 0.4194 0.1417 0.076 0.2592 0.041-0.3442-0.046-0.3502-0.3713z"/>
      <path d="m-591.14 1339.9 0.453 0.8231 0.0552 0.065-0.0369-0.013z"/>
      <path d="m-590.51 1340.9 0.0137 0.01 0.1234 0.1154 0.1032 0.134z"/>
      <path d="m-589.05 1335.9-0.0497-0.039-0.1391-0.079-0.2263-0.2252-0.2654-0.1606-0.2685-0.039 0.309 0.014z"/>
      <path d="m-644.96 1347.4-0.1533-0.3463-0.2566-0.5665 0.2665-0.2113 0.242-0.1469 0.1463 0.5015 0.3073 0.6815z"/>
      <path d="m-644.29 1348.9-0.5299-1.1966 0.0379-0.2149 0.4181-0.075 0.2206 0.2751 0.2556 0.4281 0.1406 0.4361-0.0184 0.146z"/>
      <path d="m-641.53 1354.8-0.5272 0.047-0.3643-0.012-0.1753-0.1044-0.185-0.2453-0.4082-0.6465-0.4217-0.4918-0.2705-0.1263-0.267-0.3327-0.3044-0.6039-0.0245-0.3223-0.0877-0.3858 0.0109-0.3495 0.1962-1.109 0.0348-0.3153 0.0953-0.6979-0.0329-0.1014 0.4679-0.1727 0.1155 0.1962 0.0347 0.4422-0.039 0.4198 0.0346 0.4571-0.01 0.4236 0.1713 0.7347 0.1429 0.4231 0.2848 0.5321 0.1832 0.2935 0.4215 0.5762 0.2647 0.3206 0.2366 0.1139 0.4345 0.1093zm-2.2522-4.3233 0.0533-0.1278-0.055-0.1689-0.1224-0.016-1e-4 0.2447zm-0.1569 0.4119 0.084-0.013 0.0754-0.25-0.2141 0.079zm0.0941 0.5778 0.0406-0.1797h-0.2456l0.0854 0.1569zm-0.1027 0.4409 0.0873-0.2546-0.1625 0.015zm0.2029 0.7951-2e-3 -0.4088-0.194-0.016 0.1178 0.4045zm0.2914 0.6646 0.2484-0.1558 0.104 0.024 0.0209-0.2335-0.3028 0.038-0.1956 0.1505zm0.3148 0.4627-0.0189-0.204-0.1484 0.071z"/>
      <path d="m-632.97 1350.1-0.7531-0.2455-0.4025-0.091-0.6121-0.087h-0.2765l-0.3425 0.043-0.3919 0.1136-0.3576 0.2082-0.8086 0.7147-0.5735 0.5986-0.5972 0.7015-1.0336 1.3155-0.3863 0.3685-0.4722 0.3377-0.6527 0.3843-0.3879 0.1906-0.2664 0.098-0.1394 0.034 3e-3 -0.8842 0.3312-0.036 0.8508-0.5755 1.2834-1.0255 1.1215-0.9268 0.0229-0.1825 0.3599-0.3482 0.783-0.7027 0.2154-0.2255 0.1347 0.05 0.0192-0.2075 0.3201-0.1667 0.3433-0.071 0.0869 0.061 0.1369-0.1 0.7562-0.094 0.2066 0.015 1.0626 0.2707 0.4939 0.2106z"/>
      <path d="m-628.41 1354.2-0.5513-0.3455-0.4882-0.6441-0.5603-0.687-0.5595-0.8621-0.1259-0.1719-0.3345-0.3618-0.4479-0.3686-0.25-0.1538-0.5622-0.2634-0.6035-0.1967 0.0816-0.2557 0.481 0.1306 0.7125 0.2556 0.6949 0.4455 0.3841 0.3489 0.4764 0.506 0.1339 0.4324 0.2243 0.4207 0.0621 0.062 0.3594 0.5556 0.227 0.3002 0.2581 0.2085 0.2958 0.1605 0.0313 0.1373 0.2345 0.179z"/>
      <path d="m-626.5 1355.1h-2e-3l-0.0513-0.078-0.2906-0.2958-0.2011-0.111-0.5525-0.085-0.2374-0.069-0.5072-0.2307 0.1656-0.1641 0.5723 0.3308 0.3552 0.074 0.23 0.083 0.567 0.3079z"/>
      <path d="m-625.49 1357.8-0.3453 0.1137-0.116-1e-3 -0.0646-0.1022-0.1726-0.044-1e-3 -0.1798 0.0982-0.076h0.4105l-0.0491-0.3135-0.2269-0.2187 6e-3 -0.1037-0.2455-0.3374-0.0637-0.7909-0.0686-0.2737-0.1156-0.2642 0.2179 0.035 0.28 0.7685 0.0474 0.2699 0.1251 0.4176 0.1695 0.3361 0.1274 0.027 0.1445 0.1358-0.1184 0.1785 0.0519 0.2245z"/>
      <path d="m-645.38 1346.4 0.0954-0.8051 0.6117 0.344-0.4303 0.2408z"/>
      <path d="m-600.03 1356.8 0.2869-0.071 0.348 0.1729 0.2586 0.2661 0.3258 0.2301-0.0727 0.08-0.2867-0.3107-0.4706-0.3717-0.2991 0.046z"/>
      <path d="m-600.4 1357.7 0.1186-0.3051 0.1352 0.042z"/>
      <path d="m-600.76 1359.4 0.1538-0.2196 0.0711 0.098-0.1178 0.1265z"/>
      <path d="m-604.63 1357.4 0.6038-0.01 0.244 0.049 0.141 0.211 0.2475 0.5358 0.431 0.6135 0.5939 0.3054 0.2876 0.2449 0.1588 0.2454-0.0992 0.026-0.333-0.4128-0.4496-0.2039-0.2772-0.2235-0.2577-0.2865-0.242-0.4125-0.0127-0.1428-0.248-0.4264-0.7797-0.043z"/>
      <path d="m-605.35 1358.1-0.3565 0.1612-0.3018 0.1999-0.3449 0.1896-0.4256 0.1096-0.5954-0.063-0.2026-0.1009-0.3015 0.1397-0.056 0.1287-0.2965 0.1341-0.377 0.3267-0.0853 0.3982-0.1226 0.1979-0.6572 0.4461-0.2455 0.2141-0.1148 0.2007-0.0786 0.3528 0.0192 0.1957-0.0819 0.601h-0.1023l0.0357-0.3819 0.1016-0.6614-0.0172-0.1363 0.3228-0.3593 0.6668-0.4044 0.1666-0.1773 0.1956-0.5683 0.2124-0.1976 0.4332-0.1948-0.0182-0.1085 0.3375-0.249 0.1392 0.012 0.4023 0.1351 0.3683 0.061 0.259-0.1009 0.2436-0.048 0.0871-0.1359 0.589-0.3119z"/>
      <path d="m-609.99 1362.1 9e-3 0.2355-0.0875 0.6893 0.0334 0.28-0.1172-0.043-0.0357-0.2485 0.1059-0.914z"/>
      <path d="m-609.86 1363.6 0.0775 0.194 0.0351 0.2615-0.0267 0.139-0.2888 0.6328-0.067 0.3844-8e-3 0.3921-0.0362 0.327-0.4327 0.2922-0.6754 0.2421 0.3026-0.1991 0.156 0.011 0.3425-0.1609 0.2135-0.1808 0.0448-0.4382-3e-4 -0.4848 0.0635-0.1926 0.2565-0.4986 0.0599-0.2416-0.0899-0.3795z"/>
      <path d="m-611.85 1366.7-0.2753 0.1308-0.2186-0.034-0.4949-0.2132-0.1117-0.086-0.2318-0.07-0.1409 0.05-1.1296 0.6705-0.373 0.097-0.669-0.3659-0.2169 0.1058-0.1886 0.3385-0.0509 0.1815-0.038 0.6051-0.1072-0.022 0.0403-0.4503 0.0896-0.376 0.1806-0.3367 0.2708-0.1816 0.3116 0.2663 0.4061 0.1702 0.187-0.019 0.299-0.2018 0.6546-0.3887 0.454-0.2216 0.2679 0.097 0.4685 0.2381 0.2215 0.069z"/>
      <path d="m-616.93 1368.2-0.4489-0.1379-0.1798-0.2375-0.0394-0.1702-0.0872-0.259-0.0952-0.4609 0.091-0.028 0.1188 0.4205 0.0634 0.4312 0.0754 0.1699 0.2593 0.1641 0.273 0.1048 0.3118 0.01-5e-3 0.103-0.3188-0.015z"/>
      <path d="m-617.78 1366.8-0.0326-0.205 0.0324-0.3131 0.1109-0.5529 0.2045-0.6796 0.014-0.228-0.0276-0.072 0.0883 0.2058-0.2315 0.8185-0.0305 0.2909z"/>
      <path d="m-619.24 1365.1-0.2358 0.1539-0.7551 0.1881-0.4132-0.018-0.2863-0.067-0.2939-0.1633-0.2204-0.3725 0.1683-0.2839 0.047-0.5041 0.0288-0.1065-0.0508-0.2022-0.2027-0.302-0.1833-0.027-1.1115 0.1627 0.3589-0.084 0.6502-0.1061 0.384 0.076 0.1133 0.2377 0.0474 0.2504-0.049 0.8924 0.1703 0.414 0.0963 0.072 0.3521 0.089 0.2057 0.012 0.6978-0.1105z"/>
      <path d="m-618.75 1363.9-0.0202 0.032 0.1196 0.2933 0.01 0.1679-0.1008-0.2359-0.103-0.1236z"/>
      <path d="m-625.49 1357.8-0.1695 0.2627-9e-3 0.3549 0.1484 0.3324 0.0556 0.3144-0.1063 0.027 0.0274 0.1789-0.0904 0.4317 0.0872 0.3738 0.1489 0.1896 0.1806 0.091-0.0607 0.1036-0.3104-0.2189-0.1278-0.3452-0.0339-0.2727 0.1052-0.4964 0.0194-0.4087-0.1033-0.064-0.2549 0.069 0.0326-0.81 0.116 1e-3z"/>
      <path d="m-624.43 1361.6-0.0116-0.4766-0.2367-0.253 0.042-0.094 0.2278 0.2353 0.0653 0.3043z"/>
      <path d="m-627.03 1360 9e-3 -0.023 0.2116-0.4761 1e-4 -3e-4 0.0575 0.2781 0.2688 0.4301 0.1862 0.4326 0.0124 0.3319-0.1091 0.2369-0.0749 0.3918-0.1888 0.039-0.2215 0.2911-0.0727-0.099-0.204 0.2319-0.1802 0.5824-0.1461 0.2416-0.3056-0.081 0.224-0.1248 0.239-0.6582 0.0852-0.1601 0.5425-0.4976 0.0893-0.2175-0.1371-0.3425-0.0207-0.3699-0.1263-0.1312z"/>
      <path d="m-628.23 1363.9h-0.045l9e-3 -0.153 0.1637-0.2942-0.4656 0.1616 0.092-0.2601 0.1641-0.041 0.208 0.035 0.2636-0.2994 0.0309-0.1312 0.2686 0.071-0.1588 0.2347-0.4193 0.3452z"/>
      <path d="m-605.2 1278.7-0.0145 0.021-0.1381-0.081z"/>
      <path d="m-605.22 1280.3-2e-3 -0.011 0.0111-0.039 0.0135 0.072z"/>
      <path d="m-606.17 1284.6-9e-3 -0.2766-0.1645-0.2008-0.0239-0.2439 0.1974-0.1132 0.1171-0.3833 0.1011-0.076 0.3859-0.044-0.044-0.1494 0.0746-0.1239-5e-3 -0.19-0.091-0.063-0.3407-0.3786-0.0196-0.2429 5e-3 0.1798 0.4616 0.5024 0.0137 0.2021-0.0798 0.1174 0.0323 0.1716-0.3369 0.025-0.1427 0.075-0.1344 0.4268-0.1632 0.088 0.0359 0.2597 0.1446 0.1655z"/>
      <path d="m-666.4 1287.5 2e-3 0.021-0.0175 0.036 0.3782 0.2662 0.5177 0.325 0.1867 0.1952 0.4982 0.3204 0.1902 0.2054 0.6364 0.2327 0.6942 0.1782 0.6579 0.3486 0.418 0.3294 0.0238 0.1363 0.2716 0.3539 0.028 0.1382 0.158 0.1395 0.1923 0.4529 0.254 0.4207 0.3176 0.2642 0.53 0.3223 0.1447-0.01 0.0907 0.2987 0.1501 0.1571 0.474 0.1562 0.1266-0.01-0.0503 0.2454 0.217 0.083 0.8208 0.1212 0.4757 0.1442 0.4202 0.1997 0.1415 0.1413 0.2784 0.6395 0.0319 0.4589-0.2018-0.6856-0.1814-0.3584-0.1762-0.1414-0.2785-0.1399-0.3174-0.1094-0.7247-0.045-0.3607-0.1068-0.5298-0.099-0.0878 0.1 0.3052 0.3736 0.5689 0.9471 0.257 0.3122 0.0985 0.062 0.1513 0.3017 0.1182 0.1227 0.1642 0.3175 0.1843 0.2824 0.2336 0.5485 0.1462 0.4741 0.0782 0.4081 0.1001 0.3034 0.1068 0.1189-0.01 0.3216 0.0671 0.497 0.0808 0.3089 0.0566 0.3979 0.1263 0.4953 0.0663 0.4062 0.0372 0.4246-0.0558 0.403 0.1304 0.9301 0.0631 0.142-0.1165 0.097-0.0318 0.4476 0.0608 0.5165 7e-3 0.7415 0.0386 0.1318 0.0388 0.5831 0.0645 0.2542 0.1829 0.4909 0.1845 0.427 0.0446 0.2365 0.0999 0.1199 0.0728 0.294-1.759 1.0495-0.1855-0.3548-0.2252-0.3566-0.1541-0.5131h-0.2086l-0.1712-0.4297 0.077-0.2482-0.1033-0.2691-0.0705-0.5081-0.1013-0.096 0.0137-0.2549 0.0735-0.029 9e-3 -0.2428-0.099-0.1894 0.0448-0.097-0.1611-0.3194-0.0991-0.4044-0.0918-0.144-0.1843-0.4204-0.3325-0.9993-0.1001-0.2135-0.2598-0.7275-0.1227-0.1876-0.0518-0.1763-0.1719-0.3091-0.0805-0.049-0.2619-0.5078-0.3073-0.4848-0.2015-0.389-0.2037-0.5308-0.4314-0.6686-0.41-0.4786-0.0293-0.1363-0.1881-0.1619-0.2412-0.4336-0.2532-0.2677-0.5288-0.63-0.0857-0.2366-0.2175-0.3019-0.2908-0.01-0.3878-0.3154-0.2748-0.3428-0.5722-0.4855-0.087-0.1069-0.1658 0.01-0.2055-0.085-0.0916-0.1245-0.1902-0.099-0.3694-0.3885-0.2314-0.2-0.1455-0.1895-0.1191 0.079-0.7006-0.2727-0.2251-0.053-0.2236 0.1477-0.0396-0.1114-0.1669-0.089-0.2397-0.055-0.5293-0.041-0.269-0.08-0.073-0.088-0.5551-0.1768-0.1799-5e-4 -0.2781-0.081-0.609-0.3243 0.0556-0.2464-0.0852-0.02-0.0376 0.2483-0.4007 0.014-0.4446-0.2117-0.2036-0.135-0.1656-0.184-0.1504-0.5714 3e-3 -0.1937-0.0599-0.2671 0.0753-0.089 0.2919 0.1064 0.0911-0.1554-0.01-0.2234-0.0902-0.097-0.4383-0.1208-0.4831-0.052-0.2884-0.084-0.5896-0.08-0.5177 0.074-0.3266 0.1993-0.2884 0.4212-1.57-1.1744-0.4883-0.4647-0.3645-0.4293-0.2035-0.3333-0.1415-0.3109-0.092-0.2941-0.1157-0.6602-0.0343-0.8751 0.0128-1.2022 0.0683-0.2528 0.2501-0.064 0.8322 0.1015 3.1249 0.4971 0.6695 0.1169 0.184 0.1479 0.479 0.7604 0.037 0.3533 0.1718 0.2572 0.4205 0.4536 0.1656-0.054 0.2092 0.1332 0.0879-0.1193 0.2267-0.023 0.2281 0.174 0.1772 0.03 0.2994 0.1399 0.2306-0.079 0.2118 0.018 0.2652-0.072 0.2363-0.01 0.4973 0.09 0.4056 0.143 0.3157 0.064h0.3589l0.3728 0.1002 0.0146 0.1595 0.7525 0.221h0.1837l0.3834 0.1698zm4.3103 3.3394 0.0749-0.3473-0.1797-0.1285-0.188-0.2165-0.2876-0.2558 8e-3 -0.1195-0.6024-0.3429-0.0638 0.1639 0.591 0.4874 0.3472 0.3839zm2.4379 2.1884 0.1561-0.1283-0.1934-0.071-0.175 0.094zm0.8812 13.268 0.0795-0.15-0.1782-0.299-0.1089 0.01 0.1067 0.3053z"/>
      <path d="m-655.45 1308.1-0.5781 0.03h-0.4939l0.2195 0.3882 0.1482 0.4973 0.0914 0.4823 0.4189 1.415-0.2342 0.4015-0.3645 0.6941-0.3087 0.5394-0.2324 0.2866-0.2185 0.3951-0.2065 0.5592-6e-3 0.2641-0.144-0.029-0.1205-0.2321 0.138-0.3758 0.36-0.378 0.2226-0.4211 0.3026-0.3642 0.0407-0.4457-0.1341-0.6743-0.0336-0.3811-0.0721-0.087 0.0167-0.202-0.1502-0.2387-0.1253-0.4249-0.2458-0.5829-0.144-0.2257-0.2724-0.6396-0.3764-0.5787-0.0506-0.1414 1.7564-1.0218 0.213 0.4565 0.0397 0.2624 0.1673 0.3352 0.1459 0.1506 0.2265 0.1008z"/>
      <path d="m-638.28 1338.8-0.0964 0.1159-0.3909 0.439-0.1975 0.2728-0.1142 0.1312-0.3603 0.2726-0.3609-0.084-0.2721-0.1446 0.1022-0.1748 0.1385-0.075 0.2007-0.2329 0.2313-0.2087 0.1433-0.3027 0.2081-0.6694-3e-3 -0.1613-0.2398-0.2029-0.5549 0.2679-0.1936 0.015-0.2928 0.2928-0.2706 0.1103-0.1784 0.2367-0.2379 0.1503-0.1191 0.3872-1.4226-0.7409 0.0473-0.2223 0.3277-0.3372 0.7823-0.5684 0.1425-0.1793 0.2576-0.1752 0.3163-0.3701 1.9797 1.0767 0.6895 0.3978z"/>
      <path d="m-639.6 1340.1-0.0356 0.022-0.5275-0.266 0.0452-0.044z"/>
      <path d="m-642.2 1341.3-0.246 0.1373-0.3479 0.2426-0.5231 0.4098-0.3553 0.3093-0.3761 0.3751-0.1532 0.1858-0.2313 0.363-0.3434-0.2055-0.3805-0.038-0.1288-0.06-0.3515 0.041-0.3716-0.018-0.3212-0.085-0.3187 0.014 0.0946-0.2231-0.0328-0.2466 0.0813-0.1323 0.2593-0.1614 0.1218-0.1609-0.0797-0.3024 0.2438-0.3236 0.043-0.4448 0.3159-0.3929-0.0391-0.3394 0.2758-0.2493-0.0258-0.2772 0.2072-0.1653 0.4454 0.047 0.1264 0.087 0.0871-0.1415 0.2116-0.092 0.3992-0.4028 0.2077-0.086 0.1244 0.1209 0.2937 0.042 0.2888-0.1585 0.0372-0.1797 0.2751-0.1832 0.7506 0.3739 0.6937 0.3697-0.1056 0.2811 0.1573 0.074 0.9645 0.1717 0.355 0.1831 0.1193 0.097z"/>
      <path d="m-637.04 1332.8-0.2309 0.8103-0.1015 0.5855 0.0425 0.4483-0.0226 0.2551-0.0133 0.3744-0.1321 0.7163-0.3944 1.6781-0.0684 0.2131-0.4151-0.2082-2.1243-1.1714-0.0921-0.059 0.1459-0.177 0.4268-0.3396 0.3263-0.3122 0.269-0.3217 0.1608-0.069 0.07-0.123 0.1841-0.063 0.3627-0.4428 0.1382-0.1275 0.2229-0.5136 0.3718-0.6161 0.0111-0.1084 0.1801-0.1987 4e-3 -0.4041 0.1014-0.2391 0.6788 0.096z"/>
      <path d="m-642.64 1338.6 0.039-0.052 1.4382 0.7478-0.0363 0.056z"/>
      <path d="m-637.4 1327.1 0.2965 0.7917 0.0711 0.3274 0.0414 0.3756 0.2523 0.76 0.0344 0.534-0.0891 2.1446-0.0896 0.2788-0.648-0.098 0.0237-0.2397-0.0437-0.1058 0.0464-0.2038 0.0136-0.71 0.0457-0.075-0.0275-0.2717 0.0633-0.2899 9e-3 -0.2706-0.0408-0.4664-0.0787-0.3979-0.0571-0.104-0.1366-0.6595-0.0215-0.3171-0.112-0.1385 8e-3 -0.2335-0.1106-0.2275-5e-3 -0.1974-0.146-0.1896-4e-3 -0.3817 0.5013-0.046z"/>
      <path d="m-643.52 1320.1-0.0487-0.014-0.1-0.1542-0.6226-0.3134-0.7137-0.2221-0.5731-0.1594-0.8207-0.2622-0.217-0.1194-0.7638-0.1693-0.5673-0.098-1.3385-0.1924h-0.5885l-0.5378-0.066-0.5974-0.1067-1.5846-0.3767-0.1566-0.018-0.9167-0.2114-0.1503-0.068-1.0846-0.2648-0.1195-0.1394-0.2874 0.059 0.0681 0.1643 0.1769 0.093 0.2552-0.1178-0.0448 0.1639-0.2451 0.1779-0.2459-0.2008-0.55 0.083-0.442-0.038-0.3337-0.1595-0.199-0.1629-0.277-0.3697-0.3644-0.4368-0.1417-0.4119-0.0394-0.4515 0.2288-0.07 0.0932-0.1332-0.1718-0.2564 0.0215-0.2038 0.2009-0.1032 0.0439-0.2603 0.1178-0.1794 0.0889 0.034 1.1017 1.213 0.4848 0.3621 0.1986 0.1202 0.8025 0.4196 0.976 0.3608 0.5067 0.037 0.7887 7e-4 0.4497 0.02h1.1455l0.7419 0.042h0.5559l0.7445 0.028 0.2094 0.024 0.9947 0.1941 0.1084 0.034 0.7891 0.4002 0.8107 0.3188 0.3278 0.1113 0.7875 0.4883 0.3193 0.1772 0.2323 0.1982 0.391 0.423 0.3708 0.3664 0.5667 0.5144 0.822 0.6618 1.8755 1.6311 0.2961 0.3115 0.5921 0.8769-0.8298 0.083-0.1601-0.086-0.3142-0.2559-0.1999-0.3279-0.5969-0.5525-0.0541-0.3506-0.3-0.2244-0.1559-0.1729-0.1151-0.2645-0.0319-0.2671-0.3995-0.4332-0.3448-0.2023-0.091-0.096-0.76-0.4669z"/>
      <path d="m-639.08 1325.9-0.0221-0.016 0.1908-0.1745 0.238-0.076 0.0643-0.1527-0.1763-0.2824-0.145-0.1331-0.2215-0.093-0.1473-0.1386-0.158-0.2925-0.2461-0.2622-0.1634-0.3783 0.8535-0.1001 0.4339 0.6425 0.6359 1.2832 0.2168 0.6885 0.0555 0.1445-0.4675 0.052-0.0783-0.2339-0.181-0.2314-0.1056-0.3118-0.1828-0.1118-0.1388 0.019z"/>
      <path d="m-657.52 1314.9-0.0215 0.2038-0.16-0.1701z"/>
      <path d="m-658.09 1317.2-0.2036 0.016-0.3133 0.3821-0.1376-0.088 0.1911-0.185 0.2611-0.3551z"/>
      <path d="m-663.67 1324.6 4e-3 -0.034 0.5404-0.2134 0.1844-0.1163 0.6228-0.519 0.7243-0.013 0.568 0.048 0.4515-0.077 0.0995-0.059 0.1353-0.3481 0.0113-0.3429 0.1097-0.3556 0.5007-0.7502 0.0453-0.1713-0.0705-0.2375 0.1196-0.05-0.0378-0.3264 0.0493-0.1009-0.0458-0.2652 0.0321-0.5264-0.0217-1.1104 0.1579-0.4037 0.18-0.3794 0.3522-0.5087 0.1964-0.2472 0.1382 0.087-0.3239 0.4081-0.2952 0.4486-0.0933 0.2352-0.0753 0.4502 0.0322 0.7602-0.0971 1.3418-8e-3 0.4115-0.0666 0.1805-0.4293 0.7514-0.1927 0.4063-0.0554 0.365-0.0918 0.224 0.1208 0.2905 0.595-0.2456 0.2193-0.059 0.2431 0.5773 0.1436 0.4018 0.1211 0.2256 0.3166 0.3282 0.0504 0.1438-0.0744 0.078 0.2523 0.2455 0.0995 0.1829-0.0299 0.1473 0.0878 0.065-0.0632 0.451-0.2648-0.073-0.0669-0.098-0.3262-0.058-0.3792-0.1142-0.4822-0.2842 0.0392-0.5681 0.0739-0.079-0.0666-0.1346-0.2886-0.1511-2e-3 -0.1455-0.155-0.171-0.3415-0.2569-1e-3 -0.1279-0.1476-0.2822-0.4059 0.083-0.3037 0.019-0.032-0.092-0.3637 0.012-0.1643-0.1256-0.3102-0.02-0.1831 0.073-0.149 0.1664-0.5427 0.3877-0.5112 0.194zm3.4078-0.4272 0.0454-0.1574-0.1796-0.2555-0.12 0.1517 0.1686 0.2442zm1.5818 0.8974-0.3344-0.4459-0.1793-0.4798-0.2423-0.011 0.0749 0.2292 0.2567 0.1342 0.1615 0.2999z"/>
      <path d="m-657.85 1315.9 0.1928 0.1128 0.1417 0.4119-0.1613 0.2285-4e-3 0.085-0.3464 0.4455-0.218-0.2514 0.3214-0.6221 0.0767-0.3835z"/>
      <path d="m-658.25 1326.5 7e-3 0.1741 0.2487 0.352 0.2156 0.1017 0.1594 0.2814 7e-3 0.1715 0.3324 0.2095-0.3456 0.01-0.2095-0.085-0.4667 0.2859-0.3782 0.086-0.0612-0.3589-0.1242-0.2451 5e-3 -0.1464 0.1088-0.211-0.0177-0.4478-0.0666-0.1068 0.024-0.1862 0.15 0.085 0.1313-0.045z"/>
      <path d="m-588.54 1335.9-0.0464-0.085 8e-3 -0.1253-0.1509-0.2815-0.3876-0.5336-0.2792-0.5073-0.13-0.3509-0.2513-0.3848-0.3213-0.3406-0.3835-0.327-0.3143-0.22-0.2449-0.1095-0.8618-0.3002 0.0627-0.1378h0.0201l0.0645 0.028 0.0427 0.041 0.7755 0.2591 0.3218 0.1626 0.5101 0.3924 0.2635 0.2903 0.2286 0.3606 0.3116 0.6437 0.4737 0.7398 0.3246 0.3341 0.2236 0.3513 0.2002 0.1582-0.2766 0.04z"/>
      <path d="m-639.29 1326.1-0.7346 0.62-0.0131-0.022 0.6369-0.5297z"/>
      <path d="m-589.71 1330 0.011-0.026 0.01-0.1668-0.1075-0.437 0.0274-0.2047-0.0975-0.2136-0.0642-0.04 0.1532 0.072 0.0307 0.1521-0.0316 0.2835 0.1152 0.4834z"/>
      <path d="m-589.9 1330 8e-3 -0.01 0.0577-0.01z"/>
      <path d="m-590.91 1330.8 0.1614-0.1689 0.0232-0.015z"/>
      <path d="m-591.75 1332.2-0.0645-0.028 0.176-0.3079 0.0352-0.2548 0.1898 0.074 0.0952 0.1033-0.2073-0.1946-0.0892 0.078-0.0375 0.2872z"/>
      <path d="m-678.56 1336 5e-3 0.01h-0.0186z"/>
      <path d="m-588.59 1335.8 0.0464 0.085-0.2923 0.1202-0.1018-0.016-0.5889-0.5188-0.1572-0.1063-0.2961-0.068-0.1197 0.092-0.1518 0.2552 2e-3 -0.1157 0.1467-0.2016 0.104-0.039 0.2685 0.039 0.2654 0.1606 0.2263 0.2252 0.1391 0.079 0.0497 0.039 0.1123 0.1468h0.062l0.2306-0.1 0.0545-0.068z"/>
      <path d="m-591.84 1338.3 0.0139-0.2326-0.0181-0.254 0.0614 0.5962z"/>
      <path d="m-589.97 1341.7-0.2797-0.4467 0.0855 0.088z"/>
      <path d="m-590.63 1340.8-0.0552-0.065-0.453-0.8231z"/>
      <path d="m-589.19 1342.2-0.2592-0.041-0.1417-0.076-0.3636-0.4194 0.4274 0.4549z"/>
      <path d="m-588.4 1342.8-0.01-0.084-0.1172-0.3444-0.0873-0.078 0.1082 0.082z"/>
      <path d="m-584.8 1343.9-0.1208-0.031-0.1991 0.01-0.639 0.1511-0.0777 0.025-0.2228 0.1075-0.1263-0.066 4e-3 -0.1761-0.0634-0.245-0.1309-0.1563-0.1934-0.086-0.4594-0.1076-0.2825-0.1161-0.2278-0.1539-0.3536-0.082-0.2797 0.1072 0.2259-0.1037h0.211l0.2581 0.099 0.1896 0.1426 0.2966 0.106 0.2864 0.061 0.3456 0.1257 0.1822 0.3057 0.0109 0.2605 0.1248 0.067 0.2824-0.123 0.7871-0.1672z"/>
      <path d="m-645.97 1343.9-0.0141 0.06-0.7401-0.025-2e-4 -0.05z"/>
      <path d="m-645.99 1344-0.0207 0.2105 0.0535 0.4952 0.1492 0.2915 0.3918 0.5028 0.1344 0.1123-0.0954 0.8048-0.5939 0.3996-0.0402-0.1452-0.1379-0.092-0.0132-0.2958-0.0899-0.3692-0.1741-0.2471-0.2261-0.239-0.0657-0.4998-0.0119-0.4616-0.0566-0.067 0.0562-0.4032z"/>
      <path d="m-646.65 1343 0.3187-0.014 0.3212 0.085 0.3716 0.018-0.1513 0.2563-0.167 0.5357-0.7659-0.023-5e-3 -0.3114 0.1658-0.3906z"/>
      <path d="m-645.37 1346.5 0.2566 0.5665 0.1533 0.3463-0.2777 0.025-0.3878-0.4128-0.0453-0.2152-0.0775-0.046z"/>
      <path d="m-644.82 1347.7 0.5299 1.1966-0.3111 0.1166-0.1179-0.2804-0.0927-0.072-0.1647-0.3657 0.0499-0.3725z"/>
      <path d="m-644.26 1349 0.0329 0.1014-0.0953 0.6979-0.0625 0.2794-0.1158 0.2601-0.169 0.2543-0.1608 0.1525-0.0887-0.1106 0.1413-0.4065 0.0935-0.4835 0.1153-0.1952-0.0329-0.4188z"/>
      <path d="m-661.04 1347.2-0.1428 0.2174-0.0827-0.3099z"/>
      <path d="m-643.88 1353.2 0.2705 0.1263 0.4217 0.4918 0.4082 0.6465 0.185 0.2453 0.1753 0.1044 0.3643 0.012 0.5272-0.047-6e-3 0.3558-0.5623-0.037-0.4707-0.1619-0.2449-0.023-0.1799-0.11-0.1671-0.184-0.159-0.04-0.2057-0.2732-0.1584 0.014 0.1031-0.2184-0.1735-0.1443-0.1403-0.2489-0.2471-0.2659-0.105-0.2757 0.315 0.1568z"/>
      <path d="m-641.29 1354.7 0.2664-0.098 0.3879-0.1906 0.6527-0.3843 0.4722-0.3377 0.3863-0.3685 1.0336-1.3155 0.5972-0.7015 0.5735-0.5986 0.8086-0.7147 0.3576-0.2082 0.3919-0.1136 0.3425-0.043 0.2765 0.01 0.6121 0.086 0.4025 0.091 0.7531 0.2455-0.0656 0.1966-0.5658-0.1682h-0.1565l-0.2969-0.085-0.5282-0.056-0.6479 0.052-0.435 0.1116-0.5698 0.2715-0.3982 0.3722-0.2474 0.3449 0.1778 0.03 0.1274 0.1312-0.0587 0.096-0.2037-0.017-0.1171-0.1172-0.096 0.082-0.2563 0.3486-0.0202 0.081-0.2876 0.3958-0.2997 0.3002-0.1434 0.2136-0.1575 0.098 0.0382 0.088 0.3492 0.3553-0.0453 0.032-0.352-0.3423h-0.0707l-0.3938 0.4139-0.3296 0.4392-0.1939 0.1551-0.1184 0.1748-0.2336 0.1753-0.4166 0.3777-0.8506 0.391-0.6005 0.1183 0.01-0.3798z"/>
      <path d="m-626.44 1355.2 0.1156 0.2642 0.0686 0.2737 0.0637 0.7909-0.128-0.052-0.1301-0.2025-0.0286-0.2902-0.0818-0.2923-0.2222-0.3124z"/>
      <path d="m-628.35 1354.2 0.5072 0.2307 0.2374 0.07 0.5525 0.084 0.2011 0.111 0.2906 0.2958 0.0513 0.078h2e-3l-0.3801 0.2194-0.2115-0.158-0.678-0.4214-0.3464-0.1793-0.4327-0.1295z"/>
      <path d="m-632.89 1350.1 0.6035 0.1967 0.5622 0.2634 0.25 0.1538 0.4479 0.3686 0.3345 0.3618 0.1259 0.1719 0.5595 0.8621 0.5603 0.687 0.4882 0.6441 0.5513 0.3455-0.2231 0.2138-0.2743 0.011-0.2452-0.1983-0.2627-0.3421-0.3167-0.2217-0.1279-0.2192-0.3506-0.4619-0.2106-0.074-0.04-0.1058-0.4321-0.4975-0.2229-0.3715-0.0488-0.2189-0.1361-0.3092-0.3978-0.4092-0.1064-0.051-0.2567-0.2381-0.0597 0.01-0.4186-0.2739-0.4085-0.1284z"/>
      <path d="m-627.03 1360-0.0593-0.059-0.1405-0.5511 0.0181-0.2826 0.1686-0.4657 0.2019-0.6332 0.2022-0.3293 0.3856-0.1154 0.0682 0.1393-0.0272 0.1956-0.2157 0.1641-0.2675 0.3262-0.0721 0.174 0.0155 0.534-0.0923 0.2351 0.0356 0.169-1e-4 3e-4 -0.2116 0.4761z"/>
      <path d="m-622.85 1363.6 4e-3 0.1625-0.3586-0.024-0.013-0.1038z"/>
      <path d="m-622.75 1363.6 1.1115-0.1627 0.1833 0.027 0.2027 0.302 0.0508 0.2022-0.0288 0.1065-0.1243 0.097-0.0899 0.2156 7e-3 0.201-8e-3 0.2745 0.2204 0.3725 0.2939 0.1633 0.2863 0.067 0.4132 0.018 0.7551-0.1881 0.2358-0.1539 0.2263-0.2085 0.3081-0.3169 0.0733-0.2184-0.01-0.1679-0.1196-0.2933 0.0202-0.032 0.308-0.071 0.1437 0.026 0.2992 0.2171 0.2815 0.4385 0.2351 0.256 0.0276 0.072-0.014 0.228-0.2045 0.6796-0.1109 0.5529-0.0324 0.3131 0.0326 0.205-0.0614-0.1736 0.0105-0.1862 0.1115-0.6345 0.2251-0.8945-0.0718-0.169-0.2384-0.24-0.1585-0.2518-0.2295-0.2446-0.2856-0.1187-0.2001 0.061 0.1344 0.3657-0.0233 0.1881-0.3675 0.4778-0.1464 0.1273-0.4167 0.233-0.4928 0.1344-0.2719 0.035-0.4453-0.031-0.2625-0.052-0.4244-0.3195-0.1255-0.3508 0.0269-0.3419 0.1085-0.5288-0.0716-0.3303-0.195-0.056-1.1666 0.2447z"/>
      <path d="m-617.37 1368.1 0.4489 0.1379h-0.3015z"/>
      <path d="m-665.3 1363.2-0.0275-0.1679 0.1279-0.5502 0.1411-0.087 0.1483 0.1599-0.2564 0.2124 0.126 0.05-0.1567 0.324z"/>
      <path d="m-628.27 1363.9h0.045l-0.046 0.095-0.229 0.067-0.374-0.065-0.3726 0.026-0.4865 0.3143-0.3225 0.1407-0.2964 0.2168-0.4617 0.5471-0.102 0.4195 0.18 0.8413-2e-3 0.1363 0.0948 0.2515 0.146 0.2591-0.0826 0.04 0.0923 0.4045 0.0565 0.053 0.0314 0.3264 0.1132 0.6455 0.4105 0.4093 0.1457 0.2563 0.222 0.5124 0.1422 0.1155 0.1669-0.022 0.0347-0.2844h0.3137l0.1175 0.1264-0.1075 0.2258 0.2097 0.3057 0.189 0.1916 0.1059-0.091 0.1764 0.1721-0.3293 0.063-0.2607-0.2178-0.1725-0.2231-0.4754-0.1768-0.2923-0.3468-0.0565-0.2153-0.2201-0.4086-0.2576-0.2243h-0.0999l-0.2538-0.3291 0.0345-0.2816-0.1025-0.4629-0.203-0.4614-0.0421-0.3236-0.1995-0.4225 0.0935-0.074-0.0119-0.1418 0.0175-0.2373-0.0683-0.5165 0.0713-0.2991 0.2326-0.2754 0.2545-0.4098 0.1528-0.056 0.6898-0.3748 0.2893-0.2279 0.5151-0.3522 0.3836-0.1796-0.0921 0.2604-0.396 0.2784 0.0795 0.083 0.3429 0.061 0.1837-0.028zm-2.0611 4.6846-0.0587-0.4053-0.0974 0.1851z"/>
      <path d="m-628.13 1370.6 0.118 0.039 0.1536-0.1505 0.2951 0.063 0.5117 0.2234 0.4682 0.2714 0.3467 0.3293 8e-3 0.165 0.1038 0.3081 0.19 0.2334 0.3389 0.6278 0.1663 0.5289 0.2067 0.3316 0.3007 0.5572 0.1358 0.03 0.0593 0.206 0.1851 0.071-0.625 0.097-0.1136-0.1533 0.1246-0.1358-0.0163-0.2939-0.2125-0.1027 0.0211-0.1798-0.0867-0.1115-0.0779-0.3599-0.1546-0.2926-0.1107 0.063-0.4815-0.6561-0.0603-0.2125-0.2973-0.042-0.2871-0.1873-0.0365-0.3375-0.3261-0.2347-0.6074-0.023-0.1767-0.1276-0.0139-0.4218zm1.8319 1.471-0.0485-0.1643 0.0241-0.4383-0.1339-0.2656-0.6439-0.3786-0.6738-0.2804-0.1228 0.088-0.1255 0.2146-0.0398 0.1769 0.0764 0.1587 0.4796 0.074 0.1246-0.027 0.4577 0.2667 0.0784 0.1829-0.0767 0.1452 0.2008 0.1657zm1.2536 2.3004 0.223-0.1355-0.3063-0.1976 2e-3 0.2234z"/>
      <path d="m-624.87 1375.7 0.2186 0.2229-0.0897 0.6086-0.3906 0.034-0.0598-0.2708 7e-3 -0.5793 0.0768-0.063z"/>
      <path d="m-624.54 1374.5-0.0352 0.462 0.0394 0.087-0.0791 0.3538-0.2181 0.067-0.1721-0.035-0.0704-0.1947-0.141-0.097-0.1072-0.4391 0.1933 0.2383 0.0908-0.3123z"/>
      <path d="m-631 1366.1-0.0175 0.2373-0.0747-0.1319z"/>
      <path d="m-635.06 1373.5-0.7538 0.7299-0.0192-0.019 0.6367-0.6142z"/>
      <path d="m-667.59 1369.3-0.2134-0.224 0.1197-0.2499-0.0763-0.2523 0.0108-0.1964 0.1669-0.2711 0.1131-0.028 0.3122 0.3087 0.0185 0.1576-0.0739 0.1712 0.0407 0.129-0.2206 0.3367z"/>
      <path d="m-668.29 1370.1-0.1418-0.087 0.1256-0.2388 0.259-0.1762 0.2287 0.1101-0.274 0.088-0.094 0.237z"/>
      <path d="m-669.11 1370.6-0.1269-0.2451 0.3181-0.1029 0.1439-0.088 0.103 0.1172z"/>
      <path d="m-676.34 1375 0.0266 0.3002-0.0775 0.2399 0.1412 0.2228 0.1595 0.077 0.0137 0.203-0.2175-0.1637-0.0155 0.292-0.0725 0.5096-0.1185 0.3946-0.0883 0.5197-0.1864 0.3685-0.3982 0.2835-0.2324 0.2172-0.4005 0.2474-0.2795 0.1253-0.1014 0.099-0.1945-0.014 0.2123-0.2116 0.2831-0.08 0.442-0.3603 0.2498-0.2404 0.2741-0.3478 0.0239-0.1649 0.1647-0.3008 0.2345-0.5991 0.0837-0.076 0.0321-0.4273-0.0889-0.6843 0.13-0.2499z"/>
      <path d="m-676.59 1372.5 0.5225-0.032 0.0682-0.041-0.2162 0.5167-0.0714 0.3123 0.0337 0.1011-0.2102 0.959 0.098 0.6603-0.0868 0.02-0.117-0.1906-0.056-0.3636 0.0678-0.518 0.0823-0.1954 0.0572-0.557-0.1953-0.3417 0.1358-0.2537z"/>
      <path d="m-598.82 1357.4-0.3258-0.2301-0.2586-0.2661-0.348-0.1729-0.2869 0.071 0.1407-0.087 0.0374-1e-3 0.2835 0.025 0.2061 0.1297 0.4935 0.4775 0.1669 0.031 0.5358 0.3525 0.4174 0.2121 0.1617 0.051 0.167 0.2027 0.0962 0.023 0.2513 0.2281 0.149 0.025 0.2983 0.1477 0.279 0.059-0.1108 0.1015-0.6605-0.2817-0.306-0.22-0.17-0.174-0.7898-0.4639-0.2424-0.1762z"/>
      <path d="m-589.77 1358.1-0.0422-0.2403 0.0771-0.1035 0.3542-0.1774 0.1291-0.17 0.2884-0.2834 0.3169-0.2647 0.1449-0.2496 0.0803 0.014-0.2035 0.3097-0.3278 0.2442-0.1457 0.1941-0.3066 0.2721-0.2372 0.1167-0.026 0.2316z"/>
      <path d="m-594.91 1358.8 0.3112-0.051 0.4959-0.2371 0.3487-0.1033 0.2558-0.038 0.0501 0.088-0.7839 0.172-0.3367 0.1765z"/>
      <path d="m-593.29 1358.3 0.1332-0.083 0.2071 0.028 0.2614 0.2198 0.1612 0.031 0.4147-0.016 0.6217 0.085 0.3984 0.076 0.2072 0.01 0.2351 0.095h0.3162l-0.0663 0.1489-0.2423-0.055-0.0266-0.09-0.2061-0.074-0.2337 0.021-1.1441-0.1623-0.2886 0.01-0.2564-0.066-0.1815-0.2009z"/>
      <path d="m-666.79 1370.8-0.2311 0.2182-0.5453 0.6834-0.2068 0.1969-0.3799 0.3011-0.9948 0.7042-0.0602-0.019 0.7284-0.5168 0.6423-0.4903 0.2004-0.1969 0.4196-0.5178z"/>
      <path d="m-573.98 1291.7-0.3481-0.3208-0.1845-0.3799-0.1161-0.311-0.2367-0.2745-0.0846-0.3776-0.1386-0.037-0.301 0.2545-0.3027 0.3675-0.1056 0.1719-0.2421 0.138-0.0305 0.1074-0.2111 0.2521-0.2422 0.4669-0.0329 0.2437-0.0801 0.2248 0.1675 0.2316-0.0793 0.3843-0.1191-0.01 0.127-0.2733 2e-3 -0.1307-0.1083-0.091-0.0305-0.2078 0.1051-0.1821 0.0183-0.1751 0.2213-0.4634 0.3974-0.4866 0.698-0.769 0.1315-0.096 0.1465 0.012 0.1955 0.3197 0.0759 0.2487 0.1306 0.1888 0.2247 0.4987 0.1539 0.2621z"/>
      <path d="m-576.63 1292.9h-0.4276l-0.1457 0.1004-0.3239-0.01 0.1775-0.1976z"/>
      <path d="m-655.27 1344.2-0.7078 0.2417-0.372 0.043-0.4954 0.2172-0.3851 0.3316-0.2992 0.01-0.1969 0.1848-0.1806 0.088-0.2964-0.5898 0.5193-0.2741 0.4744-0.3535 0.2125-0.051 0.2594-0.2327 0.5278-0.3154 0.5497-0.2426z"/>
      <path d="m-645.19 1339.6-0.2072 0.1653 0.0258 0.2772-0.2758 0.2493 0.0391 0.3394-0.3159 0.3929-0.043 0.4448-0.2438 0.3236 0.0797 0.3024-0.1218 0.1609-0.2593 0.1614-0.0813 0.1323 0.0328 0.2466-0.0946 0.2231-0.1719-0.028-0.3072 0.049-0.2201-0.03-0.1758-0.1146-0.0999-0.1616 0.0194-0.1019-0.2382-0.1046-0.1342-0.1978-0.3247-0.1012-0.159-0.01-0.2277 0.1948-0.1318 0.045-0.1416 0.2368-0.1354 0.1043-0.8909 0.1705-0.0352 0.1482 0.0695 0.1216-0.4822-0.017-0.069-0.2504-0.3942 0.017 0.0305 0.2115-0.2451-0.012-0.2348 0.054-0.2332-0.1296-0.2256 0.02-0.0226-0.1131-0.1702-0.026-0.3419 0.1009-0.4228 0.1738-0.0694 0.091-0.359 0.067-0.824 0.5081-0.3328 0.1111-0.1974-0.034-0.1491 0.052-0.1735 0.1691-0.2677 0.03-0.1784-0.4214-0.2109-0.5784 0.1478-0.025 0.27-0.1891h0.1502l0.4398-0.2183 0.2772 0.019 0.15-0.1932-1e-3 -0.1789 0.3037-0.1622 0.1453-0.1377 0.4632-0.2349 0.6421-0.2436 0.4583-0.1237 0.1292 0.094 0.1967 0.01 0.2152-0.1235 0.1643-0.2043 0.2119 0.2648 0.6274 0.07 0.3019-0.076 0.2738-0.1085 0.2428 0.078 0.1721-0.1116-0.0526-0.2662 0.569-0.2855 0.034-0.4846 0.1633-0.1265 0.3697-0.1221 0.4233-0.3175 0.4057-0.1618 0.135-0.1886 0.2635 0.061 0.1442-0.062 0.3875-0.083 0.4092-0.2212 0.2354-0.02 0.2854 0.2225 0.2569 0.1084z"/>
      <path d="m-661.19 1347.4 0.1428-0.2174 0.1951-0.3118 0.2173-0.2496 7e-3 -0.091 0.2426-0.307 0.4081-0.389 0.1738-0.2432 0.3563-0.1871 0.3882-0.2556 0.625-0.2326 0.1853-0.1187 0.2924 0.5813-0.3818 0.4748-0.1449 0.1034-0.3036 0.3902-0.0981 0.1879-0.2517 0.3144-0.3747 0.6393-0.2909 0.4347-0.5338 0.7168-0.1174 0.3676-0.101 0.1332-0.1055 0.274-0.1437 0.086-0.4291 0.4565-0.139 0.261 0.2264 0.2102 0.2942 0.6701 0.2721 0.4383 0.1679 0.3806 0.3456 0.6341 0.1597 0.2156 0.1443 0.5408 0.1314 0.2581 0.1167 0.4351-0.0991-0.049-0.15-0.3657-0.0702-0.2625-0.1216-0.2136 4e-3 -0.1641-0.1343-0.3035-0.1465-0.2071-0.1364-0.2869-0.1496-0.1821-0.0245-0.1456-0.2573-0.3716-0.0536-0.167-0.2891-0.2863-0.1126-0.2191-0.2206-0.2232-0.2298 0.025-0.2056 0.3729-0.1979 0.1375-0.3744 0.3808-0.2766 0.2411-0.1471 0.2341-0.1498 0.09-0.0453 0.1473-0.1197 0.073-0.5281 0.6509-0.042 0.1668-0.2184 0.2273-2e-3 0.1317-0.1303 0.2109-0.1489 0.1442-9e-3 0.1427-0.2202 0.4925-0.0369 0.3196-0.3648 0.9546 0.0471 0.1948-0.0321 0.4374-0.0995 0.3167-0.2108 0.1653-0.0335 0.266-0.0665 0.054 0.0371 0.2392-0.0407 0.4754-2e-3 0.7935-0.1036 0.7458-0.1299 0.5632-0.0383 0.3355-0.1144 0.1785-0.1777-0.019 0.1634-0.4242 0.0118-0.5329-0.0485-0.1049 0.0751-0.162-0.0378-0.3273 0.0845-0.1416-0.0947-0.1949-0.1546 0.1126 1e-3 -0.381 0.064-0.2362-0.028-0.2661 0.0734-0.8757 0.1252-0.1053h0.301l-0.0715-0.2523-0.2711-0.01-0.15-0.2229 0.1956-0.1931 0.0363-0.3318-0.016-0.2327 0.0903-0.1072 9e-4 -0.2559 0.0658-0.09 0.1784-0.024 0.1579-0.2461-0.0351-0.4256 0.1507-0.4074 0.1777-0.2562 0.2074-0.4657 0.2573-0.3811 0.1288-0.2453 0.0423-0.3066 0.1958-0.196 0.1067 4e-4 0.0542-0.2622 0.1748-0.2961 0.3099-0.1807 0.0341-0.1612 0.1811-0.3563 0.1436-0.1164 0.0435-0.1982 0.1297-0.075 0.4879-0.8967 0.2695-0.3551 0.2389-0.2607 0.0593-0.175 0.2919-0.4125 0.053-0.2316 0.2388-0.446z"/>
      <path d="m-659.49 1354.2-0.068 0.2132 0.0103 0.1929 0.0768 0.1003 0.0529 0.3307h-0.13l9e-3 -0.2472-0.0613-0.2403-0.0134-0.3391z"/>
      <path d="m-662.47 1361.4-0.0901 0.081-0.4797 0.2294-0.2124 0.2403-0.1789 0.3582-0.3095 0.3383-0.0516-0.041 0.306-0.2484 0.244-0.4887 0.0339-0.1732-0.0812-0.1338 0.0907-0.09 0.2061 0.097h0.1539z"/>
      <path d="m-666.24 1367-0.0128 0.038-0.196 0.069 0.0431 0.2059-0.2517 0.046-0.0631 0.094-0.1876-0.1321-0.0319-0.1021-0.271-0.01-0.1624-0.1793-0.3436-0.038-0.2317 0.1562-0.1136-0.1721 3e-3 -0.1214 0.2869-0.2373 0.1921-0.3609 0.1046-0.079 0.1304-0.2758 0.2552-0.2366 0.2755-0.5052 0.1043-0.015 0.0679-0.2426 0.2798-0.4376 9e-3 -0.2354 0.0772-0.1815 0.0914-0.04 0.0562-0.2937 0.1863 0.064 0.0735-0.2204 0.109-0.5465-0.0402-0.6499-0.0427-0.09-0.0802-0.4479 0.0566-0.2232-0.0459-0.18 0.0206-0.6488 0.0407-0.1769 0.1751 0.053-4e-3 0.5636 0.0878 0.5824 0.0309 0.3912 0.1012 0.2015 0.0204 0.3411-0.1851 0.5371 0.2403 0.082-3e-3 0.3615-0.2225-0.015 0.0585 0.2949-0.0838 0.2834 0.0173 0.2216-0.1027 0.3436-0.1492 0.1339-0.0178 0.1418-0.2472 0.2736-0.1333 0.1-0.0817 0.1582-0.2058 0.2385-0.1959 0.074-0.1049-0.054-0.2093 0.2867-0.2773 0.2559-0.0717 0.213 0.1566 0.1051-0.0714 0.1036 0.066 0.1791 0.437 0.1626 0.0858-0.044-0.0164-0.2391 0.2111-0.038 0.2354 0.018z"/>
      <path d="m-676 1372.4-0.0682 0.041-0.5225 0.032-0.5894-0.094 0.013-0.095-0.3291-0.1408-0.01-0.127-0.1497-0.197-0.2878-0.2445-0.2306-0.1295-0.7149-0.2021-0.6153 0.01-0.3777 0.055-0.7479 0.02-0.5364 0.1951-0.7607 0.2307-0.6316 0.446-0.2918 0.3098-0.1594-0.1076 0.4814-0.3124 0.1614-0.1924 0.8441-0.426 0.7999-0.288 0.3846-0.014 0.5209-0.064 0.3103 0.1315 0.3124-0.031 0.3813 0.019 0.9759 0.239 0.2132 0.2916 0.3238 0.367 0.3164 0.2206 0.5623-0.04 0.376 0.043 0.3661-0.1418 0.0326-0.047 0.5565-0.023 0.3308-0.083h0.1951l0.2441 0.07 0.1878 0.1071 0.0637-0.093 0.2227-0.037 0.5023-0.247 0.7475-0.068 0.4475-0.5718 0.0855-0.058h0.3898l0.3396-0.035 0.32-0.2697 0.0728 0.013 0.249-0.1911 0.0878-0.2334 0.1408-0.017 0.2357-0.1253 0.2398-0.294 0.338-0.2705-0.0278-0.255 0.0946-0.2102 0.036-0.2556 0.1557-0.1737 0.2462-0.1243 0.0154-0.4401-0.3666-0.105 0.0127-0.1019 0.4842-0.4219 0.4077-0.3824 0.2598-0.084 0.0712-0.1306 0.2543 0.1915-0.2051 0.1628 0.0779 0.1216 0.3677 0.2245 0.1591 0.1571-0.0511 0.1046-0.2215-0.019-0.1676-0.1878 0.0465-0.1296-0.2524-0.1685-0.1226 0.2211 0.0673 0.1309 0.2143 0.1582 0.1575 0.1784-3e-3 0.1038-0.3489 0.1973-0.2603-0.019-0.2439-0.092-0.114-0.1458-0.0929 0.1859 0.018 0.1919-0.0996 0.2805-0.1315 0.075-0.0151 0.1325 0.1064 0.1301-0.1889 0.194-0.1566 0.01-0.0588 0.2306 0.0426 0.179 0.1436-0.056 0.3062-0.01 0.2537-0.1169 0.2135-0.1541 0.0522 0.1123-0.094 0.1434-0.2081 0.1875-0.0979 0.1637-0.3809 0.071-0.3003 0.114-0.0865-0.2886-0.1387 0.035 0.0293 0.1642-0.0769 0.2185-0.5015 0.5185-0.3213 0.2132-0.2049-0.066-0.1644 0.2118-0.3641 0.1918-0.3764 0.077-0.0123 0.1455-0.099 0.068-0.4121 0.1046-0.0471-0.2385-0.1834 0.2332-0.1526 0.021-0.5281 0.1802 0.0598-0.1861-0.339 0.2595-0.3033 0.1281-0.4483 0.148-0.0572-0.1494-0.206-0.1581-0.3126-0.02-0.155 0.096-0.4287-0.026-0.1313 0.08zm7.4868-3.9922 0.1937-0.087 0.2048-0.1615-0.2975-0.1131z"/>
      <path d="m-605.37 1325.7-0.4211-0.175-0.3906-0.5392 0.0212-0.2001-0.0721-0.346 0.2556-0.032 0.1244 0.1433 0.2173 0.126 0.0303 0.4042 0.3651 0.014 0.1606-0.1078 0.6884-0.1011 0.0744 0.1783-0.1553 0.283-0.3963 0.085-0.3535 0.2276z"/>
      <path d="m-596.24 1324.7 0.2113 0.1483 0.2408 0.3828 0.1259 0.2619 0.0335 0.2273-0.0665 0.6337-0.1374 0.012-0.0823-0.3822 1e-3 -0.2531-0.168-0.079-0.5797-0.086-0.3345-0.028-0.0561-0.281 0.0809-0.2732 0.4226-0.073 0.1313-0.2794z"/>
      <path d="m-625 1325.2-0.1359-0.1451 0.0409-0.327 0.2758-0.1074 0.0436 0.356z"/>
      <path d="m-624.63 1325.6-0.3313-0.3692 0.3991-0.3471 8e-3 -0.1603 0.3197 0.1587-0.1394 0.311z"/>
      <path d="m-625.01 1326.5-0.0468-0.035 0.3183-0.2695 0.1343-0.07 0.1685 0.2092-0.0907 0.1415-0.3437-0.028z"/>
      <path d="m-594.97 1339.6-0.1801-0.2566 6e-3 -0.1529 0.3724-0.2061 0.2061 0.017 0.0803-0.1415 0.3513 0.028-0.0515 0.3455-0.3838 0.2246z"/>
      <path d="m-600.83 1339.9-0.0846-0.097-0.0457-0.2023 0.105-0.4621 0.2075-0.1697 0.6517 0.1361 0.2018 0.188 0.1123 0.2016-0.0578 0.1036-0.2543-0.098-0.2497-0.03-0.2519 0.058-0.17 0.1096z"/>
      <path d="m-604.53 1361.4-0.6324-0.3315 0.1462-0.1348 0.4409 0.3206z"/>
      <path d="m-627.92 1361.8 0.1714 0.061-0.0634 0.2518-0.1834-0.1935z"/>
      <path d="m-601.9 1341.8-0.1351-0.1683 0.0117-0.4838 0.2123-0.3828 0.1841-0.035 5e-3 0.1678 0.1118 0.1404 0.1112 0.5335-0.3159-0.4555 4e-3 -0.1242-0.2044 0.01-0.0411 0.2955 0.1133 0.3518z"/>
      <path d="m-658.28 1318 0.2418-0.035 0.2165-0.2551 0.1177-0.059 0.1752 0.199-0.3433-0.053-0.1654 0.1923z"/>
      <path d="m-657.57 1317.7 0.2455 0.061-0.0671 0.1432z"/>
      <path d="m-627.92 1361.8-0.0752 0.119-0.1437-0.073 0.0415-0.3252-0.1955-0.055 8e-3 -0.087 0.3203-0.032 0.1191-0.122 0.0963 0.1246-0.2935 0.1027 0.13 0.1692z"/>
      <path d="m-670.83 1370.2 0.0941-0.111 0.2254-0.069 0.1276-0.1303 0.1583-0.048-0.0282-0.1123 0.2864-0.1353 0.2171 0.1008-0.4341 0.3731-0.2804 0.097-0.159 0.1014-0.2346 0.3961-0.3036 0.034 7e-3 -0.082z"/>
    </g>
    </g>
    <g id="lines" fill="none" stroke-width="4" stroke-linecap="butt" stroke-linejoin="round" inkscape:groupmode="layer" inkscape:label="lines">
      <path id="line-xinbeitou--xinbeitou--beitou--1997-03-28" data-km="1.2" d="M1324.013,498.59 L1269.066,499.89 L1262.003,500.699 L1256.142,502.527 L1251.806,504.669 L1247.184,507.868 L1243.32,511.557 L1238.688,517.954 L1235.829,524.597 L1234.352,531.837 L1234.413,539.146 L1235.156,543.397 L1236.294,547.053 L1239.056,553.554 L1245.37,563.606 L1251.622,572.288" inkscape:label="Xinbeitou_Branch_Line=1997_03_28" stroke="#f890a5" />
      <path id="line-r--xiangshan--chiang-kai-shek-memorial-hall--2013-11-24" data-km="6.0" d="M2274.735,2115.61 L2215.556,2115.448 L1753.144,2106.349 L1717.636,2106.807 L1706.044,2105.681 L1669.517,2100.304 L1666.103,2099.357 L1662.048,2097.633 L1644.548,2087.056 L1638.108,2084.913 L1631.845,2084.351 L1625.438,2085.194 L1619.013,2087.69 L1616.447,2089.234 L1612.115,2092.784 L1609.304,2096.229 L1606.246,2101.71 L1604.564,2107.228 L1602.762,2122.866 L1601.862,2126.979 L1600.455,2131.061 L1598.872,2133.959 L1594.708,2139.196 L1590.059,2142.816 L1584.658,2145.486 L1579.69,2146.786 L1574.276,2147.174 L1568.942,2146.506 L1563.807,2144.82 L1558.812,2142.007 L1555.207,2138.949 L1550.932,2133.715 L1530.85,2104.418" inkscape:label="Tamsui–Xinyi_Line=2013_11_24" stroke="#cb2c30" />
      <path id="line-r--chiang-kai-shek-memorial-hall--taipei-main-station--1998-12-24" data-km="1.5" d="M1530.85,2104.418 L1511.197,2075.553 L1504.28,2063.394 L1501.779,2057.455 L1499.595,2050.076 L1498.597,2044.839 L1497.924,2036.966 L1498.447,2026.845 L1501.018,2014.123 L1528.989,1910.661" inkscape:label="Tamsui_Line=1998_12_24-2013_11_24,Tamsui–Xinyi_Line=2013_11_24" stroke="#cb2c30" />
      <path id="line-r--taipei-main-station--zhongshan--1997-12-25" data-km="0.8" d="M1528.989,1910.661 L1533.601,1900.411 L1540.489,1887.197 L1550.12,1872.297 L1560.725,1858.097 L1564.637,1850.544 L1566.47,1844.745 L1567.446,1838.98 L1568.988,1810.099" inkscape:label="Tamsui_Line=1997_12_25-2013_11_24,Tamsui–Xinyi_Line=2013_11_24" stroke="#cb2c30" />
      <path id="line-r--zhongshan--tamsui--1997-03-28" data-km="21.4" d="M1568.988,1810.099 L1573.365,1716.111 L1573.245,1707.993 L1572.264,1701.773 L1570.882,1696.924 L1551.891,1645.134 L1550.078,1637.718 L1549.504,1631.498 L1549.901,1624.223 L1555.878,1588.239 L1568.051,1493.564 L1569.26,1488.22 L1570.899,1483.23 L1582.852,1455.996 L1612.597,1393.863 L1615.333,1387.326 L1628.877,1334.436 L1635.849,1302.666 L1637.997,1294.761 L1639.713,1290.403 L1642.662,1284.815 L1656.526,1265.452 L1660.436,1258.985 L1662.75,1253.538 L1664.14,1248.829 L1665.368,1239.936 L1665.319,1235.016 L1664.377,1228.198 L1656.942,1198.608 L1637.945,1137.988 L1627.293,1109.346 L1604.692,1061.795 L1601.45,1053.607 L1599.659,1046.227 L1592.204,1002.897 L1589.555,994.92 L1585.628,987.33 L1527.382,896.027 L1515.073,875.503 L1460.172,789.123 L1455.392,782.095 L1450.48,776.366 L1445.306,771.868 L1439.612,767.861 L1433.026,764.416 L1426.24,761.922 L1336.543,743.895 L1327.532,741.328 L1321.787,738.798 L1318.281,736.76 L1313.211,732.966 L1308.902,728.712 L1304.97,723.652 L1302.73,719.892 L1300.503,714.972 L1298.443,708.752 L1295.194,694.906 L1287.637,654.982 L1282.952,623.985 L1280.628,615.763 L1278.631,611.194 L1275.379,605.396 L1267.796,594.431 L1244.237,562.522 L1233.886,550.327 L1222.013,534.76 L1215.583,527.274 L1207.714,520.141 L1187.573,505.276 L1156.927,488.195 L1149.635,484.856 L1143.665,483.028 L1136.435,481.905 L1129.295,481.728 L1117.94,482.396 L1106.527,483.943 L1045.046,495.998 L1034.858,499.233 L1029.345,501.622 L978.292,526.013 L973.498,528.647 L966.005,533.954 L885.818,604.418 L858.314,625.397 L825.623,654.286 L821.265,659.101 L818.471,662.861 L801.063,689.394 L796.182,694.878 L791.749,698.461 L784.839,702.468 L777.78,704.998 L771.678,706.158 L765.902,706.439 L758.772,705.737 L751.871,703.839 L743.548,699.728 L738.424,695.897 L736.023,693.682 L731.934,688.903 L727.847,682.366 L695.925,618.934 L685.659,599.641 L682.715,591.733 L681.481,585.443 L681.284,576.272 L683.168,566.256 L685.805,559.612 L697.973,534.59 L700.496,526.683 L701.677,517.686 L700.086,469.155 L698.641,323.03 L695.738,276.361 L692.05,248.491 L689.271,206.742 L687.654,198.026 L685.763,192.121 L683.586,187.271 L679.202,180.139 L673.943,173.919 L667.464,168.365 L662.595,165.237 L657.649,162.673 L622.776,148.58 L616.95,145.137 L612.082,141.27 L608.239,137.3 L603.596,130.763 L600.952,125.422 L595.63,109.711 L593.144,103.738 L589.674,97.693 L585.742,92.633 L564.415,72.6 L500.067,20.065" inkscape:label="Tamsui_Line=1997_03_28-2013_11_24,Tamsui–Xinyi_Line=2013_11_24" stroke="#cb2c30" />
      <path id="line-xiaobitan--qizhang--xiaobitan--2004-09-29" data-km="1.9" d="M1893.4,3004.2 L1888.543,3085.13 L1885.299,3089.166 L1881.587,3092.43 L1867.824,3100.12 L1839.233,3119.636 L1834.606,3121.919 L1830.131,3123.345 L1823.916,3124.064 L1817.697,3123.374 L1812.174,3121.515 L1808.871,3119.787 L1779.853,3098.346 L1776.2,3095.266 L1757.967,3083.947 L1750.099,3080.826 L1738.424,3077.955 L1731.609,3074.882 L1723.144,3071.841" inkscape:label="Xiaobitan_Branch_Line=2004_09_29" stroke="#cedc00" />
      <path id="line-g--songshan--ximen--2014-11-15" data-km="8.3" d="M2379.349,1847.396 L2318.192,1849.03 L2311.132,1848.854 L2306.789,1848.011 L2301.022,1845.798 L2283.619,1834.235 L2279.203,1832.337 L2274.925,1831.248 L2269.724,1830.756 L2241.003,1829.984 L2205.943,1827.418 L1987.76,1823.236 L1929.351,1821.481 L1853.533,1820.084 L1781.625,1819.102 L1646.914,1818.495 L1604.755,1816.809 L1592.054,1815.577 L1580.711,1813.4 L1501.683,1793.441 L1498.098,1792.913 L1489.948,1793.266 L1482.465,1795.83 L1478.664,1798.116 L1440.802,1825.247 L1438.359,1827.356 L1434.432,1832.099 L1431.428,1837.933 L1430.014,1842.643 L1427.596,1853.791 L1422.587,1878.91 L1421.514,1887.169 L1420.355,1902.157 L1419.45,1907.491 L1409.071,1950.401 L1402.673,1975.008" inkscape:label="Songshan–Xindian_Line=2014_11_15" stroke="#007749" />
      <path id="line-g--ximen--chiang-kai-shek-memorial-hall--2000-08-31" data-km="1.7" d="M1402.673,1975.008 L1395.074,2004.478 L1394.105,2009.889 L1394.008,2014.494 L1395.343,2022.331 L1401.681,2046.474 L1404.761,2053.607 L1408.811,2058.95 L1413.815,2063.025 L1419.459,2065.908 L1452.108,2076.556 L1460.047,2077.96 L1497.547,2081.229 L1502.626,2082.107 L1506.207,2083.231 L1512.313,2086.359 L1517.417,2090.472 L1521.344,2095.005 L1528.717,2105.864" inkscape:label="Xiaonanmen_Line=2000_08_31-2014_11_15,Songshan–Xindian_Line=2014_11_15" stroke="#007749" />
      <path id="line-g--chiang-kai-shek-memorial-hall--guting--1998-12-24" data-km="1.0" d="M1528.717,2105.864 L1554.518,2143.538 L1571.88,2166.803 L1587.307,2191.472 L1602.361,2214" inkscape:label="Xindian_Line=1998_12_24-2014_11_15,Songshan–Xindian_Line=2014_11_15" stroke="#007749" />
      <path id="line-g--guting--xindian--1999-11-11" data-km="8.7" d="M1602.361,2214 L1626.87,2249.915 L1631.855,2256.558 L1639.169,2265.299 L1648.641,2275.221 L1669.201,2294.832 L1708.353,2334.155 L1748.424,2377.628 L1786.85,2417.865 L1793.387,2425.772 L1799.774,2435.507 L1804.843,2445.664 L1808.441,2455.433 L1813.281,2476.133 L1816.598,2486.605 L1821.079,2496.657 L1831.306,2515.527 L1833.485,2520.834 L1835.189,2527.124 L1836.034,2533.1 L1836.099,2539.53 L1835.199,2546.91 L1831.08,2570.176 L1831.093,2577.696 L1831.788,2582.405 L1841.988,2616.668 L1864.216,2674.97 L1866.61,2684.669 L1867.983,2696.794 L1867.992,2715.349 L1866.665,2724.838 L1855.235,2761.035 L1847.449,2781.455 L1845.016,2789.009 L1843.541,2796.003 L1842.781,2802.961 L1842.667,2807.811 L1843.127,2815.086 L1844.643,2824.205 L1847.551,2833.236 L1863.669,2866.025 L1867.271,2875.302 L1868.814,2882.471 L1874.612,2916.7 L1885.125,2952.441 L1892.051,2980.063 L1893.194,2987.091 L1893.533,2992.505 L1893.966,3024.836 L1893.869,3055.41 L1893.409,3064.336 L1892.356,3071.295 L1890.872,3077.444 L1867.288,3152.521 L1853.265,3190.65 L1828.7,3253.661 L1824.931,3264.767 L1820.555,3279.976" inkscape:label="Xindian_Line=1999_11_11-2014_11_15,Songshan–Xindian_Line=2014_11_15" stroke="#007749" />
      <path id="line-o--nanshijiao--guting--1998-12-24" data-km="5.7" d="M1411.115,2787.043 L1376.185,2768.321 L1365.985,2762.169 L1361.67,2758.549 L1359.874,2756.44 L1355.886,2749.906 L1354.158,2744.669 L1353.615,2741.364 L1353.492,2737.006 L1353.855,2733.563 L1365.627,2686.717 L1368.97,2678.74 L1372.929,2672.413 L1461.134,2562.064 L1466.708,2553.453 L1469.281,2547.373 L1470.974,2541.434 L1513.154,2371.798 L1516.604,2362.24 L1520.657,2355.248 L1526.264,2348.43 L1532.225,2343.333 L1538.336,2339.503 L1545.5,2336.339 L1551.013,2334.794 L1557.918,2333.739 L1582.889,2333.73 L1589.627,2333.345 L1596.275,2331.972 L1603.601,2329.091 L1619.641,2320.622 L1625.844,2316.334 L1628.924,2313.664 L1634.502,2307.374 L1638.443,2301.328 L1640.196,2297.885 L1642.501,2291.452 L1643.608,2284.39 L1643.656,2281.402 L1642.905,2275.183 L1641.05,2269.137 L1639.227,2265.287 L1636.288,2260.447 L1604.205,2212.758" inkscape:label="Zhonghe_Line=1998_12_24-2012_09_30,Zhonghe–Xinlu_Line=2012_09_30" stroke="#ffa300" />
      <path id="line-o--guting--zhongxiao-xinsheng--2012-09-30" data-km="3.1" d="M1604.205,2212.758 L1593.596,2196.908 L1591.364,2192.69 L1589.604,2187.032 L1589.057,2181.164 L1590.055,2174.031 L1595.945,2156.001 L1600.054,2135.233 L1600.546,2127.877 L1599.357,2113.61 L1599.211,2107.036 L1600.514,2100.148 L1602.952,2094.633 L1607.743,2088.236 L1614.343,2083.561 L1619.343,2081.453 L1621.88,2080.821 L1628.059,2080.153 L1632.688,2080.576 L1637.743,2081.947 L1643.965,2084.861 L1661.46,2094.878 L1667.774,2097.233 L1673.132,2098.323 L1711.887,2103.804 L1718.252,2104.085 L1723.015,2103.453 L1728.172,2101.802 L1732.605,2099.48 L1737.275,2095.827 L1741.277,2090.977 L1743.851,2086.198 L1745.55,2080.821 L1746.042,2077.763 L1746.212,2071.788 L1745.729,2056.781 L1746.724,1969.573" inkscape:label="Zhonghe–Xinlu_Line=2012_09_30" stroke="#ffa300" />
      <path id="line-o--zhongxiao-xinsheng--luzhou--2010-11-03" data-km="10.9" d="M1746.724,1969.573 L1746.676,1935.729 L1750.436,1688.445 L1749.903,1680.468 L1749.266,1677.48 L1747.552,1672.841 L1742.185,1664.195 L1738.074,1660.857 L1734.159,1658.363 L1730.738,1656.746 L1725.695,1655.131 L1720.102,1654.322 L1693.867,1654.884 L1623.381,1653.129 L1579.961,1651.337 L1517.777,1649.802 L1509.531,1648.889 L1490.797,1645.621 L1484.853,1645.059 L1443.779,1646.957 L1438.961,1646.78 L1432.838,1645.48 L1415.168,1638.033 L1408.053,1635.747 L1399.276,1634.307 L1365.678,1630.305 L1344.764,1627.079 L1339.854,1626.023 L1335.034,1624.372 L1330.492,1622.053 L1325.064,1618.046 L1273.016,1566.563 L1264.573,1558.937 L1160.515,1480.675 L1154.22,1476.702 L1135.648,1467.424 L1116.662,1454.212 L1028.313,1400.796 L1006.533,1386.388 L978.874,1369.377 L974.332,1367.268 L970.867,1366.215 L955.113,1363.965 L950.586,1362.876 L946.112,1360.944 L942.216,1358.414 L939.291,1355.847 L935.275,1350.54 L932.706,1345.236 L927,1331.106 L921.891,1322.744 L914.896,1315.151 L889.971,1292.204 L831.279,1240.826 L824.926,1235.66 L817.583,1230.81 L776.337,1207.63" inkscape:label="Xinzhuang–Luzhou_Line=2010_11_03-2012_09_30,Zhonghe–Xinlu_Line=2012_09_30" stroke="#ffa300" />
      <path id="line-o--taipei-bridge--fu-jen-university--2012-01-05" data-km="8.8" d="M1353.496,1628.444 L1337.698,1627.107 L1331.534,1627.565 L1328.534,1628.197 L1321.748,1630.693 L1303.059,1640.813 L1238.282,1666.891 L1228.6,1670.019 L1194.41,1676.662 L1188.379,1678.594 L1181.244,1682.846 L1096.058,1747.475 L1088.666,1752.608 L1079.958,1756.719 L1031.988,1770.354 L1027.029,1772.259 L1022.47,1774.683 L1015.209,1780.166 L1012.216,1783.399 L1007.631,1789.935 L972.857,1863.385 L969,1869.537 L966.794,1872.347 L963.678,1875.72 L959.453,1879.446 L953.062,1883.734 L943.38,1888.232 L920.883,1895.014 L904.911,1900.391 L857.627,1917.823 L852.281,1920.249 L847.686,1922.953 L844.78,1924.992 L839.267,1929.878 L802.469,1969.027 L795.896,1974.791 L723.686,2024.659 L683.329,2051.79 L676.625,2055.797 L669.736,2058.678 L662.26,2060.472 L645.08,2062.087 L636.057,2063.564 L562.414,2081.627 L457.071,2106.582 L421.21,2114.312 L371.723,2123.398" inkscape:label="Xinzhuang–Luzhou_Line=2012_01_05-2012_09_30,Zhonghe–Xinlu_Line=2012_09_30" stroke="#ffa300" />
      <path id="line-o--fu-jen-university--huilong--2013-06-29" data-km="3.0" d="M371.723,2123.398 L351.521,2127.106 L339.079,2130.197 L285.539,2149.351 L208.071,2175.746 L172.604,2188.503 L136.213,2200.24 L131.579,2202.138 L128.064,2204.213 L123.526,2207.903 L119.999,2212.295 L117.728,2216.266 L115.842,2220.624 L106.639,2243.186 L104.325,2246.982 L100.906,2250.989 L95.846,2254.89 L57.96,2278.155 L52.266,2281.283 L32.096,2290.154" inkscape:label="Zhonghe–Xinlu_Line=2013_06_29" stroke="#ffa300" />
      <path id="line-bl--dingpu--yongning--2015-07-06" data-km="2.1" d="M129.501,3271.077 L176.916,3234.874 L184.078,3229.86 L188.513,3227.408 L196.527,3224.417 L215.446,3218.745 L224.987,3215.033 L234.313,3209.593 L252.307,3197.386 L258.214,3194.367 L263.727,3192.394 L286.958,3185.699 L314.331,3174.252 L322.161,3172.545 L340.309,3172.187 L344.459,3171.776 L348.527,3171.033 L353.483,3169.478 L359.15,3166.868 L363.954,3163.81 L380.703,3150.244" inkscape:label="Bannan_Line=2015_07_06" stroke="#005eb8" />
      <path id="line-bl--yongning--xinpu--2006-05-31" data-km="7.8" d="M380.703,3150.244 L415.824,3122.53 L423.148,3118.383 L452.151,3104.854 L457.216,3101.796 L462.762,3097.157 L468.048,3090.691 L478.366,3072.38 L483.003,3065.949 L526.527,3017.312 L533.279,3008.559 L538.659,2999.773 L541.177,2994.82 L545.077,2985.295 L548.167,2974.541 L554.624,2932.544 L554.469,2923.795 L552.031,2906.539 L551.789,2897.789 L552.491,2891.286 L559.965,2842.719 L560.352,2835.761 L559.858,2829.682 L551.147,2776.757 L550.881,2773.558 L551.164,2768.147 L553.304,2760.661 L556.018,2755.742 L558.601,2752.296 L584.536,2727.1 L586.763,2724.43 L589.642,2719.788 L599.271,2695.785 L602.016,2688.021 L607.248,2667.357 L618.741,2628.031 L623.107,2615.064 L632.711,2591.939 L647.448,2563.471 L650.637,2558.13 L654.552,2552.857 L714.564,2485.313 L717.951,2480.705 L720.578,2475.539 L729.248,2449.57 L732.148,2443.137 L736.47,2436.637 L762.366,2401.141 L766.302,2394.463 L768.164,2389.754 L769.401,2384.941 L772.287,2365.331 L773.738,2360.728 L775.723,2356.37 L778.943,2351.204 L810.113,2308.188 L816.441,2297.223 L830.175,2270.583" inkscape:label="Bannan_Line=2006_05_31" stroke="#005eb8" />
      <path id="line-bl--xinpu--longshan-temple--2000-08-31" data-km="4.3" d="M830.175,2270.583 L867.9,2195.835 L873.766,2185.855 L877.679,2180.09 L881.843,2174.539 L955.297,2085.169 L961.229,2079.687 L966.245,2075.998 L970.252,2073.642 L976.714,2070.724 L986.246,2068.124 L994.385,2067.282 L1133.58,2070.487 L1143.785,2071.085 L1175.879,2074.952 L1189.139,2076.179 L1227.213,2077.549 L1245.822,2080.677 L1253.465,2081.452 L1292.669,2082.608" inkscape:label="Nangang–Banqiao_Line=2000_08_31-2006_05_31,Bannan_Line=2006_05_31" stroke="#005eb8" />
      <path id="line-bl--longshan-temple--taipei-city-hall--1999-12-24" data-km="8.0" d="M1292.669,2082.608 L1336.436,2083.839 L1341.326,2083.628 L1347.169,2082.75 L1355.158,2080.256 L1362.622,2076.353 L1369.958,2070.625 L1375.374,2064.194 L1379.011,2058.185 L1380.672,2054.529 L1382.609,2048.661 L1390.811,2011.761 L1417.797,1907.564 L1420.383,1902.204 L1422.131,1899.667 L1425.431,1896.047 L1428,1893.902 L1433.728,1890.493 L1438.297,1888.912 L1441.457,1888.314 L1447.872,1888.137 L1453.681,1889.156 L1489.647,1900.79 L1542.325,1914.77 L1562.561,1921.868 L1567.744,1923.098 L1585.438,1925.839 L1656.799,1943.619 L1677.172,1949.244 L1716.551,1961.858 L1731.681,1966.041 L1763.221,1973.391 L1799.624,1978.873 L1813.899,1979.928 L1901.709,1980.308 L2148.559,1985.283 L2219.009,1987.276" inkscape:label="Nangang–Banqiao_Line=1999_12_24-2006_05_31,Bannan_Line=2006_05_31" stroke="#005eb8" />
      <path id="line-bl--taipei-city-hall--kunyang--2000-12-30" data-km="3.3" d="M2219.009,1987.276 L2373.338,1991.256 L2382.507,1990.377 L2390.828,1987.813 L2398.285,1983.913 L2410.042,1975.935 L2417.32,1969.853 L2427.152,1959.944 L2435.648,1949.119 L2475.097,1888.533 L2481.84,1880.626 L2489.338,1874.336 L2497.004,1869.627 L2507.315,1865.339 L2603.463,1840.011" inkscape:label="Nangang–Banqiao_Line=2000_12_30-2006_05_31,Bannan_Line=2006_05_31" stroke="#005eb8" />
      <path id="line-bl--kunyang--nangang--2008-12-25" data-km="1.5" d="M2603.463,1840.011 L2637.49,1831.108 L2644.825,1829.704 L2651.147,1829.069 L2674.196,1828.929 L2682.287,1828.368 L2801.296,1812.767" inkscape:label="Bannan_Line=2008_12_25" stroke="#005eb8" />
      <path id="line-bl--nangang--taipei-nangang-exhibition-center--2011-02-27" data-km="1.2" d="M2801.296,1812.767 L2820.142,1810.232 L2827.103,1808.476 L2831.023,1807.033 L2839.194,1802.888 L2866.743,1786.546 L2872.169,1784.016 L2877.696,1782.222 L2886.231,1780.607 L2920.271,1776.213 L2940.422,1774.702 L2951.501,1771.877" inkscape:label="Bannan_Line=2011_02_27" stroke="#005eb8" />
      <path id="line-br--taipei-nangang-exhibition-center--zhongshan-junior-high-school--2009-07-04" data-km="15.0" d="M2951.432,1771.877 L2940.801,1770.155 L2938.508,1768.644 L2937.31,1766.219 L2937.068,1764.04 L2940.571,1711.603 L2940.036,1706.298 L2938.76,1703.03 L2937.065,1700.463 L2933.974,1697.546 L2911.164,1683.806 L2904.756,1678.746 L2900.933,1674.318 L2889.902,1659.874 L2873.483,1643.076 L2870.193,1638.401 L2868.227,1634.677 L2854.787,1605.05 L2853.618,1601.22 L2853.152,1597.143 L2853.557,1592.541 L2854.232,1589.94 L2856.438,1585.091 L2866.287,1567.201 L2867.737,1563.581 L2868.655,1559.26 L2868.934,1550.156 L2868.57,1546.503 L2867.294,1541.653 L2864.919,1536.664 L2861.624,1532.235 L2857.983,1528.826 L2848.88,1521.445 L2838.604,1513.925 L2829.983,1508.477 L2821.514,1503.804 L2788.289,1487.673 L2785.948,1485.987 L2783.568,1482.402 L2783.06,1479.203 L2783.92,1475.584 L2795.65,1458.012 L2798.117,1451.862 L2799.156,1445.502 L2799.081,1441.18 L2797.599,1425.717 L2797.212,1407.793 L2797.376,1401.888 L2798.812,1387.34 L2798.641,1371.315 L2798.026,1368.012 L2796.937,1364.884 L2788.722,1349.387 L2786.182,1345.273 L2783.214,1341.654 L2779.59,1338.526 L2775.166,1335.925 L2772.043,1334.625 L2768.041,1333.572 L2749.699,1330.972 L2742.258,1328.652 L2733.7,1324.084 L2719.8,1314.736 L2714.442,1311.608 L2705.552,1308.339 L2697.279,1307.039 L2681.249,1306.652 L2662.822,1307.708 L2652.257,1309.182 L2641.366,1311.327 L2630.827,1313.891 L2626.285,1315.86 L2622.864,1318.215 L2593.668,1342.041 L2586.722,1348.157 L2581.069,1353.781 L2549.255,1388.292 L2542.697,1393.071 L2534.852,1396.48 L2518.05,1400.661 L2511.174,1401.821 L2502.235,1402.736 L2442.824,1404.387 L2413.107,1404.598 L2404.926,1404.213 L2395.825,1402.105 L2366.864,1389.382 L2332.199,1375.151 L2306.383,1365.522 L2261.786,1350.025 L2253.198,1348.725 L2226.472,1348.127 L2220.221,1347.669 L2208.721,1345.035 L2201.515,1342.819 L2189.589,1337.549 L2147.65,1313.9 L2125.202,1306.484 L2116.275,1304.516 L2112.685,1304.622 L2109.387,1305.852 L2099.63,1311.089 L2094.362,1312.53 L2088.837,1312.881 L2083.152,1312.072 L2032.842,1296.049 L2023.889,1293.66 L2019.1,1293.202 L2013.582,1293.553 L2009.036,1294.502 L2003.607,1296.611 L1998.235,1299.739 L1986.485,1307.989 L1981.922,1312.662 L1978.966,1317.23 L1977.368,1320.743 L1975.566,1326.963 L1967.572,1362.81 L1965.717,1367.94 L1963.311,1372.264 L1958.941,1377.571 L1955.478,1380.626 L1919.491,1410.36 L1916.578,1414.014 L1914.77,1417.633 L1913.687,1421.534 L1913.494,1427.051 L1914.917,1432.85 L1916.828,1436.506 L1919.89,1440.232 L1924.442,1443.357 L1931.148,1446.171 L1992.482,1467.852 L1998.123,1471.016 L1999.879,1472.457 L2002.203,1475.301 L2004.062,1478.606 L2005.604,1484.264 L2005.629,1511.606 L2006.217,1516.913 L2007.334,1521.552 L2011.546,1532.234 L2049.787,1618.088 L2051.431,1624.519 L2051.397,1628.491 L2050.773,1631.724 L2048.189,1637.312 L2045.439,1640.754 L2039.655,1644.34 L2035.701,1645.64 L2030.433,1646.236 L1994.968,1647.257 L1989.482,1647.117 L1986.315,1646.483 L1982.437,1644.938 L1979.558,1643.11 L1960.167,1627.576 L1940.723,1614.826 L1917.899,1594.971 L1914.551,1593.671 L1911.87,1593.986 L1909.592,1595.533 L1908.791,1596.763 L1907.745,1601.157 L1906.748,1682.45" inkscape:label="Muzha–Neihu_Line=2009_07_04-2009_10_08,Wenhu_Line=2009_10_08" stroke="#9e652e" />
      <path id="line-br--zhongshan-junior-high-school--taipei-zoo--1996-03-28" data-km="10.7" d="M1906.748,1682.45 L1905.133,1805.301 L1900.828,2026.373 L1898.154,2207.929 L1898.106,2238.926 L1898.827,2240.437 L1899.638,2240.999 L1902.411,2241.597 L2023.26,2248.625 L2026.318,2249.364 L2029.027,2251.015 L2031.482,2253.334 L2101.662,2325.166 L2123.748,2346.812 L2130.541,2354.158 L2133.815,2358.409 L2136.243,2363.295 L2137.73,2368.321 L2138.362,2375.42 L2138.109,2465.069 L2137.617,2472.766 L2136.591,2477.932 L2135.102,2482.678 L2131.063,2490.97 L2109.382,2522.142 L2105.855,2526.149 L2097.572,2533.938 L2089.239,2550.81 L2088.943,2552.578 L2089.297,2554.933 L2096.219,2576.106 L2096.34,2580.256 L2095.626,2584.791 L2090.149,2594.538 L2089.355,2596.482 L2088.943,2598.986 L2088.991,2601.901 L2094.204,2623.838 L2097.066,2628.646 L2116.991,2643.176 L2120.204,2648.236 L2124.952,2660.501 L2126.639,2662.997 L2129.634,2666.089 L2133.803,2668.83 L2138.028,2670.41 L2156.005,2672.519 L2160.244,2672.374 L2165.27,2671.004 L2184.431,2662.184 L2191.196,2659.651 L2227.49,2650.831 L2234.519,2649.877 L2281.532,2647.768 L2289.587,2647.986 L2298.54,2649.427 L2377.217,2666.142 L2381.839,2666.767 L2387.511,2666.382 L2392.966,2664.447 L2411.547,2652.448" inkscape:label="Muzha_Line=1996_03_28-2009_07_04,Muzha–Neihu_Line=2009_07_04-2009_10_08,Wenhu_Line=2009_10_08" stroke="#9e652e" />
      <path id="line-y--dapinglin--new-taipei-industrial-park--2020-01-31" data-km="15.4" d="M1870.921,2895.28 L1761.32,2897.856 L1720.135,2899.859 L1713.143,2898.965 L1706.596,2896.287 L1698.856,2891.181 L1668.861,2866.052 L1662.264,2859.392 L1660.179,2855.971 L1659.586,2851.656 L1673.122,2793.634 L1671.933,2789.768 L1669.848,2787.686 L1663.9,2784.858 L1660.636,2783.841 L1649.022,2781.735 L1594.731,2775.401 L1554.042,2760.473 L1528.378,2754.997 L1343.354,2731.831 L1336.342,2729.587 L1329.629,2725.674 L1298.152,2694.299 L1282.412,2658.586 L1277.596,2652.739 L1247.226,2622.456 L1239.164,2613.743 L1237.564,2609.828 L1236.155,2597.316 L1234.615,2595.391 L1231.279,2594.65 L1209.453,2596.841 L1196.384,2597.708 L1187.869,2594.923 L1156.62,2580.675 L1137.699,2549.167 L1134.232,2545.894 L1120.291,2535.808 L1083.113,2515.815 L1055.399,2502.448 L1027.331,2486.423 L951.5,2446.933 L917.367,2424.378 L883.002,2400.426 L868.948,2393.141 L854.644,2387.911 L847.078,2385.8 L839.359,2384.447 L832.045,2384.425 L822.806,2385.955 L813.846,2389.562 L804.532,2397.431 L798.792,2401.605 L794.3,2403.489 L788.959,2402.104 L762.7,2381.781 L762.245,2377.285 L764.129,2372.341 L817.965,2293.466 L820.831,2286.53 L822.712,2280.487 L822.48,2260.414 L820.676,2252.131 L752.285,2103.667 L735.136,2058.099 L721.067,2024.446 L716.409,2012.348 L712.944,1938.713 L712.518,1864.158 L713.075,1776.117 L712.646,1706.368 L711.76,1694.807 L710.247,1688.672" inkscape:label="Circular_Line=2020_01_31" stroke="#f0d943" />
    </g>
    <g id="stations" fill="#fff" stroke="#000" stroke-width="1.6" inkscape:groupmode="layer" inkscape:label="station_markers">
      <path id="walking-transfer-xinpu" d="M809.507,2227.992 L830.057,2270.522" fill="none" inkscape:label="Xinpu=2020_01_31" />
      <path id="walking-transfer-banqiao" d="M783.56,2398.1 L744.1,2425.3" fill="none" inkscape:label="Banqiao=2020_01_31" />
      <circle id="station-xinbeitou-0" data-lines="xinbeitou=1997_03_28" cx="1323.772" cy="498.595" r="5.06" inkscape:label="Xinbeitou=1997_03_28" />
      <circle id="station-zhongyi-1" data-lines="r=1997_03_28" cx="898.738" cy="593.105" r="5.06" inkscape:label="Zhongyi=1997_03_28" />
      <circle id="station-fuxinggang-2" data-lines="r=1997_03_28" cx="1067.579" cy="491.49" r="5.06" inkscape:label="Fuxinggang=1997_03_28" />
      <circle id="station-guandu-3" data-lines="r=1997_03_28" cx="808.046" cy="678.868" r="5.06" inkscape:label="Guandu=1997_03_28" />
      <circle id="station-tamsui-4" data-lines="r=1997_03_28" cx="500.067" cy="20.065" r="5.06" inkscape:label="Tamsui=1997_03_28" />
      <circle id="station-zhishan-5" data-lines="r=1997_03_28" cx="1596.568" cy="1027.689" r="5.06" inkscape:label="Zhishan=1997_03_28" />
      <circle id="station-shilin-6" data-lines="r=1997_03_28" cx="1649.334" cy="1173.856" r="5.06" inkscape:label="Shilin=1997_03_28" />
      <circle id="station-jiantan-7" data-lines="r=1997_03_28" cx="1632.803" cy="1316.697" r="5.06" inkscape:label="Jiantan=1997_03_28" />
      <circle id="station-yuanshan-8" data-lines="r=1997_03_28" cx="1564.582" cy="1521.121" r="5.06" inkscape:label="Yuanshan=1997_03_28" />
      <circle id="station-zhuwei-9" data-lines="r=1997_03_28" cx="701.343" cy="503.731" r="5.06" inkscape:label="Zhuwei=1997_03_28" />
      <circle id="station-shuanglian-10" data-lines="r=1997_03_28" cx="1572.648" cy="1732.722" r="5.06" inkscape:label="Shuanglian=1997_03_28" />
      <circle id="station-ntu-hospital-11" data-lines="r=1998_12_24" cx="1511.712" cy="1974.517" r="5.06" inkscape:label="NTU_Hospital=1998_12_24" />
      <circle id="station-daan-park-12" data-lines="r=2013_11_24" cx="1782.703" cy="2106.895" r="5.06" inkscape:label="Daan_Park=2013_11_24" />
      <circle id="station-xiangshan-13" data-lines="r=2013_11_24" cx="2274.473" cy="2115.611" r="5.06" inkscape:label="Xiangshan=2013_11_24" />
      <circle id="station-xinyi-anhe-14" data-lines="r=2013_11_24" cx="2031.607" cy="2111.827" r="5.06" inkscape:label="Xinyi_Anhe=2013_11_24" />
      <circle id="station-taipei-101-world-trade-center-15" data-lines="r=2013_11_24" cx="2180.311" cy="2114.741" r="5.06" inkscape:label="Taipei_101/World_Trade_Center=2013_11_24" />
      <circle id="station-shipai-16" data-lines="r=1997_03_28" cx="1500.221" cy="852.319" r="5.06" inkscape:label="Shipai=1997_03_28" />
      <circle id="station-qiyan-17" data-lines="r=1997_03_28" cx="1290.318" cy="669.232" r="5.06" inkscape:label="Qiyan=1997_03_28" />
      <circle id="station-qilian-18" data-lines="r=1997_03_28" cx="1367.409" cy="749.923" r="5.06" inkscape:label="Qilian=1997_03_28" />
      <circle id="station-mingde-19" data-lines="r=1997_03_28" cx="1546.809" cy="926.205" r="5.06" inkscape:label="Mingde=1997_03_28" />
      <circle id="station-xiaobitan-20" data-lines="xiaobitan=2004_09_29" cx="1723.144" cy="3071.841" r="5.06" inkscape:label="Xiaobitan=2004_09_29" />
      <circle id="station-xindian-district-office-21" data-lines="g=1999_11_11" cx="1873.919" cy="3131.471" r="5.06" inkscape:label="Xindian_City_Office=1999_11_11-2011_01_01,Xindian_District_Office=2011_01_01" />
      <circle id="station-jingmei-22" data-lines="g=1999_11_11" cx="1862.576" cy="2738.246" r="5.06" inkscape:label="Jingmei=1999_11_11" />
      <circle id="station-wanlong-23" data-lines="g=1999_11_11" cx="1836.77" cy="2599.663" r="5.06" inkscape:label="Wanlong=1999_11_11" />
      <circle id="station-gongguan-24" data-lines="g=1999_11_11" cx="1768.339" cy="2398.535" r="5.06" inkscape:label="Gongguan=1999_11_11" />
      <circle id="station-taipower-building-25" data-lines="g=1999_11_11" cx="1683.232" cy="2308.864" r="5.06" inkscape:label="Taipower_Building=1999_11_11" />
      <circle id="station-taipei-arena-26" data-lines="g=2014_11_15" cx="2021.989" cy="1823.842" r="5.06" inkscape:label="Taipei_Arena=2014_11_15" />
      <circle id="station-xindian-27" data-lines="g=1999_11_11" cx="1820.555" cy="3279.976" r="5.06" inkscape:label="Xindian=1999_11_11" />
      <circle id="station-xiaonanmen-28" data-lines="xiaonanmen=2000_08_31-2014_11_15,g=2014_11_15" cx="1434.337" cy="2070.908" r="5.06" inkscape:label="Xiaonanmen=2000_08_31" />
      <circle id="station-nanjing-sanmin-29" data-lines="g=2014_11_15" cx="2185.411" cy="1827.06" r="5.06" inkscape:label="Nanjing_Sanmin=2014_11_15" />
      <circle id="station-daqiaotou-30" data-lines="xinlu=2010_11_03-2012_09_30,o=2012_09_30" cx="1462.923" cy="1645.981" r="5.06" inkscape:label="Daqiaotou=2010_11_03" />
      <circle id="station-taipei-bridge-31" data-lines="xinlu=2012_01_05-2012_09_30,o=2012_09_30" cx="1282.355" cy="1649.215" r="5.06" inkscape:label="Taipei_Bridge=2012_01_05" />
      <circle id="station-sanchong-elementary-school-32" data-lines="xinlu=2010_11_03-2012_09_30,o=2012_09_30" cx="1230.842" cy="1533.478" r="5.06" inkscape:label="Sanchong_Elementary_School=2010_11_03" />
      <circle id="station-sanhe-junior-high-school-33" data-lines="xinlu=2010_11_03-2012_09_30,o=2012_09_30" cx="1086.844" cy="1436.139" r="5.06" inkscape:label="Sanhe_Junior_High_School=2010_11_03" />
      <circle id="station-st-ignatius-high-school-34" data-lines="xinlu=2010_11_03-2012_09_30,o=2012_09_30" cx="997.478" cy="1380.799" r="5.06" inkscape:label="St_Ignatius_High_School=2010_11_03" />
      <circle id="station-sanmin-senior-high-school-35" data-lines="xinlu=2010_11_03-2012_09_30,o=2012_09_30" cx="897.308" cy="1298.959" r="5.06" inkscape:label="Sanmin_Senior_High_School=2010_11_03" />
      <circle id="station-zhongshan-elementary-school-36" data-lines="xinlu=2010_11_03-2012_09_30,o=2012_09_30" cx="1654.921" cy="1653.914" r="5.06" inkscape:label="Zhongshan_Elementary_School=2010_11_03" />
      <circle id="station-xingtian-temple-37" data-lines="xinlu=2010_11_03-2012_09_30,o=2012_09_30" cx="1750.165" cy="1706.987" r="5.06" inkscape:label="Xingtian_Temple=2010_11_03" />
      <circle id="station-dingxi-38" data-lines="o=1998_12_24" cx="1500.878" cy="2421.565" r="5.06" inkscape:label="Dingxi=1998_12_24" />
      <circle id="station-yongan-market-39" data-lines="o=1998_12_24" cx="1436.115" cy="2593.158" r="5.06" inkscape:label="Yongan_Market=1998_12_24" />
      <circle id="station-huilong-40" data-lines="o=2013_06_29" cx="32.096" cy="2290.154" r="5.06" inkscape:label="Huilong=2013_06_29" />
      <circle id="station-nanshijiao-41" data-lines="o=1998_12_24" cx="1410.971" cy="2786.967" r="5.06" inkscape:label="Nanshijiao=1998_12_24" />
      <circle id="station-luzhou-42" data-lines="xinlu=2010_11_03-2012_09_30,o=2012_09_30" cx="776.337" cy="1207.63" r="5.06" inkscape:label="Luzhou=2010_11_03" />
      <circle id="station-xianse-temple-43" data-lines="xinlu=2012_01_05-2012_09_30,o=2012_09_30" cx="875.114" cy="1911.376" r="5.06" inkscape:label="Xianse_Temple=2012_01_05" />
      <circle id="station-cailiao-44" data-lines="xinlu=2012_01_05-2012_09_30,o=2012_09_30" cx="1159.184" cy="1699.614" r="5.06" inkscape:label="Cailiao=2012_01_05" />
      <circle id="station-xinzhuang-45" data-lines="xinlu=2012_01_05-2012_09_30,o=2012_09_30" cx="606.964" cy="2070.662" r="5.06" inkscape:label="Xinzhuang=2012_01_05" />
      <circle id="station-fu-jen-university-46" data-lines="xinlu=2012_01_05-2012_09_30,o=2012_09_30" cx="371.723" cy="2123.398" r="5.06" inkscape:label="Fu_Jen_University=2012_01_05" />
      <circle id="station-danfeng-47" data-lines="o=2013_06_29" cx="182.39" cy="2184.983" r="5.06" inkscape:label="Danfeng=2013_06_29" />
      <circle id="station-houshanpi-48" data-lines="bl=2000_12_30" cx="2447.487" cy="1930.974" r="5.06" inkscape:label="Houshanpi=2000_12_30" />
      <circle id="station-dingpu-49" data-lines="bl=2015_07_06" cx="129.501" cy="3271.077" r="5.06" inkscape:label="Dingpu=2015_07_06" />
      <circle id="station-shandao-temple-50" data-lines="bl=1999_12_24" cx="1620.816" cy="1934.622" r="5.06" inkscape:label="Shandao_Temple=1999_12_24" />
      <circle id="station-yongchun-51" data-lines="bl=2000_12_30" cx="2359.995" cy="1990.966" r="5.06" inkscape:label="Yongchun=2000_12_30" />
      <circle id="station-taipei-city-hall-52" data-lines="bl=1999_12_24" cx="2219.009" cy="1987.276" r="5.06" inkscape:label="Taipei_City_Hall=1999_12_24" />
      <circle id="station-zhongxiao-dunhua-53" data-lines="bl=1999_12_24" cx="1995.822" cy="1982.422" r="5.06" inkscape:label="Zhongxiao_Dunhua=1999_12_24" />
      <circle id="station-sun-yat-sen-memorial-hall-54" data-lines="bl=1999_12_24" cx="2094.571" cy="1984.217" r="5.06" inkscape:label="Sun_Yat-sen_Memorial_Hall=1999_12_24" />
      <circle id="station-kunyang-55" data-lines="bl=2000_12_30" cx="2603.463" cy="1840.011" r="5.06" inkscape:label="Kunyang=2000_12_30" />
      <circle id="station-fuzhong-56" data-lines="bl=2006_05_31" cx="703.129" cy="2498.205" r="5.06" inkscape:label="Fuzhong=2006_05_31" />
      <circle id="station-far-eastern-hospital-57" data-lines="bl=2006_05_31" cx="610.106" cy="2657.517" r="5.06" inkscape:label="Far_Eastern_Hospital=2006_05_31" />
      <circle id="station-haishan-58" data-lines="bl=2006_05_31" cx="557.847" cy="2856.739" r="5.06" inkscape:label="Haishan=2006_05_31" />
      <circle id="station-tucheng-59" data-lines="bl=2006_05_31" cx="495.612" cy="3051.779" r="5.06" inkscape:label="Tucheng=2006_05_31" />
      <circle id="station-jiangzicui-60" data-lines="bl=2000_08_31" cx="894.223" cy="2159.475" r="5.06" inkscape:label="Jiangzicui=2000_08_31" />
      <circle id="station-longshan-temple-61" data-lines="bl=1999_12_24" cx="1292.669" cy="2082.608" r="5.06" inkscape:label="Longshan_Temple=1999_12_24" />
      <circle id="station-yongning-62" data-lines="bl=2006_05_31" cx="380.703" cy="3150.244" r="5.06" inkscape:label="Yongning=2006_05_31" />
      <circle id="station-nangang-software-park-63" data-lines="br=2009_07_04" cx="2923.32" cy="1691.082" r="5.06" inkscape:label="Nangang_Software_Park=2009_07_04" />
      <circle id="station-huzhou-64" data-lines="br=2009_07_04" cx="2803.92" cy="1495.314" r="5.06" inkscape:label="Huzhou=2009_07_04" />
      <circle id="station-donghu-65" data-lines="br=2009_07_04" cx="2859.78" cy="1579.02" r="5.06" inkscape:label="Donghu=2009_07_04" />
      <circle id="station-dahu-park-66" data-lines="br=2009_07_04" cx="2733.29" cy="1323.808" r="5.06" inkscape:label="Dahu_Park=2009_07_04" />
      <circle id="station-zhongshan-junior-high-school-67" data-lines="br=1996_03_28" cx="1906.748" cy="1682.45" r="5.06" inkscape:label="Zhongshan_Junior_High_School=1996_03_28" />
      <circle id="station-wanfang-hospital-68" data-lines="br=1996_03_28" cx="2105.667" cy="2634.938" r="5.06" inkscape:label="Wanfang_Hospital=1996_03_28" />
      <circle id="station-muzha-69" data-lines="br=1996_03_28" cx="2323.435" cy="2654.778" r="5.06" inkscape:label="Muzha=1996_03_28" />
      <circle id="station-wanfang-community-70" data-lines="br=1996_03_28" cx="2252.672" cy="2649.014" r="5.06" inkscape:label="Wanfang_Community=1996_03_28" />
      <circle id="station-xinhai-71" data-lines="br=1996_03_28" cx="2090.102" cy="2548.82" r="5.06" inkscape:label="Xinhai=1996_03_28" />
      <circle id="station-linguang-72" data-lines="br=1996_03_28" cx="2116.966" cy="2340.227" r="5.06" inkscape:label="Linguang=1996_03_28" />
      <circle id="station-technology-building-73" data-lines="br=1996_03_28" cx="1898.062" cy="2223.691" r="5.06" inkscape:label="Technology_Building=1996_03_28" />
      <circle id="station-liuzhangli-74" data-lines="br=1996_03_28" cx="2036.645" cy="2258.677" r="5.06" inkscape:label="Liuzhangli=1996_03_28" />
      <circle id="station-dazhi-75" data-lines="br=2009_07_04" cx="1947.939" cy="1386.814" r="5.06" inkscape:label="Dazhi=2009_07_04" />
      <circle id="station-neihu-76" data-lines="br=2009_07_04" cx="2617.599" cy="1322.512" r="5.06" inkscape:label="Neihu=2009_07_04" />
      <circle id="station-wende-77" data-lines="br=2009_07_04" cx="2486.101" cy="1403.254" r="5.06" inkscape:label="Wende=2009_07_04" />
      <circle id="station-gangqian-78" data-lines="br=2009_07_04" cx="2346.562" cy="1380.975" r="5.06" inkscape:label="Gangqian=2009_07_04" />
      <circle id="station-xihu-79" data-lines="br=2009_07_04" cx="2227.965" cy="1348.156" r="5.06" inkscape:label="Xihu=2009_07_04" />
      <circle id="station-jiannan-road-80" data-lines="br=2009_07_04" cx="2068.85" cy="1307.54" r="5.06" inkscape:label="Jiannan_Road=2009_07_04" />
      <circle id="station-songshan-airport-81" data-lines="br=2009_07_04" cx="2011.347" cy="1646.805" r="5.06" inkscape:label="Songshan_Airport=2009_07_04" />
      <circle id="station-xingfu-82" data-lines="y=2020_01_31" cx="712.519" cy="1864.245" r="5.06" inkscape:label="Xingfu=2020_01_31" />
      <circle id="station-xiulang-bridge-83" data-lines="y=2020_01_31" cx="1637.771" cy="2780.422" r="5.06" inkscape:label="Xiulang_Bridge=2020_01_31" />
      <circle id="station-shisizhang-84" data-lines="y=2020_01_31" cx="1673.897" cy="2870.271" r="5.06" inkscape:label="Shisizhang=2020_01_31" />
      <circle id="station-jingping-85" data-lines="y=2020_01_31" cx="1511.657" cy="2752.79" r="5.06" inkscape:label="Jingping=2020_01_31" />
      <circle id="station-banxin-86" data-lines="y=2020_01_31" cx="886.194" cy="2402.638" r="5.06" inkscape:label="Banxin=2020_01_31" />
      <circle id="station-qiaohe-87" data-lines="y=2020_01_31" cx="1145.666" cy="2562.434" r="5.06" inkscape:label="Qiaohe=2020_01_31" />
      <circle id="station-zhonghe-88" data-lines="y=2020_01_31" cx="1233.153" cy="2594.819" r="5.06" inkscape:label="Zhonghe=2020_01_31" />
      <circle id="station-zhongyuan-89" data-lines="y=2020_01_31" cx="1057.147" cy="2503.291" r="5.06" inkscape:label="Zhongyuan=2020_01_31" />
      <circle id="station-new-taipei-industrial-park-90" data-lines="y=2020_01_31" cx="710.24" cy="1688.7" r="5.06" inkscape:label="New_Taipei_Industrial_Park=2020_01_31" />
      <circle id="station-taipei-zoo-91" data-lines="br=1996_03_28" cx="2411.5" cy="2652.4" r="5.06" inkscape:label="Taipei_Zoo=1996_03_28" />
      <circle id="station-minquan-west-road-92" data-lines="r=1997_03_28-2010_11_03" cx="1553.7" cy="1650.4" r="5.06" inkscape:label="Minquan_West_Road=1997_03_28-2010_11_03" />
      <rect id="station-minquan-west-road-93" data-lines="r=2010_11_03,xinlu=2010_11_03-2012_09_30,o=2012_09_30" x="-5.060" y="-7.060" width="10.120" height="14.120" rx="5.060" transform="translate(1553.700,1650.400) rotate(159.8624)" inkscape:label="Minquan_West_Road=2010_11_03" />
      <circle id="station-taipei-nangang-exhibition-center-94" data-lines="br=2009_07_04-2011_02_27" cx="2951.5" cy="1771.8" r="5.06" inkscape:label="Taipei_Nangang_Exhibition_Center=2009_07_04-2011_02_27" />
      <rect id="station-taipei-nangang-exhibition-center-95" data-lines="bl=2011_02_27,br=2011_02_27" x="-5.060" y="-7.060" width="10.120" height="14.120" rx="5.060" transform="translate(2951.500,1771.800) rotate(-104.3048)" inkscape:label="Taipei_Nangang_Exhibition_Center=2011_02_27" />
      <circle id="station-dongmen-96" data-lines="o=2012_09_30-2013_11_24" cx="1686.9" cy="2101.3" r="5.06" inkscape:label="Dongmen=2012_09_30-2013_11_24" />
      <rect id="station-dongmen-97" data-lines="o=2013_11_24,r=2013_11_24" x="-5.060" y="-7.060" width="10.120" height="14.120" rx="5.060" transform="translate(1686.900,2101.300) rotate(-81.9502)" inkscape:label="Dongmen=2013_11_24" />
      <rect id="station-beitou-98" data-lines="r=1997_03_28,xinbeitou=1997_03_28" x="-5.060" y="-7.060" width="10.120" height="14.120" rx="5.060" transform="translate(1251.600,572.290) rotate(-35.7581)" inkscape:label="Beitou=1997_03_28" />
      <circle id="station-dapinglin-99" data-lines="g=1999_11_11-2020_01_31" cx="1870.9" cy="2895.3" r="5.06" inkscape:label="Dapinglin=1999_11_11-2020_01_31" />
      <rect id="station-dapinglin-100" data-lines="g=2020_01_31,y=2020_01_31" x="-5.060" y="-7.060" width="10.120" height="14.120" rx="5.060" transform="translate(1870.900,2895.300) rotate(88.6536)" inkscape:label="Dapinglin=2020_01_31" />
      <circle id="station-daan-101" data-lines="br=1996_03_28-2013_11_24" cx="1899.5" cy="2109.1" r="5.06" inkscape:label="Daan=1996_03_28-2013_11_24" />
      <rect id="station-daan-102" data-lines="br=2013_11_24,r=2013_11_24" x="-5.060" y="-7.060" width="10.120" height="14.120" rx="5.060" transform="translate(1899.500,2109.100) rotate(0.8438)" inkscape:label="Daan=2013_11_24" />
      <circle id="station-jingan-103" data-lines="o=1998_12_24-2020_01_31" cx="1354" cy="2733.6" r="5.06" inkscape:label="Jingan=1998_12_24-2020_01_31" />
      <rect id="station-jingan-104" data-lines="o=2020_01_31,y=2020_01_31" x="-5.060" y="-7.060" width="10.120" height="14.120" rx="5.060" transform="translate(1354.000,2733.600) rotate(-173.9815)" inkscape:label="Jingan=2020_01_31" />
      <circle id="station-touqianzhuang-105" data-lines="xinlu=2012_01_05-2012_09_30,o=2012_09_30-2020_01_31" cx="722.1" cy="2026.1" r="5.06" inkscape:label="Touqianzhuang=2012_01_05-2020_01_31" />
      <rect id="station-touqianzhuang-106" data-lines="o=2020_01_31,y=2020_01_31" x="-5.060" y="-7.060" width="10.120" height="14.120" rx="5.060" transform="translate(722.100,2026.100) rotate(56.0880)" inkscape:label="Touqianzhuang=2020_01_31" />
      <circle id="station-zhongxiao-fuxing-107" data-lines="br=1996_03_28-1999_12_24" cx="1901.9" cy="1980.3" r="5.06" inkscape:label="Zhongxiao_Fuxing=1996_03_28-1999_12_24" />
      <rect id="station-zhongxiao-fuxing-108" data-lines="bl=1999_12_24,br=1999_12_24" x="-5.060" y="-7.060" width="10.120" height="14.120" rx="5.060" transform="translate(1901.900,1980.300) rotate(-88.8454)" inkscape:label="Zhongxiao_Fuxing=1999_12_24" />
      <circle id="station-ximen-109" data-lines="bl=1999_12_24-2000_08_31" cx="1401.5" cy="1974.6" r="5.06" inkscape:label="Ximen=1999_12_24-2000_08_31" />
      <rect id="station-ximen-110" data-lines="bl=2000_08_31,xiaonanmen=2000_08_31-2014_11_15,g=2014_11_15" x="-5.060" y="-7.060" width="10.120" height="14.120" rx="5.060" transform="translate(1401.500,1974.600) rotate(-165.4800)" inkscape:label="Ximen=2000_08_31" />
      <circle id="station-zhongxiao-xinsheng-111" data-lines="bl=1999_12_24-2010_11_03" cx="1746.7" cy="1969.6" r="5.06" inkscape:label="Zhongxiao_Xinsheng=1999_12_24-2010_11_03" />
      <rect id="station-zhongxiao-xinsheng-112" data-lines="bl=2010_11_03,xinlu=2010_11_03-2012_09_30,o=2012_09_30" x="-5.060" y="-7.060" width="10.120" height="14.120" rx="5.060" transform="translate(1746.700,1969.600) rotate(-179.3463)" inkscape:label="Zhongxiao_Xinsheng=2010_11_03" />
      <circle id="station-qizhang-113" data-lines="g=1999_11_11-2004_09_29" cx="1893.4" cy="3004.2" r="5.06" inkscape:label="Qizhang=1999_11_11-2004_09_29" />
      <rect id="station-qizhang-114" data-lines="g=2004_09_29,xiaobitan=2004_09_29" x="-5.060" y="-7.060" width="10.120" height="14.120" rx="5.060" transform="translate(1893.400,3004.200) rotate(3.4345)" inkscape:label="Qizhang=2004_09_29" />
      <circle id="station-hongshulin-115" data-lines="r=1997_03_28" cx="690.35" cy="229.5" r="5.06" inkscape:label="Hongshulin=1997_03_28" />
      <circle id="station-taipei-main-station-116" data-lines="r=1997_12_25-1999_12_24" cx="1529.1" cy="1910.7" r="5.06" inkscape:label="Taipei_Main_Station=1997_12_25-1999_12_24" />
      <rect id="station-taipei-main-station-117" data-lines="bl=1999_12_24,r=1999_12_24" x="-5.060" y="-7.060" width="10.120" height="14.120" rx="5.060" transform="translate(1529.100,1910.700) rotate(-155.7746)" inkscape:label="Taipei_Main_Station=1999_12_24" />
      <circle id="station-beimen-118" data-lines="g=2014_11_15" cx="1426.2" cy="1862.2" r="5.06" inkscape:label="Beimen=2014_11_15" />
      <circle id="station-songshan-119" data-lines="g=2014_11_15" cx="2379.3" cy="1847.4" r="5.06" inkscape:label="Songshan=2014_11_15" />
      <circle id="station-nanjing-fuxing-120" data-lines="br=1996_03_28-2014_11_15" cx="1904.8" cy="1821" r="5.06" inkscape:label="Nanjing_East_Road=1996_03_28-2014_11_15" />
      <rect id="station-nanjing-fuxing-121" data-lines="br=2014_11_15,g=2014_11_15" x="-5.060" y="-7.060" width="10.120" height="14.120" rx="5.060" transform="translate(1904.800,1821.000) rotate(1.1156)" inkscape:label="Nanjing_Fuxing=2014_11_15" />
      <rect id="station-guting-122" data-lines="g=1998_12_24,o=1998_12_24" x="-5.060" y="-7.060" width="10.120" height="14.120" rx="5.060" transform="translate(1603.400,2213.300) rotate(146.0691)" inkscape:label="Guting=1998_12_24" />
      <rect id="station-chiang-kai-shek-memorial-hall-123" data-lines="g=1998_12_24,r=1998_12_24,xiaonanmen=2000_08_31-2014_11_15" x="-5.060" y="-7.060" width="10.120" height="14.120" rx="5.060" transform="translate(1530.000,2105.000) rotate(145.5708)" inkscape:label="Chiang_Kai-shek_Memorial_Hall=1998_12_24" />
      <circle id="station-songjiang-nanjing-124" data-lines="xinlu=2010_11_03-2012_09_30,o=2012_09_30-2014_11_15" cx="1748.4" cy="1819" r="5.06" inkscape:label="Songjiang_Nanjing=2010_11_03-2014_11_15" />
      <rect id="station-songjiang-nanjing-125" data-lines="g=2014_11_15,o=2014_11_15" x="-5.060" y="-7.060" width="10.120" height="14.120" rx="5.060" transform="translate(1748.400,1819.000) rotate(90.2582)" inkscape:label="Songjiang_Nanjing=2014_11_15" />
      <circle id="station-nangang-126" data-lines="bl=2008_12_25" cx="2801.3" cy="1812.8" r="5.06" inkscape:label="Nangang=2008_12_25" />
      <circle id="station-zhongshan-127" data-lines="r=1997_03_28-2014_11_15" cx="1569" cy="1810.1" r="5.06" inkscape:label="Zhongshan=1997_03_28-2014_11_15" />
      <rect id="station-zhongshan-128" data-lines="g=2014_11_15,r=2014_11_15" x="-5.060" y="-7.060" width="10.120" height="14.120" rx="5.060" transform="translate(1569.000,1810.100) rotate(-176.9438)" inkscape:label="Zhongshan=2014_11_15" />
      <circle id="station-sanchong-129" data-lines="xinlu=2012_01_05-2012_09_30,o=2012_09_30" cx="1053" cy="1764.4" r="5.06" inkscape:label="Sanchong=2012_01_05" />
      <circle id="station-xinpu-minsheng-130" data-lines="y=2020_01_31" cx="809.507" cy="2227.992" r="5.06" inkscape:label="Xinpu_Minsheng=2020_01_31" />
      <circle id="station-xinpu-131" data-lines="bl=2000_08_31" cx="830.057" cy="2270.522" r="5.06" inkscape:label="Xinpu=2000_08_31" />
      <circle id="station-banqiao-132" data-lines="y=2020_01_31" cx="783.56" cy="2398.1" r="5.06" inkscape:label="Banqiao=2020_01_31" />
      <circle id="station-banqiao-133" data-lines="bl=2006_05_31" cx="744.1" cy="2425.3" r="5.06" inkscape:label="Banqiao=2006_05_31" />
    </g>
  </g>
</svg>
