<?xml version="1.0" encoding="UTF-8"?>
<svg version="1.1" xmlns="http://www.w3.org/2000/svg" width="800" height="620">
<path d="M0 0 C60.06 0 120.12 0 182 0 C186.95 9.24 191.9 18.48 197 28 C201.08687411 35.59507577 205.17440054 43.18976213 209.26611328 50.78222656 C212.17870265 56.18745437 215.0892423 61.59378568 218 67 C219.16665696 69.16667189 220.33332363 71.33333856 221.5 73.5 C223.83333333 77.83333333 226.16666667 82.16666667 228.5 86.5 C229.36612915 88.1085083 229.36612915 88.1085083 230.24975586 89.74951172 C231.41727515 91.91778509 232.58475557 94.08607938 233.75219727 96.25439453 C236.65550171 101.64665028 239.5594645 107.03854935 242.46484375 112.4296875 C248.17367191 123.02444968 253.87393169 133.62367821 259.55435181 144.23370361 C264.18988638 152.89202711 268.82612192 161.54997932 273.47631836 170.20043945 C274.64537028 172.37521394 275.81288782 174.55081403 276.97875977 176.72729492 C279.71310742 181.81795712 282.48416941 186.87966571 285.35546875 191.89453125 C286.13712402 193.27125 286.13712402 193.27125 286.93457031 194.67578125 C287.90719002 196.38213161 288.89150249 198.08189225 289.88964844 199.7734375 C290.31665039 200.52496094 290.74365234 201.27648437 291.18359375 202.05078125 C291.56056396 202.69700439 291.93753418 203.34322754 292.32592773 204.0090332 C293.50295347 207.48554349 292.38034255 210.14483934 290.93457031 213.39550781 C290.48694336 214.23952148 290.03931641 215.08353516 289.578125 215.953125 C288.79864502 217.4376416 288.79864502 217.4376416 288.00341797 218.95214844 C287.13547607 220.58458496 287.13547607 220.58458496 286.25 222.25 C284.96492218 224.69728506 283.68110655 227.14520427 282.3984375 229.59375 C281.87873886 230.58359894 281.87873886 230.58359894 281.34854126 231.59344482 C277.24593041 239.41609347 273.2267957 247.28133603 269.20608521 255.14630127 C267.40807128 258.66334627 265.60831883 262.17950058 263.80867004 265.69570923 C262.89597566 267.47901047 261.98336805 269.26235613 261.07084656 271.04574585 C256.32296711 280.32467804 251.56874643 289.60035431 246.8125 298.875 C246.39909363 299.68118774 245.98568726 300.48737549 245.55975342 301.31799316 C238.98402599 314.14058136 232.39847231 326.95809672 225.80151367 339.76977539 C222.24570561 346.67713182 218.69682078 353.58788655 215.16534424 360.50772095 C213.41200792 363.94332339 211.65663417 367.37788363 209.90136719 370.8125 C209.07376205 372.43351695 208.24720003 374.05506706 207.421875 375.67724609 C200.85039478 388.59294285 193.94441669 401.26856939 187 414 C127.27 414 67.54 414 6 414 C7.25168446 410.24494662 8.30128456 407.14634806 10.03125 403.70703125 C10.43085937 402.90974609 10.83046875 402.11246094 11.2421875 401.29101562 C11.65726563 400.47310547 12.07234375 399.65519531 12.5 398.8125 C12.88414062 398.04486328 13.26828125 397.27722656 13.6640625 396.48632812 C16.57836275 390.69896773 19.5944636 384.96732414 22.62109375 379.23828125 C27.85273869 369.32880983 32.95478671 359.35528007 38.03820801 349.36914062 C40.67490498 344.18992196 43.31598641 339.01294006 45.95703125 333.8359375 C46.47973602 332.81119324 47.0024408 331.78644897 47.54098511 330.73065186 C51.92314681 322.14298042 56.32883713 313.56764605 60.75 305 C62.10297525 302.37766124 63.45586443 299.75527813 64.80859375 297.1328125 C65.14468658 296.48125183 65.48077942 295.82969116 65.82705688 295.15838623 C71.00519258 285.11576489 76.15864346 275.06041493 81.30688477 265.00244141 C85.27276234 257.25627973 89.24662395 249.51458848 93.25111389 241.78829956 C95.11739927 238.18649615 96.97919173 234.58237921 98.84066772 230.97808838 C99.7319994 229.2553682 100.62554274 227.53379037 101.52139282 225.81341553 C102.76336675 223.42794838 103.99768922 221.0386659 105.23046875 218.6484375 C105.5992514 217.94505249 105.96803406 217.24166748 106.34799194 216.51696777 C108.96097506 211.48823837 108.96097506 211.48823837 110 206 C109.15239561 203.40172948 109.15239561 203.40172948 107.67578125 200.81640625 C107.14807129 199.81826904 106.62036133 198.82013184 106.07666016 197.79174805 C105.4944873 196.72609619 104.91231445 195.66044434 104.3125 194.5625 C103.71743652 193.44721924 103.12237305 192.33193848 102.50927734 191.18286133 C100.68821422 187.78001823 98.84716581 184.38873248 97 181 C96.48646973 180.05286133 95.97293945 179.10572266 95.44384766 178.12988281 C93.02692837 173.67224369 90.5962166 169.22240395 88.15625 164.77734375 C84.60265481 158.29135609 81.11224373 151.77182872 77.625 145.25 C76.34773135 142.86193899 75.07037429 140.47392528 73.79296875 138.0859375 C73.47663986 137.49453476 73.16031097 136.90313202 72.83439636 136.29380798 C69.54628632 130.14835592 66.24324031 124.01098153 62.9375 117.875 C62.36330322 116.80910645 61.78910645 115.74321289 61.19750977 114.64501953 C59.46525108 111.42988116 57.73268507 108.21490861 56 105 C48.81828542 91.67469559 41.64456068 78.34526971 34.5 65 C29.63419918 55.9117062 24.76150665 46.8271802 19.875 37.75 C19.30894043 36.69820557 18.74288086 35.64641113 18.15966797 34.56274414 C15.19584939 29.06038739 12.22160277 23.56390488 9.234375 18.07421875 C8.32582764 16.40311035 8.32582764 16.40311035 7.39892578 14.69824219 C6.23771298 12.56375855 5.07469645 10.43025495 3.90966797 8.29785156 C3.39549316 7.35264648 2.88131836 6.40744141 2.3515625 5.43359375 C1.89604004 4.59884521 1.44051758 3.76409668 0.97119141 2.90405273 C0 1 0 1 0 0 Z " fill="#CF0037" transform="translate(507,0)"/>
<path d="M0 0 C1.04618678 0.00436926 1.04618678 0.00436926 2.11350864 0.00882679 C3.21734942 0.00754515 3.21734942 0.00754515 4.34349 0.00623763 C6.82792449 0.00458063 9.31229258 0.01010775 11.79672092 0.01555592 C13.57024487 0.01583777 15.34376894 0.0156801 17.11729282 0.01511341 C21.9476682 0.01482535 26.77801897 0.02072341 31.6083886 0.02768737 C36.6506112 0.03391955 41.6928343 0.0345246 46.73506016 0.03571278 C56.2902603 0.0388265 65.84544906 0.04704043 75.40064418 0.05706227 C86.27591236 0.06822215 97.15118108 0.07373354 108.02645355 0.0787577 C130.40422803 0.08922301 152.7819924 0.10682324 175.15975803 0.12908131 C173.65316422 4.79416265 171.80598288 9.1151703 169.59725803 13.48455006 C169.2464719 14.1856641 168.89568577 14.88677815 168.53426975 15.60913807 C167.78974677 17.09517164 167.04328665 18.58023607 166.29501194 20.06438404 C165.18687628 22.26278221 164.08486907 24.46415805 162.98397678 26.66619068 C159.15754667 34.29950215 155.25073965 41.88460391 151.25350803 49.42986256 C145.88149277 59.57690842 140.76243458 69.84461696 135.65975803 80.12908131 C130.59992715 90.32719006 125.52642804 100.50923817 120.19100803 110.56658131 C114.65983688 120.99442245 109.40749538 131.55648801 104.15975803 142.12908131 C97.67021475 155.20353554 91.07862012 168.20744429 84.23586887 181.10088307 C81.78492287 185.72029975 79.36052196 190.35197821 76.97225803 195.00408131 C76.48434788 195.925761 75.99643772 196.84744068 75.49374241 197.79705006 C75.03934788 198.68779225 74.58495334 199.57853443 74.11678928 200.49626881 C73.71436008 201.27083424 73.31193088 202.04539967 72.89730686 202.84343678 C71.60935888 206.83475387 72.86174536 209.47299342 74.55160373 213.19329029 C75.14030246 214.32581227 75.7290012 215.45833424 76.33553928 216.62517506 C76.6564957 217.24611546 76.97745212 217.86705586 77.3081345 218.50681263 C78.3564618 220.53012456 79.41406757 222.54841273 80.47225803 224.56658131 C81.20684857 225.97837347 81.94113955 227.39032154 82.67513889 228.80242115 C87.22787823 237.53998272 91.88861111 246.21359294 96.64925998 254.83977467 C100.78785907 262.36747373 104.73398718 269.98920877 108.65975803 277.62908131 C113.53660037 287.11941896 118.51997393 296.53807807 123.67147678 305.88298756 C128.24713112 314.21459346 132.59835616 322.65707147 136.95126194 331.10662037 C140.57598691 338.12472612 144.28395401 345.08680564 148.09725803 352.00408131 C153.12478672 361.125201 157.92330889 370.35542691 162.6800217 379.61937672 C167.30973121 388.6311366 172.06133532 397.56410524 177.01156467 406.40496022 C180.15975803 412.03767701 180.15975803 412.03767701 180.15975803 413.12908131 C120.09975803 413.12908131 60.03975803 413.12908131 -1.84024197 413.12908131 C-15.38113461 388.30411147 -15.38113461 388.30411147 -20.34024197 378.62908131 C-24.39028702 370.78238551 -28.5192485 362.98958938 -32.77774197 355.25408131 C-37.88880552 345.96740086 -42.77685014 336.57546894 -47.63125759 327.15251881 C-51.25612476 320.13407413 -54.9643122 313.17170457 -58.77774197 306.25408131 C-63.78560843 297.16722685 -68.56662907 287.97263028 -73.30822903 278.74535328 C-77.83473773 269.94189272 -82.48136943 261.21617388 -87.26407009 252.54875904 C-92.2701578 243.43353576 -97.02276341 234.18958551 -101.76602322 224.93572193 C-102.36801541 223.76331959 -102.97000759 222.59091725 -103.59024197 221.38298756 C-104.43328884 219.73580738 -104.43328884 219.73580738 -105.29336697 218.05535084 C-106.56548456 215.64884809 -107.90695084 213.34272972 -109.34024197 211.03142506 C-110.84024197 208.12908131 -110.84024197 208.12908131 -110.53444058 206.16376454 C-109.38949812 202.80795947 -107.75194306 199.68992309 -106.15664822 196.53142506 C-105.78225109 195.78308903 -105.40785397 195.034753 -105.02211148 194.26374012 C-104.22452989 192.67159906 -103.42500336 191.08043106 -102.62368923 189.49016529 C-101.43426958 187.12916371 -100.25094748 184.76519397 -99.06875759 182.40056568 C-94.71561366 173.71462041 -90.26072845 165.08862475 -85.71734768 156.50080067 C-80.98796219 147.54641928 -76.3959063 138.52266572 -71.80203396 129.49822193 C-69.16533699 124.31900327 -66.52425555 119.14202137 -63.88321072 113.96501881 C-63.36050595 112.94027455 -62.83780117 111.91553028 -62.29925686 110.85973316 C-57.91709566 102.27206273 -53.51155757 93.69664783 -49.09024197 85.12908131 C-43.37851496 74.06036927 -37.68514095 62.9824516 -32.00555569 51.89720875 C-25.72928053 39.64866759 -19.45146277 27.40086455 -13.14084011 15.16997486 C-12.4869837 13.9021663 -11.83377539 12.63402326 -11.18124539 11.3655315 C-10.29468787 9.64253251 -9.40543668 7.9209203 -8.51602322 6.19939381 C-8.02013699 5.23791432 -7.52425076 4.27643482 -7.01333767 3.28581959 C-5.06543174 -0.2954085 -4.00387009 0.01267388 0 0 Z " fill="#CF0037" transform="translate(110.84024196863174,206.8709186911583)"/>
<path d="M0 0 C0.7013488 0.00291284 1.4026976 0.00582568 2.12529939 0.00882679 C2.8652768 0.00797237 3.6052542 0.00711794 4.36765516 0.00623763 C6.86590905 0.00458062 9.3640969 0.01010778 11.86234468 0.01555592 C13.64572072 0.01583777 15.42909688 0.0156801 17.21247286 0.01511341 C22.06970682 0.01482535 26.92691632 0.02072343 31.78414458 0.02768737 C36.8543944 0.03391952 41.92464472 0.0345246 46.99489778 0.03571278 C56.60322185 0.03882651 66.21153459 0.04704045 75.81985366 0.05706227 C86.7555802 0.06822212 97.69130726 0.07373353 108.62703806 0.0787577 C131.12922663 0.08922303 153.63140514 0.10682327 176.13358492 0.12908131 C174.67411712 4.65010474 172.90481222 8.79802229 170.70389742 13.00017506 C170.36188295 13.66191227 170.01986849 14.32364949 169.66748995 15.00543934 C168.53507529 17.19452444 167.39675425 19.38048355 166.25858492 21.56658131 C165.45209889 23.12361594 164.64611975 24.6809132 163.84061617 26.23845631 C162.57390472 28.68757461 161.30683404 31.1365009 160.03818697 33.5846172 C155.79580902 41.7715734 151.58889353 49.97653958 147.38596529 58.18379933 C145.28229902 62.29122336 143.17677431 66.39769415 141.07108492 70.50408131 C140.65672182 71.3121674 140.24235872 72.12025349 139.81543916 72.95282704 C135.59504609 81.18179137 131.36491656 89.40573776 127.13358492 97.62908131 C121.25281975 109.058442 115.37947506 120.49157549 109.51477998 131.92919117 C108.26454189 134.36746375 107.01413167 136.805648 105.76371187 139.2438274 C101.85331107 146.86945443 97.94499525 154.49613845 94.04172701 162.1254192 C92.23635796 165.65381416 90.42998219 169.18169326 88.62351412 172.70952564 C87.77002256 174.37699192 86.91701801 176.04470757 86.06455415 177.71269947 C71.96773711 205.29492912 71.96773711 205.29492912 70.13358492 207.12908131 C67.79331367 207.22670355 65.4826011 207.25905735 63.14187044 207.24933583 C62.40189304 207.25019025 61.66191563 207.25104468 60.89951468 207.25192499 C58.40126079 207.253582 55.90307293 207.24805484 53.40482515 207.2426067 C51.62144911 207.24232485 49.83807295 207.24248252 48.05469698 207.2430492 C43.19746301 207.24333726 38.34025351 207.23743919 33.48302525 207.23047525 C28.41277543 207.2242431 23.34252511 207.22363802 18.27227205 207.22244984 C8.66394799 207.21933611 -0.94436476 207.21112217 -10.55268383 207.20110035 C-21.48841036 207.18994049 -32.42413742 207.18442909 -43.35986823 207.17940491 C-65.8620568 207.16893959 -88.36423531 207.15133935 -110.86641508 207.12908131 C-108.70627208 200.55302758 -108.70627208 200.55302758 -107.08907133 197.42327076 C-106.57472784 196.42006039 -106.57472784 196.42006039 -106.04999357 195.39658314 C-105.68003767 194.68569035 -105.31008177 193.97479756 -104.92891508 193.24236256 C-104.5370854 192.48099491 -104.14525572 191.71962727 -103.74155241 190.93518788 C-102.45381923 188.43524417 -101.16010957 185.93844454 -99.86641508 183.44158131 C-98.95770919 181.6799171 -98.04943077 179.91803232 -97.14156157 178.15593678 C-95.28230939 174.54869863 -93.42081672 170.94263137 -91.55733305 167.3375774 C-88.03226287 160.5170297 -84.52177865 153.6890037 -81.0119229 146.86061817 C-79.91831976 144.73347257 -78.82408933 142.60665072 -77.72969633 140.47991139 C-71.92775433 129.20355507 -66.14512019 117.91736004 -60.36641508 106.62908131 C-53.1365109 92.50599109 -45.89331484 78.38986253 -38.63106352 64.28337818 C-34.5816843 56.41639439 -30.54137484 48.54485521 -26.51094633 40.66814381 C-25.60283788 38.89421122 -24.69471621 37.1202854 -23.7865811 35.34636647 C-22.46863274 32.77184326 -21.1511555 30.19708569 -19.83537871 27.62145191 C-5.73402381 0.01805056 -5.73402381 0.01805056 0 0 Z " fill="#CF0037" transform="translate(366.86641508340836,206.8709186911583)"/>
</svg>
