<?xml version="1.0" encoding="UTF-8" standalone="no"?>
<svg
   viewBox="0 0 1038 950"
   width="1557"
   height="1425"
   version="1.1"
   id="svg203"
   sodipodi:docname="map.svg"
   inkscape:version="1.4.2 (f4327f4, 2025-05-13)"
   xmlns:inkscape="http://www.inkscape.org/namespaces/inkscape"
   xmlns:sodipodi="http://sodipodi.sourceforge.net/DTD/sodipodi-0.dtd"
   xmlns:xlink="http://www.w3.org/1999/xlink"
   xmlns="http://www.w3.org/2000/svg"
   xmlns:svg="http://www.w3.org/2000/svg"
   xmlns:rdf="http://www.w3.org/1999/02/22-rdf-syntax-ns#"
   xmlns:cc="http://creativecommons.org/ns#"
   xmlns:dc="http://purl.org/dc/elements/1.1/"
   style="background:white">
  <sodipodi:namedview
     id="namedview203"
     pagecolor="#ffffff"
     bordercolor="#000000"
     borderopacity="0.25"
     inkscape:showpageshadow="2"
     inkscape:pageopacity="0.0"
     inkscape:pagecheckerboard="0"
     inkscape:deskcolor="#d1d1d1"
     showgrid="false"
     inkscape:zoom="2.2766358"
     inkscape:cx="1293.1361"
     inkscape:cy="989.83772"
     inkscape:window-width="2256"
     inkscape:window-height="1398"
     inkscape:window-x="-11"
     inkscape:window-y="-11"
     inkscape:window-maximized="1"
     inkscape:current-layer="layer3" />
  <style
     type="text/css"
     id="style1">
.text {font-family:Liberation Sans,Arimo,Helvetica,Arial,sans-serif}
.title {font-weight:bold;font-family:Adobe Garamond Pro,Garamond,Linux Libertine O,Liberation Serif,Times,TimesNewRomanPSMT,serif}
.line {fill:none;stroke-width:3;stroke-linecap:round;stroke-linejoin:round}
.ae {stroke:#00888a}
.dn {stroke:#f173ac}
.er {stroke:#53b7e8}
.il {stroke:#007dc5}
.kt {stroke:#00ab4e}
.tm {stroke:#923011}
.sie {stroke:#bac429}
.tko {stroke:#7d499d}
.tw {stroke:#ed1d24}
.tc {stroke:#f7943e}
.wr {stroke:#a3238f}
.path {stroke-width:2;fill:none}
.narrow {stroke-width:1;fill:none}
.lr {stroke:#d3a809}
.np {stroke:#94989a}
	</style>
  <defs
     id="defs1">
    <path
       d="m 8,0 -8,4 0,18 11,5 0,21 8,0 L 19,27 30,22 30,4 22,0 22,16 15,20 8,16 8,0"
       transform="matrix(0.212132,0.212132,-0.212132,0.212132,-1.35,-1.8)"
       id="depot"
       style="fill:#fff;stroke:#000;stroke-width:2" />
  </defs>
  <g
     inkscape:groupmode="layer"
     id="zoom-layer"
     inkscape:label="zoom-layer">
    <g
       id="geography"
       inkscape:label="geography"
       fill="#fff"
       pointer-events="none">
      <path
         id="water"
         d="M 0,0 H 1038 V 950 H 0 Z"
         fill="#d3e5ed" />
      <path
         id="newterritories_kowloon"
         d="m 370,134 -13,27 3,7 -8,3 -6,29 -37,24 2,-27 -37,-35 -12,32 -4,20 -19,8 -18,19 -10,16 v 17 l -33,13 -28,15 -4,20 -12,3 -4,28 -20,15 -22,6 -40,8 -30,32 -6,13 16,9 7,-3 5,5 7,9 -3,5 7,17 13,9 1,19 -11,3 -4,14 24,23 12,11 10,-13 8,4 -8,16 14,7 3,-4 24,5 3,-7 -4,-10 11,-7 21,-15 37,7 -12,-23 -4,-9 1,-8 9,-8 4,-21 14,-31 -11,33 -4,20 -9,8 -1,6 5,9 18,-7 16,9 v 4 l 12,8 8,26 18,-1 5,11 6,1 20,-10 20,6 7,16 32,5 25,-7 1,-4 18,-6 5,2 32,-17 15,8 14,1 v -4 l 7,-8 11,1 h 5 l 3,-7 20,6 h 11 l 7,-2 h 11 l 15,-12 13,12 9,13 -2,11 5,1 6,13 -5,6 4,4 v 11 h 6 l 6,-2 9,29 13,-2 2,4 -11,5 6,23 19,-7 3,8 -31,9 -7,10 22,13 11,4 v 7 h 3 l 1,-13 7,-1 1,7 -5,4 8,-3 v -6 l 11,6 9,-16 4,-1 v -3 l -5,-4 -9,4 -3,-3 5,-6 v -3 l -5,-1 v -2 l 13,-1 23,17 v 13 l 12,1 1,29 -6,9 h -6 v -8 l -1,-2 -2,-1 1,3 v 22 l 11,1 1,-3 7,-1 4,-4 10,-1 v 6 l -4,1 v 1 l 5,-1 v 3 l -5,1 1,1 4,-1 v 3 l -4,2 h 1 l 5,-1 v 2 l -9,3 2,4 h 4 l 4,-2 2,4 16,-1 5,-3 -1,-5 12,-10 h 5 v 8 l 2,-1 v -8 l 4,3 23,-11 2,-17 -5,-2 3,-4 -3,-5 v -7 l 9,-18 55,51 5,-5 -6,-5 v -5 l -4,-3 -6,-1 -15,-15 3,-4 10,8 7,-5 18,19 -5,6 4,-1 3,-3 1,5 5,1 -2,3 35,40 5,6 -2,2 18,8 14,-20 21,-23 18,-1 8,-14 2,-1 -10,18 2,3 v 2 l 8,5 v 13 h 11 l -1,7 -11,17 1,4 -5,10 -3,10 h 3 l 1,9 h 1 l 1,-5 3,-1 1,8 2,-2 1,-7 h 4 l 1,8 2,4 h -5 v 4 l 12,20 3,-2 h 5 l 14,-10 12,4 V 669 l -26,3 -10,-2 -2,-22 -4,-5 v -6 l -2,-5 -2,-7 h -6 l -4,-13 2,-12 7,-6 -3,-7 -8,2 -5,-10 h -7 v -6 l -23,6 10,-7 11,-5 -7,-9 4,-6 6,4 -1,-8 1,-8 15,4 6,-2 1,13 -10,5 -1,13 3,1 5,-4 h 6 l 6,9 4,9 h 5 v -10 l 3,1 7,-11 -7,-10 h -3 l -2,-5 -4,-4 -5,-15 10,-16 -3,-18 7,-9 17,-4 9,16 V 380 l -26,7 -5,11 h -11 l -8,-11 9,-25 -7,-21 -23,8 -10,4 3,-6 -11,-4 4,6 -24,2 -4,-11 -6,-4 -12,1 -3,4 4,4 v 5 l -14,11 -12,2 -8,9 -9,19 -4,25 1,5 -7,5 -40,47 17,18 -19,-15 -35,36 -14,4 -10,4 8,-5 13,-6 33,-36 -15,-15 18,11 41,-48 -10,-7 5,-35 -1,-10 -21,-16 -11,2 5,-6 -25,-20 h -22 l -25,-15 -1,-9 -11,-7 -19,-1 -13,5 11,-7 h 19 l 10,6 h 11 l 2,-7 14,-1 15,3 15,-5 v -12 l 10,-8 10,7 8,3 6,-1 8,3 -1,6 -11,11 17,3 -2,5 9,-3 -2,-4 h 16 l 7,3 19,-12 7,-15 -5,-3 -10,3 -13,16 -10,2 -8,-5 v -4 l 3,-3 v -2 l -26,-9 -3,-18 14,-22 10,8 v 7 h 14 l 3,6 4,-15 2,3 14,-6 3,5 -4,6 9,1 35,38 -2,19 8,-11 11,-2 13,-6 8,-17 8,-6 9,-11 18,-4 -3,-7 9,-3 26,-9 v -8 l -26,10 -9,1 -6,-2 v -3 l -8,1 v 3 l -11,3 -14,13 v 11 l 12,-3 1,5 -6,4 -5,5 -4,10 -11,-3 7,-2 -6,-3 -9,3 -6,10 -37,-39 2,-10 22,-31 -7,-41 7,16 51,18 -4,6 h 10 l 6,-16 25,-4 26,14 V 94 l -26,-21 -13,5 -24,-1 4,-19 8,-1 -2,-13 -12,10 4,-20 -18,3 4,-10 10,-5 -12,-9 -12,2 -17,-6 -13,1 -16,47 -13,3 -5,-5 -22,6 -9,17 -4,-6 -19,2 -2,-24 11,5 3,-14 22,-16 -11,3 34,-7 v -5 l 6,-5 5,-11 H 679 l -4,12 -8,1 -9,12 -9,-2 -12,11 -9,-2 -33,22 -3,8 -12,5 -9,-5 -11,-10 -21,4 -10,-8 -14,1 -5,11 -18,5 -13,33 -23,6 -15,13 -7,24 -22,9 -12,-6"
         style="stroke-width:0.5;stroke-dasharray:none"
         sodipodi:nodetypes="cccccccccccccccccccccccccccccccccccccccccccccccccccccccccccccccccccccccccccccccccccccccccccccccccccccccccccccccccccccccccccccccccccccccccccccccccccccccccccccccccccccccccccccccccccccccccccccccccccccccccccccccccccccccccccccccccccccccccccccccccccccccccccccccccccccccccccccccccccccccccccccccccccccccccccccccccccccccccccccccccccccccccccccccccccccccccccccccccccccccccccccccccccccccccccccccccccccccccccccccccccccccccccccccccccccccccccccccccccccccccccccccccccccccccccccccccccccccccccc" />
      <path
         id="tsingyi"
         d="m 569,552 3,9 0,14 7,15 2,9 9,45 -8,9 -4,1 0,-1 2,0 0,-2 -8,1 0,5 -8,1 -6,-3 -21,2 -1,4 -9,0 -9,-16 5,-16 5,-4 -1,-2 -7,0 0,-6 3,-1 -1,-4 -3,-3 -15,-2 2,-10 -3,-2 0,-8 -7,-1 -3,-6 0,-8 -1,-3 2,-6 15,-7 5,-3 7,0 0,3 20,1 7,-5"
         style="stroke-width:0.5;stroke-dasharray:none" />
      <path
         id="hongkongisland"
         d="m 602,785 -12,14 1,10 6,3 1,4 11,5 22,41 3,8 12,15 13,2 h 34 l 5,3 10,1 18,17 -4,8 1,7 h 5 v 5 l -3,3 17,12 6,-7 2,-18 12,-20 15,-3 6,6 v 14 l 6,8 -19,-1 -5,4 11,8 10,-4 3,-7 h 5 l 9,-4 8,9 v 8 l -4,4 v 5 l 2,3 -3,6 h -7 l -6,2 6,2 18,10 h 4 l 1,11 -10,3 -1,7 -3,5 6,6 7,-3 v -5 h 12 l 4,-6 -2,-4 11,-4 2,-5 8,13 -1,7 -6,6 v 25 h 31 l -8,-11 -1,-6 -3,-2 v -6 l 3,-1 2,-7 6,-2 -1,-8 -13,-5 -7,-7 2,-12 9,-10 v -5 h 6 l 6,-10 8,9 7,-1 1,-9 -2,-15 -6,-1 -2,-8 11,-2 11,7 1,12 5,44 4,6 6,-2 5,5 1,17 -3,1 4,9 12,4 14,-4 4,5 5,-1 v -3 h 3 l 2,2 h 3 l -2,5 4,1 2,3 h 3 l -1,-8 3,-5 -8,-5 -1,-4 h -2 l -6,3 -3,-2 1,-2 3,-1 -2,-3 v -19 l -10,-25 2,-2 7,2 4,1 h 2 l -2,-3 h 5 l 5,-2 -1,-5 -6,3 -7,-1 -6,-4 4,-11 -7,-10 v -10 h -9 l -1,-4 1,-6 h 4 l 7,-9 4,2 2,-4 v -5 l 7,-16 -5,-7 2,-5 5,-2 -24,-21 -2,3 -4,-4 -2,-8 -4,-7 v 2 l 3,6 -2,2 2,6 -5,5 -5,-9 5,-6 -6,-18 -5,-2 v -4 l -14,-10 -15,-8 -1,1 14,8 -21,3 -1,-8 -14,-11 -12,-2 -27,-13 -16,1 -20,9 -1,7 -6,2 -14,-1 -11,11 -14,5 -2,-10 h -5 l -3,8 c -8,0 -17,-3 -21,-4 l -5,-7 -26,-7 -3,1 v 2 h -3 l -1,-2 h -3 l -3,-2 -21,-1 -11,4 h -9 l -13,12"
         style="stroke-width:0.5;stroke-dasharray:none"
         sodipodi:nodetypes="cccccccccccccccccccccccccccccccccccccccccccccccccccccccccccccccccccccccccccccccccccccccccccccccccccccccccccccccccccccccccccccccccccccccccccccccccccccccccccccccccccccccccccccccccccccccccccccc" />
      <path
         id="apleichau"
         d="m 678,893 -3,2 -5,1 -5,3 0,3 3,0 8,5 1,7 10,2 6,8 14,5 0,8 7,6 3,0 -3,-7 1,-4 -6,-4 0,-2 4,-11 -1,-6 -5,-4 2,-4 0,-5 -6,-2 -11,2 -7,-3"
         style="stroke-width:0.5;stroke-dasharray:none" />
      <path
         id="tsingchau"
         d="m 582,774 -6,4 -1,5 3,4 11,-2 1,-3"
         style="stroke-width:0.5;stroke-dasharray:none" />
      <path
         id="mawan"
         d="m 454,574 -4,7 0,3 -3,3 1,7 10,7 -16,11 -12,-9 2,-5 -9,-5 10,-4 1,-6 -7,-4 8,-6 6,-1 4,4"
         style="stroke-width:0.5;stroke-dasharray:none" />
      <path
         id="lantau"
         d="m 401,591 -3,2 -1,12 -6,5 -1,5 -26,17 -4,1 -4,-4 -12,5 -6,-4 4,7 0,5 -8,0 -1,-5 -14,12 -3,-1 -9,6 1,5 -37,21 -15,20 -12,1 -23,15 -6,9 -60,26 -37,3 -12,12 0,6 -15,15 -13,-8 -3,-18 -12,2 -10,-7 -14,7 -11,-4 -14,7 -8,-5 -6,4 0,160 10,-8 12,23 -16,9 -6,-2 0,16 2,14 27,26 14,5 7,-13 8,0 6,11 28,-10 -1,-18 -23,-9 9,-19 7,6 18,-3 3,-7 47,-18 12,8 13,-4 2,-10 28,-15 22,17 -11,20 18,21 -9,13 19,11 26,-17 11,11 10,0 1,-9 19,-18 8,0 13,-18 -30,-15 -11,4 -31,-23 48,68 -13,-122 -24,-19 13,-14 33,21 20,-4 3,-37 -1,-13 -12,-12 5,-10 0,-7 8,5 14,0 -6,-9 -1,-11 -16,7 -13,-4 1,-8 12,-1 -1,-7 -10,-4 0,-4 4,-4 0,-8 22,0 10,-9 16,14 18,6 14,-5 5,2 8,-4 -6,0 0,-16 7,-4 -8,-8 4,-1 8,-8 4,5 2,-5 -5,-7 7,-18 -4,-3 8,-13 -2,-8 -16,-21"
         style="stroke-width:0.5;stroke-dasharray:none" />
      <path
         id="airport"
         d="m 130,667 -24,7 -5,-9 -101,35 v 19 l 5,12 -5,6 v 17 l 6,2 14,-6 36,1 41,13 17,-13 -3,-5 0.5,-11 6.25,-2 2,-14 -4.14062,-9.6 7.4,-10.8 13.9,-3.8 26.4,11.4 4.9,-1 7.1,-25.9 0.86,-9.1 -4.9,-0.6 -0.14,5.36 -27.4,-5.6 L 134.875,690.875 122.75,694.75 133,676"
         style="stroke-width:0.5;stroke-dasharray:none" />
      <path
         id="lammaisland"
         d="m 597,909 -6,6 -17,5 -12,10 11,8 -7,4 1,8 3,2 -3,8 -8,8 -7,4 -1,9 34,0 0,-12 16,5 3,27 -4,7 4,4 1,12 70,0 4,-6 4,0 0,-6 5,0 8,6 5,0 11,-10 0,-8 -5,-8 -15,11 -3,-14 -29,17 -9,-6 -13,5 -10,11 -6,-8 2,-9 19,-11 5,-7 0,-9 -6,-6 0,-5 5,-4 0,-5 -5,-3 -7,4 0,5 3,3 0,6 -8,6 -6,-1 -5,-11 0,-12 -15,-8 0,-10 6,-5 0,-10"
         style="stroke-width:0.5;stroke-dasharray:none" />
      <path
         id="cheungchau"
         d="m 372,958 -8,5 -3,-1 -7,0 -8,5 -3,6 4,1 0,5 -5,7 -4,-2 -2,4 7,5 7,0 5,5 1,7 -3,4 -14,3 -5,8 -3,1 -1,3 28,0 2,-3 6,0 2,-3 6,6 5,0 0,-4 6,-1 2,-6 4,-2 0,-2 -4,-2 -3,-5 -8,4 -10,-4 -7,-11 2,-8 17,-6 -3,-2 -8,1 0,-3 10,-9"
         style="stroke-width:0.5;stroke-dasharray:none" />
      <path
         id="heilingchau"
         d="m 392,856 -34,0 -9,5 7,11 10,-3 7,14 7,-1 5,10 0,9 14,7 7,-16 -8,-11 2,-8 1,-10"
         style="stroke-width:0.5;stroke-dasharray:none" />
      <path
         id="sunshineisland"
         d="m 427,837 -12,3 -2,3 -8,4 -1,4 -2,2 2,5 3,1 2,3 6,0 4,-5 4,0 5,-6 0,-3 4,-5"
         style="stroke-width:0.5;stroke-dasharray:none" />
      <path
         id="shenzhen"
         style="fill:#eee;stroke-width:0.5;stroke-dasharray:none"
         d="m 0,0 677,0 -3,10 -8,1 -8,11 -8,-1 -13,11 -9,-2 -35,23 -3,8 -10,4 -8,-5 -11,-10 -22,4 -10,-8 -16,2 -5,10 -18,5 -13,33 -22,6 -18,11 -8,25 -17,7 -11,-6 -30,-9 -16,-5 -12,-27 -34,-23 -34,-4 1,10 -13,7 -11,-5 -15,6 -93,0 -1,9 4,5 -1,4 -4,3 -3,9 4,6 -2,13 -6,5 3,5 0,8 -3,11 1,10 2,3 -17,8 -15,-6 -2,2 12,12 -8,9 -9,-8 -4,2 -3,14 -25,-7 1,-7 7,0 1,-3 -19,-9 -1,11 -4,4 -11,-2 -3,6 -1,10 -12,7 2,4 -3,6 -6,-6 -6,5 10,10 -16,7 -2,-3 -4,3" />
      <path
         id="pengchau"
         d="m 388,756 -14,10 3,9 3,5 2,3 -3,4 8,9 16,-5 4,-10 -3,-2 0,-6 -6,0 -9,4 -2,-2 3,-5 10,-3 3,-6 -7,-5"
         style="stroke-width:0.5;stroke-dasharray:none" />
    </g>
    <g
       inkscape:groupmode="layer"
       id="lines"
       inkscape:label="lines"
       style="display:inline">
      <path
         id="LRT_pathmain" data-km="25.3"
         class="lr path"
         d="m 218.286,409.824 c 0.35215,-1.50457 -0.51289,-1.49024 -3.09808,-2.45391 -2.81729,-1.05018 -2.14148,4.06959 -3.45874,7.37009 -1.48148,3.71195 -4.43762,7.42026 -8.03069,9.17046 -3.95408,1.92605 -8.74553,1.0724 -13.14267,1.1705 -4.50203,0.10041 -7.09659,-1.87692 -11.04022,-1.53291 -4.25702,0.37135 -5.08768,0.43141 -5.87598,3.60829 -0.46295,1.86571 -0.29632,4.49809 1.24682,5.64435 3.05456,2.26892 6.18106,2.19977 7.91786,4.50683 2.65299,3.67821 0.41181,4.14297 0.70609,7.27003 0.43192,4.58959 0.87617,10.19129 0.82811,14.58684 -0.0185,1.68925 0.2754,7.48477 0.26012,8.91219 -0.094,8.78199 0.35844,6.63275 -1.53948,16.42617 -1.79583,9.26665 -0.39938,6.11236 -3.9599,12.3203 l -8.31971,14.5058 c -1.50857,2.63026 -1.00605,3.07524 0.46218,5.72821 1.42812,2.5805 1.43167,2.91113 3.2127,3.36633 l 12.9955,3.3214 c 0.60824,0.15545 0.48165,0.93664 -0.42097,0.71629 l -2.43497,-0.59442 c -0.86516,-0.2112 -0.73372,-1.00179 -1.27502,-1.15833 -1.10137,-0.31853 -1.63216,1.24438 -0.70967,1.46836 l 8.45258,2.05227 c 1.54579,0.37532 1.50383,1.28363 -3.74893,-13.11102 -0.18231,-0.4996 -0.005,-1.06362 -0.007,-1.59542 l -0.0171,-3.81017 c -0.003,-0.66326 0.29777,-0.99716 0.90119,-1.27251 l 8.1028,-3.69742 c 2.36267,-1.07812 0.0767,-9.34415 2.97474,-9.37675 l 9.15415,-0.10303 c 1.07135,-0.0121 1.77327,-1.39107 1.79227,-2.79859 l 0.34955,-25.92019 c 0.0106,-0.78313 1.23262,-1.48963 1.6566,-1.46229 l 8.19634,0.52847 c 7.7041,0.49673 -1.96631,-22.5914 0.2904,-31.78335 0.5926,-2.41376 2.83718,-5.61173 2.74938,-8.09563 -0.16351,-4.62793 -7.89034,-6.79782 -6.48444,-10.47203 l 1.31433,-3.4349 c 0.81982,-2.14252 2.27266,-3.43535 2.7908,-4.80641 2.342,-6.19734 2.47421,-6.94903 8.88171,-14.96171 26.20586,-32.77088 12.31144,-19.27025 76.46859,-66.18184 C 310.79785,320.67856 315.62887,318.5 324.748,318.5 H 365.5 c 2.41929,0 4.37025,-4.97885 7.5,-5 m -156.87,102.178 -7.6804,23.72254 c -0.99423,3.07089 -3.85472,5.24278 -5.15597,8.1967 -0.41363,0.93896 -0.28447,1.13559 -0.81623,2.96789 -6.30378,-1.49084 -5.62546,-0.78799 -6.53639,-2.91734 l -3.96995,-9.27999 c -0.48581,-1.13562 -0.96869,-1.32858 -2.07151,-1.45449 -1.90632,-0.21765 -5.48476,-0.57864 -7.09555,0.39469 m 19.673,13.257 c 0,0 -1.54875,6.23953 -2.06841,9.16093 -0.27265,1.5328 0.23799,1.8658 1.78303,2.05731 l 6.3686,0.78939 c 1.11967,0.13878 1.96825,0.88167 2.00378,1.97137 m -26.21433,-6.3982 c 0.62554,1.02709 1.33003,1.20077 2.24064,1.28044 l 11.4463,1.00144 c 1.0033,0.0878 2.14659,0.26251 2.61337,0.83065 m 9.56402,29.20567 0.0195,7.05757 c 0.007,2.62968 2.96607,0.31557 5.99442,-0.13828 m 0.74384,-84.12418 -0.84193,2.41903 c -0.32449,0.93232 -0.83858,0.89974 -2.48007,0.16808 -1.90418,-0.84876 -1.77503,-0.56355 -2.49911,0.13178"
         style="display:inline;stroke-width:1;stroke-dasharray:none"
         inkscape:label="KCR_Light_Rail=1988_09_18-2007_12_02,Light_Rail=2007_12_02" />
      <path
         id="LRT_tinshuiwai" data-km="7.0"
         class="lr path"
         d="M 289.767,301.174 l 8.33437,-6.14394 c 0.61896,-0.45628 0.89729,-1.48977 0.4168,-2.42428 l -4.47021,-8.69397 c -1.78847,-3.47833 3.65155,-7.01057 2.7287,-10.81133 -0.99323,-4.0906 -7.12213,-5.50076 -8.1415,-9.58493 -0.88441,-3.54344 4.32586,-7.16844 2.95045,-10.55169 -0.26512,-0.65214 -0.47565,-1.45798 -1.10551,-1.74469 l -8.80947,-4.01001 c -0.80451,-0.36621 -2.71824,0.62498 -3.06021,1.44008 l -4.22871,10.07932 c -1.9839,4.72872 0.20158,10.33528 1.61832,13.55086 l 6.8301,15.50236 c 1.14255,2.59326 3.4308,5.85307 4.55042,8.45631 l 9.21393,21.42335 c 1.22732,2.85365 -5.23398,5.59085 -5.28566,8.50515 l -0.14868,8.38507 M 289.661,265.511 c -0.80522,-0.77117 -1.54242,-0.96255 -2.22266,-0.56977 -3.34731,1.93279 -6.6307,3.35418 -9.978,5.28698 -0.60675,0.35035 -2.00141,0.17266 -2.59576,-0.7185"
         style="display:inline;stroke-width:1;stroke-dasharray:none"
         inkscape:label="KCR_Light_Rail=1993_01_10-2007_12_02,Light_Rail=2007_12_02" />
      <path
         id="LRT_path2" data-km="1.3"
         class="lr narrow"
         d="m 183.8079,446.59068 c -0.37002,1.25629 -0.96103,1.30849 -1.66779,1.33455 -1.11054,0.0409 -0.90763,0.47744 -0.89209,1.60833 0.04,2.91032 -0.6348,2.26235 -0.58999,4.17258 0.0189,0.80357 -0.13448,1.68421 1.8191,1.66964 1.57271,-0.0117 1.86383,1.42028 1.86383,1.42028 m 26.06128,17.62873 c -0.87676,1.973 -1.23569,1.54863 -3.40886,1.60251 -3.22838,0.08 -2.51967,-0.71039 -2.54441,4.22036 -0.0147,2.93261 -0.33339,2.69781 1.7092,2.71095 4.05692,0.0261 3.77743,-0.008 4.13179,-1.19604"
         stroke-width="1"
         style="display:inline;stroke-width:0.5;stroke-dasharray:none"
         inkscape:label="KCR_Light_Rail=1988_09_18-2007_12_02,Light_Rail=2007_12_02" />
      <path
         class="np"
         d="M 114,766 99,760 44,808 6,861"
         fill="none"
         stroke-width="2"
         id="path1" data-km="5.7"
         inkscape:label="Ngong_Ping_360=2006_09_18"
         style="display:inline;stroke-width:1;stroke-dasharray:none" />
      <path
         id="path575" data-km="4.4"
         style="fill:none;stroke-width:1.5;stroke-dasharray:none"
         class="er line"
         d="m 766.64287,724.42736 c 0.008,0.18759 0.0154,0.37842 0.0238,0.57264 0.0417,0.965 0.0461,1.79394 0.0151,2.55698 m 0,0 c -0.0942,2.32144 -0.51629,4.03288 -1.21512,7.10969 -0.74549,3.28224 -1.90967,3.70454 -0.66667,9.86666 L 771.06667,775.6 c 0.96306,4.77433 -1.1147,8.81841 -4.13334,11.6 -2.53697,2.33774 -7.7896,2.63796 -10,2.66667 L 746.66667,790 c -5.65027,0.0734 -11.5391,-0.88318 -16.93334,0.8 C 727.20812,791.58795 723,795 723,795"
         inkscape:label="East_Rail_Line=2022_05_15" />
      <path
         id="lokmachauspur" data-km="6.5"
         class="er line"
         d="m 459.34697,111 c 29.02057,-1.91944 23.78718,5.39701 26.06142,13.27151 3.22139,11.15397 8.49708,9.14781 19.18797,7.41258 8.53474,-1.38527 18.75738,-5.34447 33.82908,-5.42051 l 49.95703,-0.25203 c 6.09346,-0.0307 13.0695,1.99742 18.11753,6.48845"
         style="display:inline;stroke-width:1.5;stroke-dasharray:none"
         inkscape:label="KCR_East_Rail=2007_08_15-2007_12_02,East_Rail_Line=2007_12_02" />
      <path
         id="racecoursespur" data-km="2.1"
         class="er line"
         d="m 833,430 c -2.81619,2.74532 -4.37543,6.26861 -6,10 -2.02344,4.64754 -3.07668,5.99881 -5.5,9 -2.92878,3.62719 -7.50491,8.65387 -9.5,11 -2.77757,3.26629 -9.82593,3.37048 -13,8"
         style="display:inline;stroke-width:1.5;stroke-dasharray:none"
         inkscape:label="KCR_British_Section=1978_10_07-1996_02_01,KCR_East_Rail=1996_02_01-2007_12_02,East_Rail_Line=2007_12_02" />
      <path
         id="path576" data-km="1.2"
         style="display:inline;fill:none;stroke-width:1.5;stroke-dasharray:none"
         class="er line"
         d="m 766.64287,724.42736 c 0.008,0.18759 0.0154,0.37842 0.0238,0.57264 0.0417,0.965 0.0461,1.79394 0.0151,2.55698 m 0,0 c 0.0519,1.31822 -0.17147,2.67765 -1.02393,4.27281 -1.08103,2.02286 -2.92564,4.23267 -3.7271,5.14793 -4.42372,5.05185 -5.47641,5.82367 -12.49414,10.05227"
         inkscape:label="KCR_British_Section=1910_10_01-1975_11_30,KCR_East_Rail=2004_10_24-2007_12_02,East_Rail_Line=2007_12_02-2009_08_16"
         sodipodi:nodetypes="csccssc" />
      <path
         id="path576-5" data-km="1.2"
         style="display:inline;fill:none;stroke:#53b7e8;stroke-width:1.56827;stroke-linecap:round;stroke-linejoin:round;stroke-dasharray:none"
         class="er line"
         d="m 671.53391,183.63507 c -17.99588,-3.45736 -14.64021,3.93394 -11.01768,16.87012"
         inkscape:label="KCR_British_Section=1950_09_11-1983_04_10"
         sodipodi:nodetypes="cc" />
      <path
         id="path574" data-km="34.5"
         class="er line"
         d="m 586.97195,66.725894 c 1.32751,10.905756 5.86337,19.881354 6.36137,33.910606 0.38726,10.9095 2.39085,21.82226 13.16668,31.8635 l 45.42959,42.33266 c 10.78665,10.05133 23.56503,8.08229 31.29647,11.50738 7.30409,3.23577 12.75788,8.85919 11.24292,19.4873 -7.602,53.33152 -3.56435,34.63095 -11.85882,60.43584 -2.27041,7.06346 3.54392,12.19994 6.90961,13.69452 10.69189,4.74786 19.21544,8.73806 21.48023,15.0423 2.89114,8.04774 9.3964,19.723 26,20 12.83027,0.21405 17.95863,1.26978 26,6 l 17,10 c 4.37344,2.57261 9.05456,6.2488 18.99068,6.07899 7.09447,-0.12124 11.64902,1.71153 13.95151,6.40086 1.3878,2.82645 0.76904,7.51193 6.05781,11.52015 l 21,16 c 7.80798,5.94894 9.25217,10.39406 9,15 -0.32468,5.93024 -7.84079,9.33605 -8,15 -0.21139,7.52034 4.88444,10.04134 4,15 -1.07074,6.0032 -6.77168,10.55807 -12,14 -5.63466,3.70943 -10.65204,4.47669 -16.77519,12.53828 L 806,456 c -0.70194,0.92416 -0.67377,2.18978 -7,12 -1.89634,2.94069 -8.83498,12.92201 -11,16 -2.94856,4.19195 -5.27944,8.77394 -8,13 -1.32678,2.06099 -2.23702,8.82122 -11,17 l -15,14 c -10.02314,9.35493 -21.48342,16.1061 -17.50647,37.34387 l 9.40341,50.21618 c 0.76161,4.06712 2.36431,6.96398 3.43012,8.46566 2.97468,4.19118 6.9633,14.63135 4.30492,23.22019 C 748.89821,662.53997 744.56279,665.56932 745,673 c 0.30181,5.12948 0.6728,7.1473 1.42375,9.84897 l 2.9931,10.76823 c 1.44031,5.18176 9.60172,11.59406 12.50075,15.3144 4.69554,6.0258 4.44604,8.52406 4.72527,15.49576"
         style="display:inline;fill:none;stroke-width:1.5;stroke-dasharray:none"
         inkscape:label="KCR_British_Section=1910_10_01-1996_02_01,KCR_East_Rail=1996_02_01-2007_12_02,East_Rail_Line=2007_12_02" />
      <path
         id="disneyline" data-km="3.3"
         class="dn line"
         d="m 349.569,652.696 c 5.9216,-3.71283 8.92886,-5.3686 10.431,-6.696 8.87854,-7.84572 15.37249,4.20171 14,11 -2.46772,12.22314 -3.38805,36.10266 27,35"
         inkscape:label="Disneyland_Resort_Line=2005_08_01"
         style="stroke-width:1.5;stroke-dasharray:none" />
      <path
         id="tungchungline" data-km="31.1"
         class="tc line"
         d="m 116.80148,771.21646 c 7.72453,-7.6013 11.01664,-12.46873 15.19963,-13.14975 l 12.31196,-2.00447 c 10.26297,-1.67088 13.32062,-11.28895 40.86637,-17.53855 19.37856,-4.39663 22.20078,-4.20626 34.46982,-12.16462 l 40.19949,-26.07555 c 8.23545,-5.34195 6.79086,-16.48625 20.21838,-22.66339 l 30.3815,-13.97658 c 6.92981,-3.18796 20.03455,0.34475 26.98556,-2.70408 2.68028,-1.17562 9.89571,-5.84172 12.13491,-8.24341 4.8747,-5.22845 2.99871,-2.61339 7.93155,-8.00941 4.79285,-5.24289 5.6371,-7.89937 9.49935,-10.68665 22.22096,-16.03627 17.62425,-11.97941 34.9906,-12.50484 4.74174,-0.14347 13.25569,-3.89887 19.00622,-7.61026 l 19.33264,-12.47729 c 3.53277,-2.28005 6.50363,-3.10286 8.55038,-4.16183 L 543.5,569 c 6.50469,-1.94176 15.13407,-3.75551 23.70407,-2.50097 2.12809,0.31153 5.25217,0.99352 7.536,1.71035 l 14.39894,4.51942 c 2.10087,0.6594 4.5172,1.40614 6.79618,2.947 l 13.85071,9.36471 c 4.96641,3.35788 5.47069,6.59659 8.83936,11.31926 12.55395,17.59985 13.98929,26.3215 20.53984,34.62015 8.40322,10.64572 22.99005,11.53835 35.76343,16.67894 5.16658,2.07927 11.89341,6.40882 18.07512,12.46913 10.06389,9.86624 15.87976,20.299 21.12301,31.18763 3.85826,8.01243 6.24251,20.50003 0.61552,32.37082 -1.51327,3.19243 -5.35063,8.18211 -7.74218,10.81356 -12.21491,13.4402 -17.93175,22.61515 -13.40938,34.05953 1.16346,2.94426 8.93088,6.40393 14.36637,8.42828"
         inkscape:label="Tung_Chung_Line=1998_06_22"
         style="stroke-width:1.5;stroke-dasharray:none" />
      <path
         id="path612" data-km="1.3"
         style="stroke-width:1.5;stroke-dasharray:none;fill:none"
         class="ae line"
         d="m 125.91892,671.61862 c -12.02224,3.94078 -23.15429,2.02088 -17.77986,16.0985 m 0,0 c 0.16747,0.43865 0.35095,0.89282 0.55094,1.36319 0.28164,0.66241 0.54674,1.31065 0.79603,1.9453"
         inkscape:label="Airport_Express=2005_12_20" />
      <path
         id="airportexpress_shared_section" data-km="14.9"
         class="ae line"
         style="display:inline;stroke-width:1.5;stroke-linecap:butt;stroke-dasharray:6, 6;stroke-dashoffset:0"
         d="m 219.64926,726.35907 40.19949,-26.07555 c 8.23545,-5.34195 6.79086,-16.48625 20.21838,-22.66339 l 30.3815,-13.97658 c 6.92981,-3.18796 20.03455,0.34475 26.98556,-2.70408 2.68028,-1.17562 9.89571,-5.84172 12.13491,-8.24341 M 367,634 c 22.22096,-16.03627 17.62425,-11.97941 34.9906,-12.50484 4.74174,-0.14347 13.25569,-3.89887 19.00622,-7.61026 l 19.33264,-12.47729 c 3.53277,-2.28005 6.50363,-3.10286 8.55038,-4.16183 L 543.5,569 M 707,734.5 c -12.21491,13.4402 -17.93175,22.61515 -13.40938,34.05953"
         inkscape:label="Airport_Express=1998_07_06" />
      <path
         id="path614" data-km="18.4"
         style="display:inline;fill:none;stroke-width:1.5;stroke-dasharray:none"
         class="ae line"
         d="m 109.48603,691.02561 c 10.40108,26.48002 -6.74367,29.31768 -0.095,52.19706 5.86363,20.17805 22.4022,27.95883 39.15861,15.96394 9.54735,-6.83436 18.47685,-13.55436 36.63192,-17.61942 7.99184,-1.78943 18.66828,-4.7158 34.46798,-15.20819 M 349.569,652.696 c 4.05731,-5.17915 3.5478,-6.87252 6.85079,-10.72682 C 360.67045,637.00903 362.66031,637.26661 367,634 m 176.5,-65 c 9.80864,-1.61988 16.72967,-0.22118 23.4282,0.63491 1.97504,0.25241 4.04323,0.54949 6.08661,1.18662 l 16.56246,5.1642 c 2.12818,0.66357 4.33109,1.39026 6.20506,2.71264 l 12.35802,8.72048 c 3.94274,2.78221 5.60024,7.22314 7.76193,10.10882 10.97766,14.65427 14.39559,27.22878 20.85234,35.06713 9.58705,11.63847 21.05481,11.90775 36.6506,17.64398 4.75969,1.75064 11.94785,6.39577 17.49439,11.67139 7.39186,7.03081 15.30826,19.21896 20.72746,31.15981 4.22582,9.31134 5.67131,16.30272 0.0632,30.70702 -1.27338,3.27062 -2.72709,7.39125 -4.69025,10.723"
         inkscape:label="Airport_Express=1998_07_06" />
      <path
         id="airportexpress" data-km="0.7"
         style="display:inline;fill:none;stroke-width:1.5;stroke-dasharray:none"
         class="ae line"
         d="m 693.59052,768.5595 c 1.39994,3.24631 7.90777,8.88538 13.34337,11.25039"
         inkscape:label="Airport_Express=1998_07_06" />
      <path
         id="southislandline" data-km="7.4"
         class="sie line"
         d="m 723,795 -3,3 c -2,2 -4,5.6 -2,9 l 37,63 c 4.1,7 -3,14 -7,17 -7,5 -4,0 -20,2 l -8,1 c -4,0.5 -8,4 -12,7 -4,3 -5,2 -9,7 -2,2.5 -4,5 -7,5 -3,0 -5,0 -7,-2 l -4,-4"
         inkscape:label="South_Island_Line=2016_12_28"
         style="stroke-width:1.5;stroke-dasharray:none" />
      <path
         id="path623" data-km="3.8"
         style="display:inline;fill:none;stroke-width:1.5;stroke-dasharray:none"
         class="tm line"
         inkscape:label="Tuen_Ma_Line=2021_06_27"
         d="m 810.48615,648.93232 c -7.1476,6.9435 -12.78253,7.79377 -19.48615,10.56768 -7.90156,3.26961 -8.75,7.25 -8.75,11.75 0,4.5 1.75,18.25 -1.5,22.25 -3.25,4 -6.75,4 -8.25,6.75 -1.5,2.75 -9,10.75 -9,15 0,4.0706 0.0326,4.31694 0.15057,9.09161 m 0,0 c 0.005,0.21043 0.0106,0.42965 0.0161,0.65839 0.008,0.34288 0.0113,0.68104 0.009,1.01442" />
      <path
         id="path620" data-km="6.7"
         style="display:inline;fill:none;stroke-width:1.5;stroke-dasharray:none"
         class="tm line"
         inkscape:label="Tuen_Ma_Line_Phase_1=2020_02_14-2021_06_27,Tuen_Ma_Line=2021_06_27"
         d="M 756.81161,529.21484 C 756.54493,529.45845 756.27449,529.71953 756,530 c -0.92379,0.94389 -1.78226,1.77586 -2.602,2.54917 m 0,0 c -2.4947,2.35341 -4.63067,4.16365 -7.157,6.93246 -7.96894,7.96893 -10.6839,19.45056 -1.741,28.39337 l 37.5625,36.25 c 4.44971,4.44971 8.62183,3.58942 15.26428,3.74365 5.1073,0.11859 9.06745,1.9267 13.23853,5.39069 l 11.01819,8.78393 c 4.66284,5.03785 3.6842,10.26007 0.85394,13.01923 l -9.41086,11.14481 m 0,0 -0.7612,0.90145 c -0.60406,0.65122 -1.19667,1.25763 -1.77923,1.82356" />
      <path
         id="west_rail_2" data-km="5.6"
         style="display:inline;fill:none;stroke-width:1.5;stroke-dasharray:none"
         class="tm line"
         inkscape:label="West_Rail_Line=2009_08_16-2021_06_27,Tuen_Ma_Line=2021_06_27"
         d="m 763.67587,726.01442 c -0.0457,7.31762 -2.5348,12.33362 -4.92587,14.48558 -2.5,2.25 -14.25,9.25 -17.25,10.25 -3,1 -7.75,-1.25 -9,-4.5 -1.25,-3.25 -1,-18.75 -2.25,-21.5 -1.25,-2.75 -13.5,-38.5 -19.5,-46.75 -4.22766,-5.81304 -9.69652,-15.10141 -17.01875,-22.1805" />
      <path
         id="path609" data-km="10.4"
         style="display:inline;fill:none;stroke-width:1.5;stroke-dasharray:none"
         class="tm line"
         inkscape:label="Ma_On_Shan_Rail=2004_12_21-2007_12_02,Ma_On_Shan_Line=2007_12_02-2020_02_14,Tuen_Ma_Line_Phase_1=2020_02_14-2021_06_27,Tuen_Ma_Line=2021_06_27"
         d="m 938.8338,358.917 -9.44165,2.25141 c -2.64447,0.63058 -4.14026,3.09066 -5.59112,4.90844 -3.2497,4.07141 -7.0337,2.60547 -22.801,3.92313 -5.99469,0.501 -8.08167,2.82217 -9.67242,7.46173 L 886,393 c -2.04749,5.97162 -3.77057,10.964 -3.77057,10.964 -1.38385,4.75137 0.21228,6.77862 -2.22943,14.036 -1.4483,4.30481 -3.522,8.79639 -5.77594,11.39685 C 868.26331,436.274 860.29193,439.35986 855,445 c -3.44141,3.66782 -8.22693,10.06 -10,15 -1.67847,4.67651 1.76459,10.42865 -4,17 -8.03351,9.15775 -8.51953,9.84912 -16,18 -7.874,8.57965 -10.27673,7.226 -19,17 -3.43196,4.0347 -8.20055,6.7005 -13.43512,7.51068 -1.96651,0.30375 -3.95212,0.46727 -5.94183,0.48932 H 775 c -4.97955,0 -6.11011,2.7547 -9.023,4.30835 -2.85466,1.52254 -5.69059,1.73256 -9.16461,4.90577 m 0,0 -7.8e-4,7.2e-4" />
      <path
         id="west_rail_1" data-km="29.7"
         style="stroke-width:1.5;stroke-dasharray:none;fill:none"
         class="tm line"
         d="m 693.73125,655.8195 c -0.52727,-0.50976 -1.06415,-1.00807 -1.61087,-1.49279 m 0,0 C 689.48421,651.98946 686.6193,649.9679 683.5,648.5 c -12.75,-6 -28.75,-9.25 -31.75,-11.75 -3,-2.5 -6.5,-4.5 -6.75,-8 -0.25,-3.5 -0.5,-10.25 -3.75,-16.5 C 638,606 629,584.75 619.75,576.25 610.5,567.75 612,569 608,567 c -4,-2 -7.5,-2.75 -10.75,-4.75 -3.25,-2 -17.5,-17 -23.75,-23.75 -6.25,-6.75 -92.25,-123.75 -96.5,-129.75 -4.25,-6 -11.25,-14.25 -13,-23.5 -1.75,-9.25 -4.5,-22.75 -5.75,-27 C 457,354 455.25,348.75 450,343 444.75,337.25 432.5,317.5 428.25,313.75 424,310 419.5,308 413.75,308.5 c -5.75,0.5 -32,3 -37.25,3 -5.25,0 -9,-0.75 -12,-2 -3,-1.25 -8.25,-2.75 -12.5,-2.75 -4.25,0 -12,-0.75 -16.5,-3 -4.5,-2.25 -17.75,-6 -20.75,-7.75 -3,-1.75 -12.75,-0.75 -18,3.5 -5.25,4.25 -35.5,31.25 -40.5,35.25 -5,4 -13,17.75 -16.5,26.5 -3.5,8.75 -18.5,47.25 -21,55.5 C 216.25,425 205,463 205,463"
         inkscape:label="KCR_West_Rail=2003_12_20-2007_12_02,West_Rail_Line=2007_12_02-2021_06_27,Tuen_Ma_Line=2021_06_27" />
      <path
         id="path586" data-km="10.8"
         style="display:inline;fill:none;stroke-width:1.5;stroke-dasharray:none"
         class="tw line"
         d="m 572.26399,505.86926 c 4.68072,1.30159 19.2612,15.74181 22.91427,16.53262 6.07249,1.31455 10.0478,5.23639 12.35267,6.80187 3.13116,2.1267 13.23038,1.66991 17.49051,3.95101 3.08489,1.65182 7.21969,7.16423 6.95755,14.27045 C 631.16639,569.45331 626.4814,564.48409 621,574 c -6.75844,11.73289 -7.50652,11.24069 5.08178,28.68614 8.58697,11.90022 13.81461,21.46117 32.67815,26.1236 7.60066,1.87863 9.9552,2.61855 14.24007,1.19026 l 15,-5 c 2,-1 7,0 11,3 l 24,21 c 3.64905,3.19292 5.25892,6.64172 7,16 l 2.73115,14.67983 m 0,0 0.44398,2.38646"
         inkscape:label="Tsuen_Wan_Line=1982_05_10" />
      <path
         id="tsuenwanline" data-km="5.2"
         style="display:inline;fill:none;stroke-width:1.5;stroke-dasharray:none"
         class="tw line"
         d="M 733.17513,682.06629 738,708 c 0.61994,3.33216 2.75877,10.50222 3,14 l 2,29 c 0.65254,9.46183 -0.0577,20.80651 -5.10902,33.0875 -2.86523,6.96611 -6.34903,9.04029 -10.47866,9.40879 -4.34555,0.38777 -8.5163,-1.27316 -9.70306,-2.70396 -1.1661,-1.40589 -2.5159,-2.31614 -4.97862,-2.56302 l -7.60746,-0.76262"
         inkscape:label="Tsuen_Wan_Line=1982_04_26" />
      <path
         id="lohasparkspur" data-km="3.2"
         class="tko line"
         d="m 980,710 c 7.68458,-6.64582 14.68266,-13.33563 25.3908,-4.66295 15.1997,12.31044 16.7829,20.60823 10.6092,29.66295 l -15,22"
         style="stroke-width:1.5;stroke-dasharray:none"
         inkscape:label="Tseung_Kwan_O_Line=2009_07_26" />
      <path
         id="path603" data-km="4.4"
         style="display:inline;stroke-width:1.5;stroke-dasharray:none;fill:none"
         class="tko line"
         d="M 973 678 C 976.25 681 980.52476 683.91032 986 690 C 991.28553 695.87868 991.03547 698.26034 980 710 C 975.46572 714.82362 950.74328 727.56144 942 741 C 932.2921 755.9212 920.81999 751.12947 916 744 C 915.82356 743.73901 915.65025 743.48482 915.47991 743.23732 "
         inkscape:label="Tseung_Kwan_O_Line=2002_08_18" />
      <path
         id="path604" data-km="4.7"
         style="display:inline;stroke-width:1.5;stroke-dasharray:none;fill:none"
         class="tko line"
         d="m 915.47991,743.23732 c -0.57522,-0.83581 -1.11662,-1.59534 -1.63081,-2.28259 m 0,0 C 908.71804,734.09672 906.2962,734.43661 900,738 l -45.32348,25.65117 C 850.23249,766.16631 851.4896,767.18371 847,768 l -11,2 c -6.56847,1.19427 -7.46289,-9.18712 -15,-8 l -6.01849,0.94793 c -3.84655,0.60585 -5.97666,7.4744 -8.07028,12.10859"
         inkscape:label="Tseung_Kwan_O_Line=2002_08_04" />
      <path
         id="path578" data-km="2.9"
         style="display:inline;fill:none;stroke-width:1.5;stroke-dasharray:none"
         class="kt line"
         d="m 792,722 -20,-15 c -8,-5 -12,-1 -13,1 -4,8 -8,8 -11,8 -6,-1 -7.87849,-11.44075 -7.87849,-11.44075 l -1.83991,-8.8701"
         inkscape:label="Kwun_Tong_Line=2016_10_23"
         sodipodi:nodetypes="ccsccc" />
      <path
         id="path597" data-km="2.3"
         style="display:inline;fill:none;stroke-width:1.5;stroke-dasharray:none"
         class="kt line"
         inkscape:label="Kwun_Tong_Line=2002_08_18"
         d="M 917.01693 740.36415 C 917.60814 741.14917 918.26673 742.02231 919 743 C 927 753 935.37425 747 940 739 C 943 734 953 725 965 717 " />
      <path
         id="path600" data-km="1.9"
         style="display:inline;fill:none;stroke-width:1.5;stroke-dasharray:none"
         class="kt line"
         inkscape:label="Kwun_Tong_Line=2002_08_04"
         d="m 887.38653,700.59815 c 0.20105,0.12931 0.40546,0.26318 0.61347,0.40185 0.47188,0.31459 0.99324,0.65391 1.54852,1.01409 m 0,0 c 2.97493,1.92967 6.92336,4.45779 9.45148,6.98591 3,2 2,4 5.5,6.5 2,2 6,4 7.5,15.5 0,2.14477 0.51112,3.26731 2.99498,6.65629 m 0,0 c 0.56584,0.77204 1.23407,1.6617 2.02195,2.70786" />
      <path
         id="path598" data-km="4.4"
         style="display:inline;fill:none;stroke-width:1.5;stroke-dasharray:none"
         class="kt line"
         inkscape:label="Kwun_Tong_Line=1989_08_06-2002_08_04"
         d="m 887.38653,700.59815 c 0.20105,0.12931 0.40546,0.26318 0.61347,0.40185 0.47188,0.31459 0.99324,0.65391 1.54852,1.01409 m 0,0 c 2.97493,1.92967 6.92336,4.45779 9.45148,6.98591 3,2 2,4 5.5,6.5 1.75078,1.75078 7.11278,8.12716 6.71992,12.94814 -0.17846,2.1899 -0.78857,2.57791 -2.98413,4.06562 -18.60585,12.60711 -51.28946,28.63136 -57.25562,33.98777 -2.61615,1.93587 -8.79521,1.54679 -8.71336,4.64342"
         sodipodi:nodetypes="csccccsscc" />
      <path
         id="path602" data-km="1.7"
         class="tko line"
         d="M 842.75523,769.03531 836,770 c -6.60911,0.94382 -7.46289,-9.18712 -15,-8 l -6.01849,0.94793 c -3.84655,0.60585 -5.97666,7.4744 -8.07028,12.10859"
         style="display:inline;stroke:#00ab4e;stroke-width:1.5;stroke-dasharray:none;stroke-opacity:1"
         inkscape:label="Kwun_Tong_Line=2001_09_27-2002_08_04"
         sodipodi:nodetypes="csssc" />
      <path
         id="path587" data-km="2.0"
         style="display:inline;fill:none;stroke-width:1.5;stroke-dasharray:none"
         class="kt line"
         d="M 739.11056,699.43282 733,666 c -2.88197,-13.4492 -0.22677,-11.20974 -0.0134,-20.7648"
         inkscape:label="Kwun_Tong_Line=1982_04_26"
         sodipodi:nodetypes="ccc" />
      <path
         id="path588" data-km="2.9"
         style="display:inline;fill:none;stroke:#00ab4e;stroke-width:1.5;stroke-dasharray:none;stroke-opacity:1"
         class="tw line"
         d="M 742.89527,745.09067 743,751 c 0.16806,9.48282 -0.0577,20.80651 -5.10902,33.0875 -2.86523,6.96611 -6.34903,9.04029 -10.47866,9.40879 -4.34555,0.38777 -8.5163,-1.27316 -9.70306,-2.70396 -1.1661,-1.40589 -2.5159,-2.31614 -4.97862,-2.56302 l -7.60746,-0.76262"
         inkscape:label="Modified_Initial_System=1980_02_12-1982_04_26"
         sodipodi:nodetypes="csssssc" />
      <path
         id="path581" data-km="3.7"
         style="display:inline;fill:none;stroke-width:1.5;stroke-dasharray:none"
         class="kt line"
         d="m 742.94868,744.18486 c 0.18475,-3.28696 -0.89607,-12.87105 -1.46585,-21.56633 C 740.98572,715.03217 741,708 741,708 l -8,-42 c -2.88197,-13.4492 -0.22677,-11.20974 -0.0134,-20.7648"
         inkscape:label="Modified_Initial_System=1979_12_16-1982_04_26"
         sodipodi:nodetypes="csccc" />
      <path
         id="path593" data-km="8.3"
         style="display:inline;fill:none;stroke-width:1.5;stroke-dasharray:none"
         class="kt line"
         inkscape:label="Modified_Initial_System=1979_10_01-1982_04_26,Kwun_Tong_Line=1982_04_26"
         d="m 732.98662,645.2352 3e-5,-0.002 m 0,0 C 732.99537,644.84282 733,644.43222 733,644 c 0,-0.0311 4e-5,-0.0622 1.1e-4,-0.0932 m 0,0 v -10e-4 m 0,0 C 733.02112,634.95803 736.03854,629 747,629 h 18 c 6,0 11,-1 17,-6 l 7,-6 c 3,-3 5,-4 9,-4 h 12 c 2,0 9,3 11,4 l 19,11 c 7,4 12,14 13,26 l 1,14 c 1,7 -3,14 5,18 l 8,4 c 2,1 4,4 6,5 5.79199,1.93066 8.78838,1.9976 14.38653,5.59815" />
      <path
         id="path206" data-km="11.1"
         style="display:inline;fill:none;stroke-width:1.5;stroke-dasharray:none"
         class="il line"
         inkscape:label="Island_Line=1985_05_31"
         d="m 720.49357,795.58892 c 0.84362,0.34853 1.74787,0.75287 2.66796,1.17254 m 0,0 c 3.33141,1.51953 6.87039,3.24005 8.49051,3.23993 L 745,800.00039 c 11.25278,-8.4e-4 20.47591,-4.43504 29.8018,-7.33139 7.55814,-2.34733 15.58848,0.1371 19.90236,-5.56805 3.32709,-4.40011 5.64581,-6.01414 6.16871,-12.21597 0.0442,-0.52408 0.89257,-5.35093 1.12713,-5.88498 1.41136,-3.21345 2.89741,-7.20062 10.01507,-8.438 L 821,759 c 11.22966,-1.95224 15.36796,2.20222 17,5 l 7,12 c 1.55552,2.6666 6.82264,3.8453 12,4 9.18505,0.27445 11.24041,-0.21343 15.69202,4.53657 6.50975,6.94609 10.31169,8.82978 16.63884,10.82127 13.0461,4.10632 21.86127,-7.14396 31.25479,3.61225 6.73919,7.71681 7.3779,14.948 5.28097,19.51723 l -10.79853,23.53005" />
      <path
         id="path205" data-km="1.8"
         style="display:inline;fill:none;stroke-width:1.5;stroke-dasharray:none"
         class="il line"
         inkscape:label="Island_Line=1986_05_23"
         d="m 683.92718,773.26158 5.18662,1.46326 c 3.10785,0.87679 6.92554,6.15439 7.8862,7.27516 l 6,7 c 0.56093,0.65442 2.76694,3.25858 4.5,4 2.07954,0.88965 3.31992,0.88199 4.5,1 l 5,0.5 c 0.8613,0.0861 2.094,0.51072 3.49357,1.08892" />
      <path
         id="path573" data-km="3.4"
         style="fill:none;stroke-width:1.5;stroke-dasharray:none"
         class="il line"
         inkscape:label="Island_Line=2014_12_28"
         d="m 604,790 h 9.13972 c 3.13262,0 5.45559,-1.23774 8.86028,-2 l 4.46655,-1 c 1.65059,-0.36954 5.31164,-3.18885 6.53345,-4 1.3691,-0.90894 4.3068,-3.424 10,-3 13.35331,0.99449 13.09285,1.57642 19,-4 3.16888,-2.99146 4.36677,-5.13925 7.5,-5 l 4.5,0.2 c 1.62729,0.0723 4.69919,0.65295 7.87156,1.49173 m 0,0 c 0.37548,0.0993 0.75237,0.20217 1.12844,0.30827 l 0.92718,0.26158" />
    </g>
    <g
       inkscape:groupmode="layer"
       id="stations"
       inkscape:label="station_markers"
       style="display:inline"
       fill="#fff"
       stroke="#000"
       stroke-width="0.6">
      <path
         d="m 749.515,746.983 -6.515,-2.983"
         fill="none"
         id="path2"
         inkscape:label="East_Tsim_Sha_Tsui_Tsim_Sha_Tsui=2004_10_24"
         sodipodi:nodetypes="cc" />
      <path
         d="m 702.915,776.233 2.197,12.634"
         fill="none"
         id="path624"
         inkscape:label="Hong_Kong_Central=1998_06_22"
         sodipodi:nodetypes="cc" />
      <circle
         cx="114"
         cy="766"
         r="1.897"
         id="use2" data-lines="np360=2006_09_18"
         inkscape:label="Tung_Chung=2006_09_18" />
      <circle
         cx="6.041"
         cy="860.943"
         r="1.897"
         id="use3" data-lines="np360=2006_09_18"
         inkscape:label="Ngong_Ping=2006_09_18" />
      <circle
         cx="587.829"
         cy="71.853"
         r="1.897"
         id="use4" data-lines="erl=1910_10_01-1911_10_05,erl=1949_10_14"
         inkscape:label="^Lo_Wu=1910_10_01-1911_10_05,Lo_Wu=1949_10_14" />
      <circle
         cx="469.04"
         cy="110.701"
         r="1.897"
         id="use5" data-lines="erl=2007_08_15"
         inkscape:label="^Lok_Ma_Chau=2007_08_15" />
      <circle
         cx="622"
         cy="147"
         r="1.897"
         id="use6" data-lines="erl=1930_05_16"
         inkscape:label="^Sheung_Shui=1930_05_16" />
      <circle
         cx="645.861"
         cy="169.177"
         r="1.897"
         id="use7" data-lines="erl=1910_10_01"
         inkscape:label="^Fanling=1910_10_01" />
      <circle
         cx="660.509"
         cy="200.481"
         r="1.897"
         id="use7-2" data-lines="erl=1950_09_11-1983_04_10"
         inkscape:label="^Wo_Hop_Shek=1950_09_11-1983_04_10" />
      <circle
         cx="711"
         cy="295"
         r="1.897"
         id="use8" data-lines="erl=1989_05_09"
         inkscape:label="^Tai_Wo=1989_05_09" />
      <circle
         cx="737"
         cy="315"
         r="1.897"
         id="use9" data-lines="erl=1983_04_07"
         inkscape:label="^Tai_Po_Market=1983_04_07" />
      <circle
         cx="717.867"
         cy="306.894"
         r="1.897"
         id="use9-48" data-lines="erl=1910_10_01-1983_04_07"
         inkscape:label="^Tai_Po_Market=1910_10_01-1983_04_07" />
      <circle
         cx="775.347"
         cy="328.263"
         r="1.897"
         id="use9-4" data-lines="erl=1910_10_01-1983_05_02"
         inkscape:label="^Tai_Po=1910_10_01-1965_01_01,Tai_Po_Kau=1965_01_01-1983_05_02" />
      <circle
         cx="841"
         cy="401"
         r="1.897"
         id="use10" data-lines="erl=1956_09_24"
         inkscape:label="^Ma_Liu_Shui=1956_09_24-1967_01_01,University=1967_01_01" />
      <circle
         cx="821.5"
         cy="449"
         r="1.897"
         id="use11" data-lines="erl=1978_10_07"
         inkscape:label="^Racecourse=1978_10_07" />
      <circle
         cx="806"
         cy="456"
         r="1.897"
         id="use12" data-lines="erl=1985_02_15"
         inkscape:label="^Fo_Tan=1985_02_15" />
      <circle
         cx="780"
         cy="497"
         r="1.897"
         id="use13" data-lines="erl=1910_10_01"
         inkscape:label="^Sha_Tin=1910_10_01" />
      <rect
         x="-1.897"
         y="-3.897"
         width="3.795"
         height="7.795"
         rx="1.897"
         transform="translate(755,529) rotate(130)"
         id="use14" data-lines="erl=2004_12_21,tml=2004_12_21"
         inkscape:label="^Tai_Wai=2004_12_21" />
      <circle
         cx="753.926"
         cy="528.087"
         r="1.897"
         id="use13-7" data-lines="erl=1986_04_23-2004_12_21"
         inkscape:label="^Tai_Wai=1986_04_23-2004_12_21" />
      <circle
         cx="770.316"
         cy="512.724"
         r="1.897"
         id="use13-7-4" data-lines="erl=1983_08_15-1986_04_23"
         inkscape:label="^Tai_Wai=1983_08_15-1986_04_23" />
      <rect
         x="-1.897"
         y="-3.897"
         width="3.795"
         height="7.795"
         rx="1.897"
         transform="translate(751.963,629) rotate(90)"
         id="use15" data-lines="erl=1982_05_04,ktl=1982_05_04"
         inkscape:label="!Kowloon_Tong=1982_05_04" />
      <circle
         cx="757.223"
         cy="628.963"
         r="1.897"
         id="use16-0" data-lines="ktl=1979_10_01-1982_05_04"
         inkscape:label="Kowloon_Tong=1979_10_01-1982_05_04" />
      <circle
         cx="745"
         cy="673"
         r="1.897"
         id="use16" data-lines="erl=1910_10_01"
         inkscape:label="^Yaumati=1910_10_01-1969_01_01,Mong_Kok=1969_01_01-2007_12_02,Mong_Kok_East=2007_12_02" />
      <rect
         x="-1.897"
         y="-3.897"
         width="3.795"
         height="7.795"
         rx="1.897"
         transform="translate(765.414,725.647) rotate(90)"
         id="HungHom" data-lines="erl=2009_08_16,wrl=2009_08_16-2021_06_27,tml=2021_06_27"
         inkscape:label="Hung_Hom=2009_08_16" />
      <circle
         cx="766.641"
         cy="724.38"
         r="1.897"
         id="use49-4" data-lines="erl=1910_10_01-1921_06_13,erl=1975_11_30-2009_08_16"
         inkscape:label="^Hung_Hom=1910_10_01-1921_06_13,Kowloon=1975_11_30-1996_02_01,Hung_Hom=1996_02_01-2009_08_16" />
      <circle
         cx="749.515"
         cy="746.983"
         r="1.897"
         id="EastTsimShaTsui" data-lines="erl=1910_10_01-1975_11_30,erl=2004_10_24-2009_08_16,wrl=2009_08_16-2021_06_27,tml=2021_06_27"
         inkscape:label="^Kowloon=1910_10_01-1975_11_30,East_Tsim_Sha_Tsui=2004_10_24" />
      <circle
         cx="933.97"
         cy="360.077"
         r="1.897"
         id="use17" data-lines="tml=2004_12_21"
         inkscape:label="^Wu_Kai_Sha=2004_12_21" />
      <circle
         cx="903.02"
         cy="369.841"
         r="1.897"
         id="use18" data-lines="tml=2004_12_21"
         inkscape:label="^Ma_On_Shan=2004_12_21" />
      <circle
         cx="886"
         cy="393"
         r="1.897"
         id="use19" data-lines="tml=2004_12_21"
         inkscape:label="^Heng_On=2004_12_21" />
      <circle
         cx="880"
         cy="418"
         r="1.897"
         id="use20" data-lines="tml=2004_12_21"
         inkscape:label="^Tai_Shui_Hang=2004_12_21" />
      <circle
         cx="841"
         cy="477"
         r="1.897"
         id="use21" data-lines="tml=2004_12_21"
         inkscape:label="^Shek_Mun=2004_12_21" />
      <circle
         cx="825"
         cy="495"
         r="1.897"
         id="use22" data-lines="tml=2004_12_21"
         inkscape:label="^City_One=2004_12_21" />
      <circle
         cx="806"
         cy="512"
         r="1.897"
         id="ShaTinWai" data-lines="tml=2004_12_21"
         inkscape:label="^Sha_Tin_Wai=2004_12_21" />
      <circle
         cx="781.309"
         cy="520"
         r="1.897"
         id="CheKungTemple" data-lines="tml=2004_12_21"
         inkscape:label="^Che_Kung_Temple=2004_12_21" />
      <circle
         cx="740.316"
         cy="548.256"
         r="1.897"
         id="HinKeng" data-lines="tml=2020_02_14"
         inkscape:label="Hin_Keng=2020_02_14" />
      <circle
         cx="812.068"
         cy="647.321"
         r="1.897"
         id="KaiTak" data-lines="tml=2020_02_14"
         inkscape:label="Kai_Tak=2020_02_14" />
      <circle
         cx="793.2"
         cy="658.6"
         r="1.897"
         id="SungWongToi" data-lines="tml=2021_06_27"
         inkscape:label="Sung_Wong_Toi=2021_06_27" />
      <circle
         cx="782.718"
         cy="683.604"
         r="1.897"
         id="ToKwaWan" data-lines="tml=2021_06_27"
         inkscape:label="To_Kwa_Wan=2021_06_27" />
      <circle
         cx="729.053"
         cy="721.622"
         r="1.897"
         id="Austin" data-lines="wrl=2009_08_16-2021_06_27,tml=2021_06_27"
         inkscape:label="Austin=2009_08_16" />
      <rect
         x="-1.897"
         y="-4.066"
         width="3.795"
         height="8.131"
         rx="1.897"
         transform="translate(646.952,626.001) rotate(-103.38)"
         id="use23" data-lines="twl=2003_12_20,wrl=2003_12_20-2021_06_27,tml=2021_06_27"
         inkscape:label="!Mei_Foo=2003_12_20" />
      <circle
         cx="649.69"
         cy="625.782"
         r="1.897"
         id="use24-1" data-lines="twl=1982_05_17-2003_12_20"
         inkscape:label="Lai_Wan=1982_05_17-1985_05_31,Mei_Foo=1985_05_31-2003_12_20" />
      <circle
         cx="574.424"
         cy="539.494"
         r="1.897"
         id="use24" data-lines="wrl=2003_12_20-2021_06_27,tml=2021_06_27"
         inkscape:label="^Tsuen_Wan_West=2003_12_20" />
      <circle
         cx="451.424"
         cy="344.65"
         r="1.897"
         id="use25" data-lines="wrl=2003_12_20-2021_06_27,tml=2021_06_27"
         inkscape:label="^Kam_Sheung_Road=2003_12_20" />
      <rect
         x="-1.897"
         y="-3.887"
         width="3.795"
         height="7.774"
         rx="1.897"
         transform="translate(372.605,312.461) rotate(9.841)"
         id="use26" data-lines="lr=2003_12_20,wrl=2003_12_20-2021_06_27,tml=2021_06_27"
         inkscape:label="^Yuen_Long=2003_12_20" />
      <circle
         cx="348.556"
         cy="306.619"
         r="1.897"
         id="use27" data-lines="wrl=2003_12_20-2021_06_27,tml=2021_06_27"
         inkscape:label="^Long_Ping=2003_12_20" />
      <rect
         x="-1.897"
         y="-3.893"
         width="3.795"
         height="7.786"
         rx="1.897"
         transform="translate(294.66,299.39) rotate(-133.949)"
         id="use28" data-lines="lr=2003_12_20,wrl=2003_12_20-2021_06_27,tml=2021_06_27"
         inkscape:label="^Tin_Shui_Wai=2003_12_20" />
      <rect
         x="-1.897"
         y="-3.897"
         width="3.795"
         height="7.793"
         rx="1.897"
         transform="translate(221.136,409.816) rotate(109.885)"
         id="use29" data-lines="lr=2003_12_20,wrl=2003_12_20-2021_06_27,tml=2021_06_27"
         inkscape:label="^Siu_Hong=2003_12_20" />
      <rect
         x="-1.897"
         y="-3.897"
         width="3.795"
         height="7.793"
         rx="1.897"
         transform="translate(205.069,462.156) rotate(-161.465)"
         id="use30" data-lines="lr=2003_12_20,wrl=2003_12_20-2021_06_27,tml=2021_06_27"
         inkscape:label="^Tuen_Mun=2003_12_20" />
      <circle
         cx="119.544"
         cy="673.318"
         r="1.897"
         id="use31" data-lines="ael=2005_12_20"
         inkscape:label="AsiaWorld-Expo=2005_12_20" />
      <circle
         cx="109.486"
         cy="691.026"
         r="1.897"
         id="use32" data-lines="ael=1998_07_06"
         inkscape:label="Airport=1998_07_06" />
      <circle
         cx="121.073"
         cy="766.862"
         r="1.897"
         id="use33" data-lines="tcl=1998_06_22"
         inkscape:label="Tung_Chung=1998_06_22" />
      <rect
         x="-1.897"
         y="-3.897"
         width="3.795"
         height="7.794"
         rx="1.897"
         transform="translate(567.047,568.064) rotate(5.56)"
         id="use34" data-lines="ael=1998_07_06,tcl=1998_07_06"
         inkscape:label="Tsing_Yi=1998_07_06" />
      <circle
         cx="567.297"
         cy="566.513"
         r="1.897"
         id="use35-5" data-lines="tcl=1998_06_22-1998_07_06"
         inkscape:label="Tsing_Yi=1998_06_22-1998_07_06" />
      <circle
         cx="710.742"
         cy="684.571"
         r="1.897"
         id="use35" data-lines="tcl=1998_06_22"
         inkscape:label="Olympic=1998_06_22" />
      <rect
         x="-1.897"
         y="-3.897"
         width="3.795"
         height="7.794"
         rx="1.897"
         transform="translate(713.086,724.007) rotate(-84.999)"
         id="use36" data-lines="ael=1998_07_06,tcl=1998_07_06"
         inkscape:label="Kowloon=1998_07_06" />
      <circle
         cx="714.559"
         cy="723.996"
         r="1.897"
         id="use35-2" data-lines="tcl=1998_06_22-1998_07_06"
         inkscape:label="Kowloon=1998_06_22-1998_07_06" />
      <rect
         x="-1.897"
         y="-3.897"
         width="3.795"
         height="7.795"
         rx="1.897"
         transform="translate(702.915,776.233) rotate(20)"
         id="use37" data-lines="ael=1998_07_06,tcl=1998_07_06"
         inkscape:label="Hong_Kong=1998_07_06" />
      <circle
         cx="703.318"
         cy="775.135"
         r="1.897"
         id="use35-2-8" data-lines="tcl=1998_06_22-1998_07_06"
         inkscape:label="Hong_Kong=1998_06_22-1998_07_06" />
      <circle
         cx="400.974"
         cy="692.001"
         r="1.897"
         id="use38" data-lines="drl=2005_08_01"
         inkscape:label="Disneyland_Resort=2005_08_01" />
      <circle
         cx="594.92"
         cy="522.329"
         r="1.897"
         id="use39" data-lines="twl=1982_05_10"
         inkscape:label="Tsuen_Wan=1982_05_10" />
      <circle
         cx="614.659"
         cy="530.969"
         r="1.897"
         id="use40" data-lines="twl=1982_05_10"
         inkscape:label="Tai_Wo_Hau=1982_05_10" />
      <circle
         cx="631.648"
         cy="552.974"
         r="1.897"
         id="use41" data-lines="twl=1982_05_10"
         inkscape:label="Kwai_Hing=1982_05_10" />
      <circle
         cx="622.132"
         cy="572.209"
         r="1.897"
         id="use42" data-lines="twl=1982_05_10"
         inkscape:label="Kwai_Fong=1982_05_10" />
      <circle
         cx="678.116"
         cy="628.295"
         r="1.897"
         id="use43" data-lines="twl=1982_05_17"
         inkscape:label="Lai_Chi_Kok=1982_05_17" />
      <circle
         cx="704.847"
         cy="633.116"
         r="1.897"
         id="use44" data-lines="twl=1982_05_17"
         inkscape:label="Cheung_Sha_Wan=1982_05_17" />
      <circle
         cx="719.823"
         cy="646.22"
         r="1.897"
         id="use45" data-lines="twl=1982_05_17"
         inkscape:label="Sham_Shui_Po=1982_05_17" />
      <rect
         x="-1.897"
         y="-3.897"
         width="3.795"
         height="7.795"
         rx="1.897"
         transform="translate(731.387,664.966) rotate(85)"
         id="use46" data-lines="ktl=1982_05_10,twl=1982_05_10"
         inkscape:label="Prince_Edward=1982_05_10" />
      <rect
         x="-1.897"
         y="-3.897"
         width="3.795"
         height="7.795"
         rx="1.897"
         transform="translate(734.354,680.969) rotate(85)"
         id="use47" data-lines="ktl=1982_04_26,twl=1982_04_26"
         inkscape:label="Argyle=1982_04_26-1985_05_31,Mong_Kok=1985_05_31" />
      <circle
         cx="735.829"
         cy="680.766"
         r="1.897"
         id="use54-7" data-lines="ktl=1979_12_31-1982_04_26"
         inkscape:label="Argyle=1979_12_31-1982_04_26" />
      <rect
         x="-1.897"
         y="-3.897"
         width="3.795"
         height="7.795"
         rx="1.897"
         transform="translate(737.486,697.957) rotate(85)"
         id="use48" data-lines="ktl=1982_04_26,twl=1982_04_26"
         inkscape:label="Waterloo=1982_04_26-1985_05_31,Yau_Ma_Tei=1985_05_31" />
      <circle
         cx="739.045"
         cy="697.736"
         r="1.897"
         id="use54-9" data-lines="ktl=1979_12_22-1982_04_26"
         inkscape:label="Waterloo=1979_12_22-1982_04_26" />
      <rect
         x="-1.897"
         y="-3.897"
         width="3.795"
         height="7.795"
         rx="1.897"
         transform="translate(770,704.826) rotate(0)"
         id="HoManTin" data-lines="ktl=2021_06_27,tml=2021_06_27"
         inkscape:label="Ho_Man_Tin=2021_06_27" />
      <circle
         cx="770.169"
         cy="705.974"
         r="1.897"
         id="use49-45" data-lines="ktl=2016_10_23-2021_06_27"
         inkscape:label="Ho_Man_Tin=2016_10_23-2021_06_27" />
      <circle
         cx="790"
         cy="720.5"
         r="1.897"
         id="use49" data-lines="ktl=2016_10_23"
         inkscape:label="Whampoa=2016_10_23" />
      <circle
         cx="741.505"
         cy="722.941"
         r="1.897"
         id="use50" data-lines="ktl=1979_12_16-1982_04_26,twl=1982_04_26"
         inkscape:label="Jordan=1979_12_16" />
      <circle
         cx="743"
         cy="744"
         r="1.897"
         id="use51" data-lines="ktl=1979_12_16-1982_04_26,twl=1982_04_26"
         inkscape:label="Tsim_Sha_Tsui=1979_12_16" />
      <rect
         x="-1.897"
         y="-3.897"
         width="3.795"
         height="7.795"
         rx="1.897"
         transform="translate(722.072,794.623) rotate(10)"
         id="use52" data-lines="isl=1985_05_31,twl=1985_05_31,sil=2016_12_28,erl=2022_05_15"
         inkscape:label="Admiralty=1985_05_31" />
      <circle
         cx="722.236"
         cy="793.069"
         r="1.897"
         id="use51-5" data-lines="ktl=1980_02_12-1982_04_26,twl=1982_04_26-1985_05_31"
         inkscape:label="Admiralty=1980_02_12-1985_05_31" />
      <rect
         x="-1.897"
         y="-3.897"
         width="3.795"
         height="7.795"
         rx="1.897"
         transform="translate(705.112,788.867) rotate(40)"
         id="use53" data-lines="isl=1986_05_23,twl=1986_05_23"
         inkscape:label="Central=1986_05_23" />
      <circle
         cx="706.181"
         cy="787.573"
         r="1.897"
         id="use51-5-2" data-lines="ktl=1980_02_12-1982_04_26,twl=1982_04_26-1986_05_23"
         inkscape:label="Chater=1980_02_12-1985_05_31,Central=1985_05_31-1986_05_23" />
      <circle
         cx="733"
         cy="644"
         r="1.897"
         id="use54" data-lines="ktl=1979_10_01"
         inkscape:label="Shek_Kip_Mei=1979_10_01" />
      <circle
         cx="782"
         cy="623"
         r="1.897"
         id="use55" data-lines="ktl=1979_10_01"
         inkscape:label="Lok_Fu=1979_10_01" />
      <circle
         cx="799"
         cy="613"
         r="1.897"
         id="use56" data-lines="ktl=1979_10_01"
         inkscape:label="Wong_Tai_Sin=1979_10_01" />
      <rect
         x="-1.897"
         y="-3.897"
         width="3.795"
         height="7.795"
         rx="1.897"
         transform="translate(819.122,617.939) rotate(35)"
         id="DiamondHill" data-lines="ktl=2020_02_14,tml=2020_02_14"
         inkscape:label="Diamond_Hill=2020_02_14" />
      <circle
         cx="820.193"
         cy="616.612"
         r="1.897"
         id="use57-1" data-lines="ktl=1979_10_01-2020_02_14"
         inkscape:label="Diamond_Hill=1979_10_01-2020_02_14" />
      <circle
         cx="840"
         cy="628"
         r="1.897"
         id="use57" data-lines="ktl=1979_10_01"
         inkscape:label="Choi_Hung=1979_10_01" />
      <circle
         cx="854"
         cy="668"
         r="1.897"
         id="use58" data-lines="ktl=1979_10_01"
         inkscape:label="Kowloon_Bay=1979_10_01" />
      <circle
         cx="867"
         cy="690"
         r="1.897"
         id="use59" data-lines="ktl=1979_10_01"
         inkscape:label="Ngau_Tau_Kok=1979_10_01" />
      <circle
         cx="887.356"
         cy="700.579"
         r="1.897"
         id="use60" data-lines="ktl=1979_10_01"
         inkscape:label="Kwun_Tong=1979_10_01" />
      <circle
         cx="904.5"
         cy="715.5"
         r="1.897"
         id="use61" data-lines="ktl=1989_10_01"
         inkscape:label="Lam_Tin=1989_10_01" />
      <rect
         x="-1.897"
         y="-3.897"
         width="3.795"
         height="7.795"
         rx="1.897"
         transform="translate(915.396,740.641) rotate(34.604)"
         id="use62" data-lines="ktl=2002_08_04,tko=2002_08_04"
         inkscape:label="Yau_Tong=2002_08_04" />
      <rect
         x="-1.897"
         y="-3.897"
         width="3.795"
         height="7.795"
         rx="1.897"
         transform="translate(958.391,723.466) rotate(-40)"
         id="use63" data-lines="ktl=2002_08_18,tko=2002_08_18"
         inkscape:label="Tiu_Keng_Leng=2002_08_18" />
      <circle
         cx="973"
         cy="678"
         r="1.897"
         id="use64" data-lines="tko=2002_08_18"
         inkscape:label="Po_Lam=2002_08_18" />
      <circle
         cx="986"
         cy="690"
         r="1.897"
         id="use65" data-lines="tko=2002_08_18"
         inkscape:label="Hang_Hau=2002_08_18" />
      <circle
         cx="980"
         cy="710"
         r="1.897"
         id="use66" data-lines="tko=2002_08_18"
         inkscape:label="Tseung_Kwan_O=2002_08_18" />
      <circle
         cx="1003.828"
         cy="752.852"
         r="1.897"
         id="use67" data-lines="tko=2009_07_26"
         inkscape:label="LOHAS_Park=2009_07_26" />
      <circle
         cx="622"
         cy="788"
         r="1.897"
         id="use68" data-lines="isl=2014_12_28"
         inkscape:label="Kennedy_Town=2014_12_28" />
      <circle
         cx="643"
         cy="780"
         r="1.897"
         id="use69" data-lines="isl=2014_12_28"
         inkscape:label="HKU=2014_12_28" />
      <circle
         cx="662"
         cy="776"
         r="1.897"
         id="use70" data-lines="isl=2015_03_29"
         inkscape:label="Sai_Ying_Pun=2015_03_29" />
      <circle
         cx="683.927"
         cy="773.262"
         r="1.897"
         id="use71" data-lines="isl=1986_05_23"
         inkscape:label="Sheung_Wan=1986_05_23" />
      <circle
         cx="745"
         cy="800"
         r="1.897"
         id="use72" data-lines="isl=1985_05_31"
         inkscape:label="Wan_Chai=1985_05_31" />
      <circle
         cx="775.052"
         cy="792.593"
         r="1.897"
         id="use73" data-lines="isl=1985_05_31"
         inkscape:label="Causeway_Bay=1985_05_31" />
      <circle
         cx="793.947"
         cy="787.982"
         r="1.897"
         id="use74" data-lines="isl=1985_05_31"
         inkscape:label="Tin_Hau=1985_05_31" />
      <circle
         cx="802"
         cy="769"
         r="1.897"
         id="use75" data-lines="isl=1985_05_31"
         inkscape:label="Fortress_Hill=1985_05_31" />
      <rect
         x="-1.897"
         y="-3.897"
         width="3.795"
         height="7.795"
         rx="1.897"
         transform="translate(821.001,760.499) rotate(-2.64)"
         id="use76" data-lines="isl=2001_09_27,ktl=2001_09_27-2002_08_04,tko=2002_08_04"
         inkscape:label="North_Point=2001_09_27" />
      <circle
         cx="820.982"
         cy="759.003"
         r="1.897"
         id="use75-7" data-lines="isl=1985_05_31-2001_09_27"
         inkscape:label="North_Point=1985_05_31-2001_09_27" />
      <rect
         x="-1.897"
         y="-3.897"
         width="3.795"
         height="7.795"
         rx="1.897"
         transform="translate(842,769) rotate(12.474)"
         id="use77" data-lines="isl=1989_08_06,ktl=1989_08_06-2002_08_04,tko=2002_08_04"
         inkscape:label="Quarry_Bay=1989_08_06" />
      <circle
         cx="841.224"
         cy="769.466"
         r="1.897"
         id="use78-1" data-lines="isl=1985_05_31-1989_08_06"
         inkscape:label="Quarry_Bay=1985_05_31-1989_08_06" />
      <circle
         cx="857"
         cy="780"
         r="1.897"
         id="use78" data-lines="isl=1985_05_31"
         inkscape:label="Tai_Koo=1985_05_31" />
      <circle
         cx="874.778"
         cy="786.68"
         r="1.897"
         id="use79" data-lines="isl=1985_05_31"
         inkscape:label="Sai_Wan_Ho=1985_05_31" />
      <circle
         cx="892"
         cy="796"
         r="1.897"
         id="use80" data-lines="isl=1985_05_31"
         inkscape:label="Shau_Kei_Wan=1985_05_31" />
      <circle
         cx="923.802"
         cy="803.323"
         r="1.897"
         id="use81" data-lines="isl=1985_05_31"
         inkscape:label="Heng_Fa_Chuen=1985_05_31" />
      <circle
         cx="916.449"
         cy="839.008"
         r="1.897"
         id="use82" data-lines="isl=1985_05_31"
         inkscape:label="Chai_Wan=1985_05_31" />
      <rect
         x="-1.897"
         y="-3.11"
         width="3.795"
         height="6.22"
         rx="1.897"
         transform="translate(620.102,596.35) rotate(58.039)"
         id="use83" data-lines="tcl=1998_06_22,twl=1998_06_22"
         inkscape:label="Lai_King=1998_06_22" />
      <circle
         cx="621.183"
         cy="595.784"
         r="1.897"
         id="use42-2" data-lines="twl=1982_05_10-1998_06_22"
         inkscape:label="Lai_King=1982_05_10-1998_06_22" />
      <rect
         x="-1.897"
         y="-3.739"
         width="3.795"
         height="7.478"
         rx="1.897"
         transform="translate(691.974,656.66) rotate(34.514)"
         id="use84" data-lines="tcl=2003_12_20,wrl=2003_12_20-2021_06_27,tml=2021_06_27"
         inkscape:label="!Nam_Cheong=2003_12_20" />
      <circle
         cx="690.913"
         cy="658.161"
         r="1.897"
         id="use42-2-7" data-lines="tcl=2003_12_16-2003_12_20"
         inkscape:label="Nam_Cheong=2003_12_16-2003_12_20" />
      <rect
         x="-1.897"
         y="-3.187"
         width="3.795"
         height="6.373"
         rx="1.897"
         transform="translate(358.073,645.868) rotate(151.284)"
         id="use85" data-lines="drl=2005_08_01,tcl=2005_08_01"
         inkscape:label="Sunny_Bay=2005_08_01" />
      <circle
         cx="357.485"
         cy="644.703"
         r="1.897"
         id="use42-2-4" data-lines="tcl=2005_06_01-2005_08_01"
         inkscape:label="Sunny_Bay=2005_06_01-2005_08_01" />
      <circle
         cx="748"
         cy="887"
         r="1.897"
         id="use86" data-lines="sil=2016_12_28"
         inkscape:label="Ocean_Park=2016_12_28" />
      <circle
         cx="728"
         cy="889"
         r="1.897"
         id="use87" data-lines="sil=2016_12_28"
         inkscape:label="Wong_Chuk_Hang=2016_12_28" />
      <circle
         cx="699"
         cy="904"
         r="1.897"
         id="use88" data-lines="sil=2016_12_28"
         inkscape:label="Lei_Tung=2016_12_28" />
      <circle
         cx="681"
         cy="903"
         r="1.897"
         id="use89" data-lines="sil=2016_12_28"
         inkscape:label="South_Horizons=2016_12_28" />
      <circle
         cx="751.8"
         cy="789.933"
         r="1.897"
         id="use90" data-lines="erl=2022_05_15"
         inkscape:label="Exhibition_Centre=2022_05_15" />
    </g>
  </g>
  <metadata
     id="metadata623">
    <rdf:RDF>
      <cc:Work
         rdf:about="">
        <dc:title>MTR system map in English released to the public domain</dc:title>
      </cc:Work>
    </rdf:RDF>
  </metadata>
</svg>
